<?xml version="1.0" encoding="UTF-8"?><svg id="Layer_2" xmlns="http://www.w3.org/2000/svg" viewBox="0 0 471.68 43.89"><defs><style>.cls-1{fill:#36a9e1;}.cls-2{fill:#575756;}</style></defs><g id="Layer_1-2"><path class="cls-2" d="M451.61,32.64c.27,0,.41-.15.41-.41s-.14-.41-.41-.41-.41.14-.41.41.15.41.41.41M449.92,28.27c.25,0,.38-.13.38-.37s-.13-.37-.38-.37-.38.13-.38.37.13.37.38.37M449.29,33.85c.57,0,.87-.31.87-.92v-3.96c0-.13-.05-.17-.18-.17h-.13c-.13,0-.17.05-.17.17v3.91c0,.4-.13.57-.45.57-.13,0-.2-.03-.27-.03-.08,0-.12.05-.12.15v.08c0,.11.05.17.17.19.06.01.17.02.27.02M446.26,32.6h2.36c.13,0,.18-.05.18-.17v-.11c0-.13-.05-.17-.18-.17h-2.04v-4.52c0-.13-.05-.18-.17-.18h-.14c-.13,0-.18.05-.18.18v4.8c0,.13.05.17.18.17M443.06,29.57c.27,0,.41-.15.41-.41s-.14-.41-.41-.41-.41.14-.41.41.15.41.41.41M443.06,32.64c.27,0,.41-.15.41-.41s-.14-.41-.41-.41-.41.14-.41.41.15.41.41.41M440.01,32.67c1.08,0,1.76-.48,1.76-1.35,0-.62-.27-1.01-1.11-1.39l-.38-.18c-.74-.34-.99-.64-.99-1.07,0-.55.4-.85,1.08-.85.46,0,.79.11,1.03.2.15.06.2.05.24-.06l.06-.17c.04-.1.01-.15-.08-.2-.14-.07-.6-.22-1.18-.22-.99,0-1.66.43-1.66,1.3,0,.59.27,1.02,1.11,1.41l.38.18c.74.34.99.63.99,1.06,0,.57-.43.9-1.18.9-.41,0-.85-.1-1.13-.22-.14-.06-.22-.02-.22.12v.17c0,.09.02.13.1.17.18.11.66.22,1.19.22M434.92,30.22v-2.32h.95c.97,0,1.43.38,1.43,1.16s-.46,1.16-1.43,1.16h-.95ZM437.46,32.6h.1c.15,0,.22-.11.16-.24-.32-.62-.68-1.23-1.14-1.78.81-.18,1.21-.69,1.21-1.53,0-1.08-.65-1.6-1.97-1.6h-1.23c-.13,0-.18.05-.18.18v4.8c0,.13.05.17.18.17h.14c.13,0,.18-.06.18-.17v-1.77h1.16c.6.76.76,1.02,1.15,1.77.06.13.13.17.24.17M430.64,30.51v-2.61h.81c.96,0,1.43.44,1.43,1.3s-.47,1.3-1.43,1.3h-.81ZM430.32,32.6h.14c.13,0,.18-.06.18-.17v-1.46h.77c1.28,0,1.97-.62,1.97-1.76s-.69-1.76-1.97-1.76h-1.09c-.13,0-.18.05-.18.18v4.8c0,.13.05.17.18.17M426.05,32.6h.13c.1,0,.15-.05.18-.1.6-.97,1.32-3.08,1.32-3.53,0-.13-.06-.17-.18-.17h-.11c-.13,0-.17.05-.19.17-.2,1.04-.67,2.26-1.08,3.08-.41-.82-.9-2.03-1.09-3.08-.02-.13-.06-.17-.19-.17h-.12c-.12,0-.18.05-.18.17,0,.45.73,2.56,1.32,3.53.04.06.08.1.18.1M421.01,32.67c.95,0,1.48-.37,1.48-1.04,0-.49-.28-.81-.9-1.04l-.37-.13c-.56-.2-.74-.36-.74-.69,0-.39.34-.61.96-.61.24,0,.46.05.64.12.16.06.22.05.26-.06l.05-.14c.04-.1,0-.15-.08-.2-.17-.08-.54-.16-.87-.16-.9,0-1.46.41-1.46,1.06,0,.49.28.81.9,1.04l.37.13c.56.2.73.36.73.69,0,.41-.32.6-1.01.6-.35,0-.57-.05-.9-.18-.15-.06-.22-.03-.22.12v.15l.09.16c.2.11.67.2,1.05.2M418.69,28.27c.24,0,.38-.13.38-.37s-.13-.37-.38-.37-.38.13-.38.37.13.37.38.37M418.63,32.6h.13c.13,0,.18-.05.18-.17v-3.46c0-.13-.05-.17-.18-.17h-.13c-.13,0-.18.05-.18.17v3.46c0,.13.05.17.18.17M415.62,32.24c-.28,0-.55-.06-.77-.17v-2.57c.25-.22.64-.36,1-.36.69,0,1.02.47,1.02,1.46,0,1.11-.41,1.64-1.25,1.64M414.55,33.82h.13c.13,0,.18-.05.18-.17v-1.12c.21.09.53.15.83.15,1.1,0,1.68-.71,1.68-2.07,0-1.24-.48-1.88-1.43-1.88-.43,0-.88.15-1.12.38v-.13c0-.13-.05-.17-.18-.17h-.09c-.13,0-.17.05-.17.17v4.68c0,.13.05.17.17.17M411.62,32.6h.12c.1,0,.15-.05.18-.1.6-.97,1.68-4.33,1.68-4.88,0-.13-.06-.18-.17-.18h-.12c-.13,0-.17.05-.2.18-.23,1.3-.94,3.31-1.42,4.38-.48-1.07-1.19-3.08-1.42-4.38-.02-.13-.07-.18-.2-.18h-.14c-.12,0-.18.05-.18.18,0,.55,1.08,3.9,1.68,4.88.04.06.08.1.18.1"/><path class="cls-2" d="M451.09,42.6h.14c.13,0,.17-.05.17-.17v-1.42h.76c.13,0,.17-.05.17-.17v-.11c0-.13-.05-.17-.17-.17h-.76v-1.59c0-.13-.05-.17-.17-.17h-.14c-.13,0-.17.05-.17.17v1.59h-1.86c.64-.9,1.25-2.3,1.25-2.93,0-.13-.05-.18-.18-.18h-.09c-.12,0-.17.04-.19.18-.18.97-.6,1.91-1.26,2.86-.08.1-.11.21-.11.32v.04c0,.13.05.17.18.17h2.26v1.42c0,.13.05.17.17.17M446.83,42.6h.14c.13,0,.17-.05.17-.17v-1.42h.76c.13,0,.17-.05.17-.17v-.11c0-.13-.05-.17-.17-.17h-.76v-1.59c0-.13-.05-.17-.17-.17h-.14c-.13,0-.17.05-.17.17v1.59h-1.86c.65-.9,1.25-2.3,1.25-2.93,0-.13-.05-.18-.17-.18h-.09c-.12,0-.17.04-.19.18-.18.97-.6,1.91-1.26,2.86-.08.1-.11.21-.11.32v.04c0,.13.05.17.17.17h2.26v1.42c0,.13.05.17.17.17M441.9,42.22c-1,0-1.21-.88-1.25-1.67.21-.41.74-.74,1.25-.74.71,0,1.14.45,1.14,1.2s-.43,1.21-1.14,1.21M441.9,42.67c1.03,0,1.65-.62,1.65-1.65s-.62-1.65-1.65-1.65c-.48,0-.98.26-1.27.6,0-1.42.56-2.13,1.55-2.13.27,0,.55.06.9.19.18.07.24.06.28-.04l.05-.14c.04-.12.02-.17-.07-.22-.25-.14-.78-.25-1.16-.25-1.49,0-2.05,1.17-2.05,2.5,0,1.41.19,2.79,1.77,2.79M438.53,42.6h.14c.13,0,.17-.05.17-.17v-4.8c0-.13-.05-.18-.17-.18h-.14c-.13,0-.17.05-.17.18,0,.56-.34.77-1.22.77-.12,0-.18.06-.18.17v.1c0,.13.04.18.18.18.57,0,.96-.08,1.22-.26v3.85c0,.13.05.17.17.17M434.59,40.84h1.59c.13,0,.17-.05.17-.18v-.14c0-.13-.05-.18-.17-.18h-1.59c-.13,0-.18.05-.18.18v.14c0,.13.05.18.18.18M431.69,42.67c1.13,0,1.74-.55,1.74-1.58s-.56-1.58-1.51-1.58c-.21,0-.46.03-.81.09l.05-1.7h1.83c.13,0,.18-.05.18-.17v-.1c0-.13-.05-.18-.18-.18h-2.14c-.12,0-.17.05-.18.18l-.07,2.33c0,.13.04.17.15.17.13,0,.61-.16,1.03-.16.73,0,1.13.42,1.13,1.13,0,.74-.41,1.13-1.22,1.13-.36,0-.83-.08-1.12-.2-.15-.06-.22-.02-.22.12v.17l.1.16c.26.1.71.21,1.22.21M427.67,42.21c-.91,0-1.23-.56-1.23-2.19s.32-2.19,1.23-2.19,1.23.56,1.23,2.19-.32,2.19-1.23,2.19M427.67,42.67c1.24,0,1.73-.75,1.73-2.65s-.49-2.65-1.73-2.65-1.73.75-1.73,2.65.49,2.65,1.73,2.65M422.93,43.82h.13c.11,0,.15-.04.2-.15l2.18-5.96.04-.15c0-.06-.05-.11-.14-.11h-.13c-.11,0-.15.04-.2.15l-2.18,5.96-.04.15c0,.06.05.1.14.1M422.01,42.6h.14c.13,0,.17-.05.17-.17v-4.8c0-.13-.05-.18-.17-.18h-.14c-.13,0-.17.05-.17.18v4.8c0,.13.05.17.17.17M417.95,40.79c.29-.95.66-1.97,1.01-2.74.34.74.72,1.76,1.02,2.74h-2.02ZM417.22,42.6h.13c.13,0,.17-.05.2-.17.06-.34.16-.76.28-1.2h2.27c.12.43.22.84.29,1.2.02.13.07.17.2.17h.13c.12,0,.17-.05.17-.17,0-.55-1.07-3.91-1.67-4.88-.04-.06-.08-.11-.18-.11h-.13c-.1,0-.15.05-.18.11-.6.97-1.67,4.33-1.67,4.88,0,.13.06.17.17.17"/><path class="cls-2" d="M123.24,32.66c.42,0,.64-.22.64-.64s-.22-.63-.64-.63-.64.21-.64.63.22.64.64.64M120.15,31.87c-.24,0-.44-.07-.62-.19v-1.94c.19-.17.5-.28.78-.28.53,0,.78.36.78,1.13,0,.86-.31,1.28-.95,1.28M118.85,33.82h.43c.18,0,.25-.07.25-.25v-1.04c.2.08.48.15.76.15,1.14,0,1.76-.74,1.76-2.1,0-1.23-.55-1.92-1.53-1.92-.45,0-.87.17-1.09.41v-.08c0-.18-.08-.25-.25-.25h-.34c-.18,0-.25.08-.25.25v4.58c0,.18.08.25.25.25M117.15,32.66c.42,0,.64-.22.64-.64s-.22-.63-.64-.63-.64.21-.64.63.22.64.64.64M114.27,32.68c1.07,0,1.69-.43,1.69-1.18,0-.62-.32-.96-.99-1.13l-.39-.1c-.45-.12-.58-.2-.58-.43,0-.25.26-.4.74-.4.24,0,.46.04.69.1.22.08.31.04.35-.13l.06-.27c.04-.16-.01-.25-.15-.32-.21-.08-.62-.16-.98-.16-1.04,0-1.67.47-1.67,1.18,0,.61.34.96.99,1.13l.39.11c.46.12.58.21.58.45s-.24.37-.78.37c-.33,0-.64-.06-.97-.17-.2-.07-.31-.04-.31.18v.31c0,.15.05.22.2.27.28.11.73.19,1.14.19M109.68,28.38c.1,0,.19-.03.31-.09l.9-.51c.13-.07.18-.14.18-.23l-.04-.15v-.02c-.07-.08-.12-.13-.22-.13l-.17.04-.79.32-.16.03-.16-.03-.79-.32-.18-.04c-.1,0-.15.04-.2.13v.02s-.06.15-.06.15c0,.09.06.16.18.23l.9.51c.12.06.21.09.31.09M109.88,32.68c.32,0,.63-.06.81-.14.15-.06.2-.14.2-.29v-.31c0-.2-.1-.25-.29-.19-.27.09-.43.13-.64.13-.64,0-.89-.35-.89-1.21s.25-1.2.89-1.2c.18,0,.33.04.53.11.2.07.3.06.34-.14l.07-.32c.04-.15-.03-.25-.16-.32-.15-.06-.45-.14-.83-.14-1.21,0-1.81.67-1.81,2.02s.58,2,1.77,2M106.8,28.56c.4,0,.62-.2.62-.55s-.22-.55-.62-.55-.62.2-.62.55.22.55.62.55M106.58,32.6h.43c.18,0,.25-.07.25-.25v-3.16c0-.15-.08-.22-.25-.2l-.22.02-.22-.02c-.16-.02-.25.05-.25.2v3.16c0,.18.08.25.25.25M103.7,32.6h.32c.18,0,.27-.06.35-.2.62-1.01,1.3-2.91,1.3-3.44,0-.16-.08-.23-.23-.23h-.41c-.2,0-.29.06-.32.24-.18.93-.51,1.91-.85,2.6-.33-.71-.69-1.69-.85-2.6-.03-.17-.1-.24-.32-.24h-.43c-.15,0-.23.07-.23.23,0,.53.69,2.43,1.29,3.44.09.14.18.2.36.2M99.79,31.87c-.6,0-.85-.36-.85-1.2s.25-1.21.85-1.21.85.35.85,1.21-.25,1.2-.85,1.2M99.79,32.68c1.21,0,1.81-.66,1.81-2.01s-.6-2.01-1.81-2.01-1.8.66-1.8,2.01.59,2.01,1.8,2.01M94.47,32.6h.43c.18,0,.25-.07.25-.25v-1.1c.15-.08.29-.16.41-.25.39.42.69.87.94,1.37.08.17.15.23.32.23h.48c.14,0,.21-.06.21-.19,0-.33-.66-1.37-1.22-1.94.56-.51,1.12-1.28,1.12-1.55,0-.13-.07-.19-.21-.19h-.48c-.18,0-.24.05-.34.23-.27.53-.77,1.04-1.25,1.33v-2.6c0-.18-.07-.25-.25-.25h-.43c-.17,0-.25.07-.25.25v4.65c0,.18.08.25.25.25M91.48,31.97c-.39,0-.58-.15-.58-.45,0-.4.36-.56,1.44-.57v.72c-.22.19-.56.3-.85.3M91.2,32.68c.5,0,.94-.15,1.23-.44v.1c0,.18.08.26.25.26h.34c.18,0,.25-.08.25-.25v-2.12c0-1.03-.55-1.57-1.62-1.57-.44,0-1,.11-1.29.24-.15.07-.19.17-.15.32l.07.28c.04.17.14.2.34.13.32-.11.57-.17.87-.17.57,0,.84.25.84.81v.04c-1.67,0-2.37.39-2.37,1.25,0,.7.46,1.13,1.23,1.13M89.02,32.66c.12,0,.25,0,.36-.04.18-.04.24-.12.24-.28v-.27c0-.15-.05-.22-.18-.22h-.17c-.24.01-.34-.11-.34-.41v-3.75c0-.18-.07-.25-.25-.25h-.43c-.18,0-.25.07-.25.25v3.85c0,.78.31,1.11,1.03,1.11M85.59,32.68c1.07,0,1.69-.43,1.69-1.18,0-.62-.32-.96-.99-1.13l-.39-.1c-.45-.12-.58-.2-.58-.43,0-.25.26-.4.74-.4.24,0,.46.04.69.1.22.08.31.04.35-.13l.06-.27c.04-.16-.01-.25-.15-.32-.21-.08-.62-.16-.98-.16-1.04,0-1.67.47-1.67,1.18,0,.61.34.96.99,1.13l.39.11c.46.12.58.21.58.45s-.24.37-.78.37c-.33,0-.64-.06-.97-.17-.2-.07-.31-.04-.31.18v.31c0,.15.05.22.2.27.28.11.74.19,1.14.19M81.48,31.77c-.8,0-1.09-.46-1.09-1.75s.29-1.75,1.09-1.75,1.1.46,1.1,1.75-.29,1.75-1.1,1.75M81.48,32.68c1.48,0,2.1-.79,2.1-2.65s-.62-2.65-2.1-2.65-2.09.79-2.09,2.65.62,2.65,2.09,2.65M75.3,32.6h.43c.18,0,.25-.07.25-.25v-2.71c.24.02.64.05,1.05.05.17,0,.26-.08.26-.26v-.5c0-.18-.08-.25-.27-.25-.31,0-.85.23-1.14.48v-.17c0-.18-.07-.25-.24-.25h-.34c-.18,0-.25.08-.25.25v3.36c0,.18.08.25.25.25M71.88,30.37c.02-.64.33-.99.88-.99.39,0,.63.17.63.46s-.24.43-.74.47l-.77.06ZM72.79,32.68c.41,0,.9-.09,1.16-.2.15-.06.22-.17.22-.32v-.32c0-.18-.13-.23-.34-.15-.3.12-.63.18-.94.18-.67,0-.97-.27-1.02-.85l1.1-.08c.88-.06,1.31-.41,1.31-1.1,0-.73-.59-1.19-1.53-1.19-1.2,0-1.85.71-1.85,2.04s.6,1.98,1.88,1.98M68.31,31.87c-.24,0-.44-.07-.62-.19v-1.94c.19-.17.5-.28.78-.28.53,0,.78.36.78,1.13,0,.86-.31,1.28-.95,1.28M67.01,33.82h.44c.18,0,.25-.07.25-.25v-1.04c.2.08.48.15.76.15,1.14,0,1.76-.74,1.76-2.1,0-1.23-.55-1.92-1.53-1.92-.45,0-.87.17-1.09.41v-.08c0-.18-.08-.25-.25-.25h-.34c-.17,0-.25.08-.25.25v4.58c0,.18.08.25.25.25M64.6,28.38c.1,0,.19-.03.31-.09l.9-.51c.13-.07.18-.14.18-.23l-.04-.15v-.02c-.07-.08-.12-.13-.22-.13l-.18.04-.79.32-.16.03-.16-.03-.79-.32-.18-.04c-.1,0-.15.04-.2.13v.02s-.06.15-.06.15c0,.09.06.16.18.23l.9.51c.12.06.21.09.31.09M64.36,32.68c1.07,0,1.69-.43,1.69-1.18,0-.62-.32-.96-.99-1.13l-.39-.1c-.45-.12-.58-.2-.58-.43,0-.25.26-.4.74-.4.24,0,.46.04.69.1.22.08.31.04.35-.13l.06-.27c.04-.16-.01-.25-.15-.32-.21-.08-.62-.16-.98-.16-1.04,0-1.67.47-1.67,1.18,0,.61.34.96.99,1.13l.39.11c.46.12.58.21.58.45s-.24.37-.78.37c-.33,0-.64-.06-.97-.17-.2-.07-.31-.04-.31.18v.31c0,.15.05.22.2.27.28.11.74.19,1.14.19M60.55,31.97c-.39,0-.58-.15-.58-.45,0-.4.36-.56,1.44-.57v.72c-.22.19-.56.3-.85.3M60.27,32.68c.5,0,.94-.15,1.23-.44v.1c0,.18.08.26.25.26h.34c.17,0,.24-.08.24-.25v-2.12c0-1.03-.55-1.57-1.62-1.57-.44,0-1,.11-1.29.24-.15.07-.19.17-.15.32l.07.28c.04.17.14.2.34.13.32-.11.57-.17.87-.17.57,0,.84.25.84.81v.04c-1.67,0-2.37.39-2.37,1.25,0,.7.46,1.13,1.23,1.13M56.57,32.68c.57,0,1.08-.12,1.46-.3.24-.12.29-.23.29-.53v-1.97c0-.18-.07-.25-.25-.25h-1.28c-.18,0-.25.08-.25.25v.39c0,.18.07.25.25.25h.6v1.15c-.21.07-.48.13-.83.13-.83,0-1.14-.47-1.14-1.76s.34-1.73,1.2-1.73c.31,0,.64.06,1.05.2.21.08.29.04.33-.13l.1-.43c.04-.18,0-.25-.17-.32-.27-.13-.92-.25-1.32-.25-1.52,0-2.2.81-2.2,2.65s.64,2.65,2.14,2.65M51.43,33.85c.13,0,.21-.08.28-.22.23-.47.39-1.09.39-1.57s-.22-.67-.64-.67-.64.21-.64.63c0,.38.18.58.54.61-.06.31-.15.55-.29.82-.1.2-.02.31.19.37l.17.04ZM48.23,31.77c-.8,0-1.09-.46-1.09-1.75s.29-1.75,1.09-1.75,1.1.46,1.1,1.75-.29,1.75-1.1,1.75M48.23,32.68c1.48,0,2.1-.79,2.1-2.65s-.62-2.65-2.1-2.65-2.09.79-2.09,2.65.62,2.65,2.09,2.65M43.48,32.68c.57,0,1.09-.12,1.46-.3.24-.12.29-.23.29-.53v-1.97c0-.18-.07-.25-.25-.25h-1.28c-.17,0-.24.08-.24.25v.39c0,.18.07.25.24.25h.6v1.15c-.21.07-.48.13-.83.13-.83,0-1.14-.47-1.14-1.76s.34-1.73,1.2-1.73c.32,0,.64.06,1.05.2.21.08.29.04.33-.13l.1-.43c.04-.18,0-.25-.17-.32-.27-.13-.92-.25-1.32-.25-1.52,0-2.2.81-2.2,2.65s.64,2.65,2.14,2.65M37.85,30.6c.23-.79.5-1.59.76-2.19.25.6.53,1.39.76,2.19h-1.53ZM36.68,32.6h.44c.21,0,.29-.07.32-.24.05-.29.13-.61.21-.95h1.92c.08.32.15.65.21.95.03.17.11.24.32.24h.48c.14,0,.22-.06.22-.22,0-.55-.95-3.66-1.6-4.73-.08-.12-.15-.2-.36-.2h-.44c-.21,0-.28.08-.36.2-.66,1.07-1.6,4.19-1.6,4.73,0,.17.08.22.23.22M30.4,32.6h.4c.22,0,.32-.07.33-.24.14-1.58.35-2.81.6-3.81h.01c.32,1.03.67,2.05.85,3.24.03.17.11.24.32.24h.38c.22,0,.29-.06.32-.24.19-1.2.53-2.24.85-3.26h.01c.25,1,.46,2.24.6,3.83.01.17.1.24.32.24h.44c.16,0,.24-.07.24-.22,0-.88-.55-3.86-.98-4.73-.07-.13-.15-.2-.34-.2h-.38c-.2,0-.27.06-.35.2-.29.6-.69,1.79-.89,2.85h-.01c-.2-1.07-.61-2.25-.9-2.85-.08-.14-.15-.2-.35-.2h-.39c-.2,0-.27.06-.34.2-.43.88-.99,3.86-.99,4.73,0,.15.08.22.24.22M28.62,32.6h.47c.17,0,.24-.07.24-.25v-4.65c0-.18-.07-.25-.24-.25h-.47c-.18,0-.25.07-.25.25v4.65c0,.18.08.25.25.25M24.82,32.6h2.51c.17,0,.24-.07.24-.25v-.39c0-.18-.07-.25-.24-.25h-1.8v-4.01c0-.18-.07-.25-.25-.25h-.47c-.18,0-.25.07-.25.25v4.65c0,.18.08.25.25.25M20.1,32.6h.47c.17,0,.24-.07.24-.25v-1.37c.25-.17.49-.37.68-.53.6.53.98,1.3,1.25,1.93.06.16.15.23.34.23h.52c.23,0,.24-.21.18-.39-.27-.74-.91-1.79-1.58-2.42.68-.75,1.16-1.46,1.37-1.99.08-.18.06-.36-.17-.36h-.52c-.18,0-.26.06-.34.23-.3.69-.88,1.53-1.72,2.23v-2.21c0-.18-.07-.25-.24-.25h-.47c-.18,0-.25.07-.25.25v4.65c0,.18.08.25.25.25"/><path class="cls-2" d="M118.04,38.41c.06,0,.1-.02.2-.08l.95-.57.12-.15-.03-.09h0s-.13-.11-.13-.11l-.13.03-.88.41-.09.02-.09-.02-.88-.41-.13-.03-.13.1h0s-.03.1-.03.1l.12.15.95.57c.1.06.15.08.2.08M117.77,42.67c.95,0,1.48-.37,1.48-1.04,0-.49-.28-.81-.9-1.04l-.37-.13c-.56-.2-.74-.36-.74-.69,0-.39.34-.61.96-.61.24,0,.46.05.64.12.16.06.22.05.26-.06l.05-.14c.04-.1,0-.15-.08-.2-.17-.08-.54-.16-.87-.16-.9,0-1.46.41-1.46,1.06,0,.49.28.81.9,1.04l.37.13c.56.2.74.36.74.69,0,.41-.32.6-1.01.6-.35,0-.57-.05-.9-.18-.15-.06-.22-.03-.22.12v.15l.09.16c.2.1.67.2,1.05.2M113.43,40.57c0-.93.43-1.44,1.17-1.44.54,0,.85.25.85.69s-.3.63-.94.67l-1.08.08ZM114.65,42.67c.38,0,.88-.09,1.07-.2l.09-.16v-.14c0-.13-.07-.17-.22-.12-.32.13-.6.18-.91.18-.83,0-1.2-.38-1.25-1.28l1.23-.09c.83-.06,1.27-.43,1.27-1.04,0-.68-.51-1.1-1.32-1.1-1.09,0-1.67.71-1.67,2.03s.55,1.92,1.71,1.92M110.46,41.58c-.65,0-.97-.4-.97-1.22s.32-1.22.97-1.22.97.4.97,1.22-.32,1.22-.97,1.22M110.4,43.89c1.04,0,1.53-.57,1.53-1.22,0-.33-.13-.68-.42-1.05.27-.27.4-.69.4-1.25,0-.48-.1-.87-.3-1.14.29-.26.46-.71.46-1.05,0-.12-.04-.18-.17-.18h-.11c-.13,0-.18.06-.18.18,0,.35-.13.59-.31.76-.22-.14-.51-.22-.85-.22-.96,0-1.46.57-1.46,1.65s.5,1.65,1.46,1.65c.27,0,.5-.05.69-.13.2.23.31.49.31.72,0,.46-.37.85-1.11.85-.32,0-.58-.06-.9-.2-.18-.08-.25-.05-.25.11v.15l.09.16c.24.13.69.22,1.13.22M105.4,42.6h.13c.13,0,.18-.05.18-.17v-2.92c.26-.22.67-.36,1.03-.36.6,0,.85.33.85,1.07v2.21c0,.13.05.17.18.17h.13c.13,0,.18-.05.18-.17v-2.27c0-.96-.41-1.44-1.25-1.44-.41,0-.89.16-1.14.38v-.13c0-.13-.05-.18-.18-.18h-.09c-.13,0-.17.05-.17.18v3.46c0,.13.05.17.17.17M101.72,40.57c0-.93.43-1.44,1.17-1.44.54,0,.85.25.85.69s-.3.63-.94.67l-1.08.08ZM102.94,42.67c.38,0,.88-.09,1.07-.2l.09-.16v-.14c0-.13-.07-.17-.22-.12-.32.13-.6.18-.91.18-.83,0-1.2-.38-1.25-1.28l1.23-.09c.83-.06,1.27-.43,1.27-1.04,0-.68-.51-1.1-1.32-1.1-1.09,0-1.67.71-1.67,2.03s.55,1.92,1.71,1.92M95.16,42.6h.1c.14,0,.2-.05.21-.17.15-1.38.49-3.17.85-4.29h.01c.33.95.9,2.47,1.08,3.64.02.13.07.18.21.18h.12c.14,0,.19-.05.21-.18.18-1.18.75-2.72,1.08-3.68h.01c.36,1.12.7,2.93.85,4.32.01.13.07.17.21.17h.11c.13,0,.19-.05.19-.17,0-.55-.62-3.9-1.1-4.88-.03-.06-.08-.11-.19-.11h-.11c-.12,0-.16.05-.19.11-.35.75-.92,2.39-1.13,3.47h-.01c-.2-1.08-.79-2.72-1.14-3.47-.03-.06-.07-.11-.19-.11h-.08c-.12,0-.16.05-.19.11-.48.97-1.1,4.33-1.1,4.88,0,.13.06.17.19.17M91.86,42.6h.14c.13,0,.17-.05.17-.17v-1.42h.76c.13,0,.17-.05.17-.17v-.11c0-.13-.05-.17-.17-.17h-.76v-1.59c0-.13-.05-.18-.17-.18h-.14c-.13,0-.17.05-.17.18v1.59h-1.86c.64-.9,1.25-2.3,1.25-2.93,0-.13-.05-.18-.18-.18h-.09c-.12,0-.17.04-.19.18-.18.97-.6,1.91-1.26,2.86-.08.11-.11.21-.11.32v.04c0,.13.05.17.17.17h2.26v1.42c0,.13.05.17.17.17M86.7,42.67c1.17,0,1.79-.53,1.79-1.54,0-.9-.57-1.44-1.54-1.44h-.11l1.45-1.79c.06-.07.07-.11.07-.21v-.08c0-.13-.05-.18-.17-.18h-2.52c-.13,0-.18.05-.18.18v.1c0,.13.05.18.18.18h2.03l-1.45,1.79c-.11.13-.11.16-.11.26v.06c0,.13.05.17.17.17.17,0,.34-.05.57-.05.67,0,1.11.4,1.11,1.01,0,.69-.45,1.07-1.27,1.07-.36,0-.83-.08-1.12-.2-.15-.06-.22-.02-.22.12v.17l.09.15c.26.11.72.22,1.23.22M81.61,42.6h2.87c.13,0,.18-.05.18-.17v-.11c0-.13-.05-.18-.18-.18h-2.53c.05-.25.27-.49.84-.95l.3-.24c.97-.77,1.44-1.37,1.44-2.19s-.6-1.39-1.58-1.39c-.41,0-1.04.14-1.23.25l-.08.2.06.15c.04.11.09.12.26.06.34-.13.69-.2.98-.2.65,0,1.09.37,1.09.93,0,.65-.43,1.19-1.21,1.81l-.3.24c-.82.64-1.09,1.06-1.09,1.52v.1c0,.13.05.17.17.17M80.13,42.6h.14c.13,0,.17-.05.17-.17v-4.8c0-.13-.05-.18-.17-.18h-.14c-.13,0-.17.05-.17.18,0,.56-.34.77-1.22.77-.12,0-.18.06-.18.17v.1c0,.13.04.18.18.18.57,0,.96-.08,1.22-.26v3.85c0,.13.05.17.17.17M75.85,42.6h.14c.13,0,.18-.05.18-.17v-4.8c0-.13-.05-.18-.18-.18h-.14c-.13,0-.18.05-.18.18v4.8c0,.13.05.17.18.17M72.72,42.67c1.08,0,1.76-.48,1.76-1.35,0-.62-.27-1.01-1.11-1.39l-.38-.18c-.74-.34-.99-.64-.99-1.07,0-.55.4-.85,1.09-.85.46,0,.78.11,1.03.2.15.06.2.05.24-.06l.06-.17c.04-.1.01-.15-.08-.2-.14-.07-.6-.22-1.18-.22-.99,0-1.66.43-1.66,1.3,0,.59.27,1.02,1.11,1.41l.38.17c.74.34.99.63.99,1.06,0,.57-.43.9-1.18.9-.41,0-.85-.1-1.13-.22-.14-.06-.22-.02-.22.12v.17c0,.09.02.13.1.17.18.11.66.22,1.19.22M68.47,43.85c.1,0,.15-.03.2-.15.26-.54.41-1.07.41-1.46,0-.28-.14-.43-.41-.43s-.41.14-.41.41c0,.24.13.39.35.41-.05.34-.16.67-.32.96-.06.11-.03.19.06.23l.12.03ZM65.79,42.22c-.99,0-1.2-.88-1.25-1.67.21-.41.74-.74,1.25-.74.71,0,1.14.45,1.14,1.21s-.43,1.2-1.14,1.2M65.79,42.67c1.03,0,1.65-.62,1.65-1.65s-.62-1.65-1.65-1.65c-.48,0-.98.26-1.27.6,0-1.42.56-2.13,1.55-2.13.27,0,.55.06.9.19.18.07.25.06.28-.04l.05-.14c.04-.12.02-.17-.07-.22-.25-.14-.78-.25-1.16-.25-1.48,0-2.04,1.17-2.04,2.5,0,1.41.19,2.8,1.76,2.8M60,42.6h2.87c.13,0,.17-.05.17-.17v-.11c0-.13-.05-.18-.17-.18h-2.53c.05-.25.27-.49.84-.95l.3-.24c.97-.77,1.44-1.37,1.44-2.19s-.6-1.39-1.58-1.39c-.41,0-1.04.14-1.23.25l-.08.2.06.15c.04.11.09.12.26.06.34-.13.69-.2.98-.2.65,0,1.08.37,1.08.93,0,.65-.43,1.19-1.21,1.81l-.3.24c-.82.64-1.08,1.06-1.08,1.52v.1c0,.13.05.17.17.17M57.27,42.64c.27,0,.41-.15.41-.41s-.14-.41-.41-.41-.41.14-.41.41.15.41.41.41M55.19,42.67c.33,0,.68-.07.87-.17l.09-.16v-.15c0-.15-.08-.18-.25-.1-.23.1-.43.15-.67.15-.82,0-1.14-.43-1.14-1.53s.33-1.53,1.14-1.53c.2,0,.41.04.62.12.17.07.22.05.26-.06l.05-.14-.08-.2c-.17-.08-.48-.16-.85-.16-1.09,0-1.62.64-1.62,1.97s.52,1.98,1.59,1.98M49.48,42.25c-.54,0-.83-.22-.83-.63,0-.57.52-.78,1.94-.8v1.07c-.3.23-.7.36-1.11.36M49.42,42.67c.47,0,.92-.15,1.21-.38v.14c0,.12.06.17.18.17h.09c.13,0,.18-.06.18-.17v-2.24c0-.97-.49-1.46-1.46-1.46-.37,0-.9.1-1.1.2-.08.04-.11.11-.07.2l.04.12c.04.1.11.11.29.05.27-.09.53-.15.79-.15.71,0,1.03.34,1.03,1.11v.17c-1.73,0-2.43.34-2.43,1.18,0,.67.46,1.06,1.25,1.06M44.95,42.6h.13c.13,0,.17-.05.17-.17v-1.37c.21-.11.39-.2.54-.3.51.45.92.99,1.28,1.68.06.13.11.16.2.16h.19c.09,0,.14-.04.14-.1,0-.29-.81-1.45-1.42-2,.59-.45,1.3-1.35,1.3-1.6,0-.08-.06-.11-.15-.11h-.15c-.1,0-.15.04-.22.16-.34.62-1.05,1.3-1.71,1.65v-2.98c0-.13-.05-.18-.17-.18h-.13c-.13,0-.18.05-.18.18v4.8c0,.13.05.17.18.17M42.36,42.67c.95,0,1.48-.37,1.48-1.04,0-.49-.28-.81-.9-1.04l-.37-.13c-.56-.2-.74-.36-.74-.69,0-.39.34-.61.96-.61.24,0,.46.05.64.12.16.06.22.05.26-.06l.05-.14c.04-.1,0-.15-.08-.2-.17-.08-.54-.16-.87-.16-.9,0-1.46.41-1.46,1.06,0,.49.28.81.9,1.04l.37.13c.56.2.74.36.74.69,0,.41-.32.6-1.01.6-.35,0-.57-.05-.9-.18-.15-.06-.22-.03-.22.12v.15l.09.16c.2.1.66.2,1.05.2M37.66,42.6h.13c.13,0,.18-.05.18-.17v-2.92c.26-.22.67-.36,1.03-.36.6,0,.86.33.86,1.07v2.21c0,.13.05.17.18.17h.13c.13,0,.18-.05.18-.17v-2.27c0-.96-.41-1.44-1.25-1.44-.41,0-.89.16-1.14.38v-.13c0-.13-.05-.18-.18-.18h-.09c-.13,0-.17.05-.17.18v3.46c0,.13.05.17.17.17M33.98,40.57c0-.93.43-1.44,1.17-1.44.54,0,.85.25.85.69s-.3.63-.94.67l-1.08.08ZM35.2,42.67c.39,0,.88-.09,1.07-.2l.09-.16v-.14c0-.13-.07-.17-.22-.12-.32.13-.6.18-.91.18-.83,0-1.2-.38-1.25-1.28l1.23-.09c.83-.06,1.27-.43,1.27-1.04,0-.68-.51-1.1-1.32-1.1-1.08,0-1.67.71-1.67,2.03s.55,1.92,1.71,1.92M31.15,42.6h.13c.1,0,.15-.05.18-.1.6-.97,1.32-3.08,1.32-3.53,0-.13-.06-.18-.17-.18h-.11c-.13,0-.17.05-.19.18-.2,1.04-.67,2.26-1.09,3.07-.41-.82-.9-2.03-1.09-3.07-.02-.13-.06-.18-.19-.18h-.12c-.12,0-.18.05-.18.18,0,.45.73,2.56,1.32,3.53.03.06.08.1.18.1M27.35,42.24c-.77,0-1.1-.46-1.1-1.55s.33-1.55,1.1-1.55,1.1.46,1.1,1.55-.33,1.55-1.1,1.55M27.35,42.67c1.08,0,1.59-.64,1.59-1.98s-.51-1.97-1.59-1.97-1.59.64-1.59,1.97.51,1.98,1.59,1.98M24.73,42.64c.1,0,.2,0,.27-.02.13-.02.18-.08.18-.19v-.08c0-.1-.04-.15-.12-.15-.07,0-.13.03-.27.03-.32,0-.46-.17-.46-.57v-4.03c0-.13-.05-.18-.18-.18h-.13c-.13,0-.18.05-.18.18v4.09c0,.61.29.92.87.92M21.01,42.67c1.08,0,1.76-.48,1.76-1.35,0-.62-.27-1.01-1.11-1.39l-.38-.18c-.74-.34-.99-.64-.99-1.07,0-.55.4-.85,1.08-.85.46,0,.79.11,1.03.2.15.06.2.05.24-.06l.06-.17c.03-.1.01-.15-.08-.2-.14-.07-.59-.22-1.18-.22-.99,0-1.66.43-1.66,1.3,0,.59.27,1.02,1.11,1.41l.38.17c.74.34,1,.63,1,1.06,0,.57-.43.9-1.18.9-.41,0-.85-.1-1.14-.22-.14-.06-.22-.02-.22.12v.17c0,.09.02.13.1.17.18.11.66.22,1.19.22"/><path class="cls-2" d="M171.92,29.95c.42,0,.64-.22.64-.64s-.22-.63-.64-.63-.64.21-.64.63.22.64.64.64M171.92,32.66c.42,0,.64-.22.64-.64s-.22-.63-.64-.63-.64.21-.64.63.22.64.64.64M168.45,32.66c.19,0,.38-.04.51-.07.2-.07.25-.15.25-.31v-.29c0-.15-.05-.21-.17-.21-.1,0-.25.06-.47.06-.43,0-.54-.25-.54-.72v-1.59h.92c.18,0,.25-.07.25-.24v-.3c0-.18-.08-.25-.25-.25h-.92v-.81c0-.17-.06-.24-.2-.24-.06,0-.15.02-.24.04l-.28.06c-.16.04-.21.13-.21.32v.64h-.38c-.18,0-.25.08-.25.25v.3c0,.17.07.24.25.24h.38v1.63c0,1.12.45,1.5,1.35,1.5"/><path class="cls-2" d="M239.4,30.23c-.71,0-1.14-.45-1.14-1.2s.43-1.21,1.14-1.21c.99,0,1.21.88,1.25,1.67-.21.41-.74.74-1.25.74M239.12,32.67c1.49,0,2.05-1.17,2.05-2.5,0-1.41-.19-2.8-1.77-2.8-1.03,0-1.65.62-1.65,1.65s.62,1.65,1.65,1.65c.48,0,.98-.26,1.27-.6,0,1.41-.56,2.13-1.55,2.13-.31,0-.69-.08-.97-.22-.15-.07-.23-.01-.23.13v.17l.09.16c.25.12.71.22,1.11.22M235.02,30.23c-.71,0-1.14-.45-1.14-1.2s.43-1.21,1.14-1.21c.99,0,1.21.88,1.25,1.67-.21.41-.74.74-1.25.74M234.74,32.67c1.49,0,2.05-1.17,2.05-2.5,0-1.41-.19-2.8-1.77-2.8-1.03,0-1.65.62-1.65,1.65s.62,1.65,1.65,1.65c.48,0,.98-.26,1.27-.6,0,1.41-.56,2.13-1.55,2.13-.31,0-.69-.08-.97-.22-.15-.07-.23-.01-.23.13v.17l.09.16c.25.12.71.22,1.11.22M230.93,32.22c-.99,0-1.2-.88-1.25-1.67.21-.41.73-.74,1.25-.74.71,0,1.14.45,1.14,1.2s-.43,1.21-1.14,1.21M230.93,32.67c1.03,0,1.65-.62,1.65-1.65s-.62-1.65-1.65-1.65c-.48,0-.98.26-1.27.6,0-1.42.56-2.13,1.55-2.13.27,0,.55.06.9.19.18.07.24.06.28-.04l.05-.14c.04-.12.02-.17-.07-.22-.25-.14-.78-.25-1.16-.25-1.48,0-2.04,1.17-2.04,2.5,0,1.41.19,2.79,1.76,2.79M224.8,30.23c-.71,0-1.14-.45-1.14-1.2s.43-1.21,1.14-1.21c.99,0,1.2.88,1.25,1.67-.21.41-.74.74-1.25.74M224.52,32.67c1.48,0,2.04-1.17,2.04-2.5,0-1.41-.19-2.8-1.76-2.8-1.03,0-1.65.62-1.65,1.65s.62,1.65,1.65,1.65c.48,0,.98-.26,1.27-.6,0,1.41-.56,2.13-1.55,2.13-.31,0-.69-.08-.97-.22-.15-.07-.23-.01-.23.13v.17l.09.16c.25.12.71.22,1.11.22M220.51,29.83c-.71,0-1.08-.35-1.08-1s.38-1,1.08-1,1.09.35,1.09,1-.38,1-1.09,1M220.51,32.22c-.78,0-1.23-.36-1.23-1s.45-1,1.23-1,1.23.36,1.23,1-.45,1-1.23,1M220.51,32.67c1.08,0,1.74-.53,1.74-1.39,0-.64-.29-1.06-.88-1.27.48-.21.73-.63.73-1.24,0-.89-.57-1.39-1.59-1.39s-1.59.5-1.59,1.39c0,.62.24,1.03.73,1.24-.58.2-.88.63-.88,1.27,0,.86.66,1.39,1.74,1.39M216.22,32.22c-.99,0-1.2-.88-1.25-1.67.21-.41.74-.74,1.25-.74.71,0,1.14.45,1.14,1.2s-.43,1.21-1.14,1.21M216.22,32.67c1.03,0,1.65-.62,1.65-1.65s-.62-1.65-1.65-1.65c-.48,0-.98.26-1.27.6,0-1.42.56-2.13,1.55-2.13.27,0,.55.06.9.19.18.07.24.06.28-.04l.05-.14c.04-.12.02-.17-.07-.22-.25-.14-.78-.25-1.16-.25-1.48,0-2.05,1.17-2.05,2.5,0,1.41.19,2.79,1.77,2.79M210.12,32.21c-.91,0-1.23-.56-1.23-2.19s.32-2.19,1.23-2.19,1.23.56,1.23,2.19-.32,2.19-1.23,2.19M210.12,32.67c1.24,0,1.73-.75,1.73-2.65s-.49-2.65-1.73-2.65-1.73.75-1.73,2.65.49,2.65,1.73,2.65M205.82,32.6h.17c.13,0,.17-.05.17-.17,0-2.08.26-2.98,1.41-4.36.13-.16.15-.2.15-.39v-.07c0-.12-.05-.17-.18-.17h-2.88c-.13,0-.18.05-.18.18v.1c0,.13.05.17.18.17h2.46c-1.2,1.48-1.47,2.48-1.47,4.53,0,.13.05.17.17.17M200.67,33.87c1.07,0,1.46-.91,1.46-3.23s-.39-3.23-1.46-3.23c-.13,0-.17.05-.17.18v.08c0,.13.05.17.17.17.71,0,.98.88.98,2.8s-.27,2.8-.98,2.8c-.13,0-.17.05-.17.18v.08c0,.13.05.17.17.17M197.96,32.21c-.91,0-1.23-.56-1.23-2.19s.32-2.19,1.23-2.19,1.23.56,1.23,2.19-.32,2.19-1.23,2.19M197.96,32.67c1.24,0,1.73-.75,1.73-2.65s-.49-2.65-1.73-2.65-1.73.75-1.73,2.65.49,2.65,1.73,2.65M195.25,33.87c.13,0,.17-.05.17-.17v-.08c0-.13-.05-.18-.17-.18-.71,0-.98-.88-.98-2.8s.27-2.8.98-2.8c.13,0,.17-.05.17-.17v-.08c0-.13-.05-.18-.17-.18-1.07,0-1.46.91-1.46,3.23s.38,3.23,1.46,3.23M189.52,32.22c-.99,0-1.21-.88-1.25-1.67.21-.41.74-.74,1.25-.74.71,0,1.14.45,1.14,1.2s-.43,1.21-1.14,1.21M189.52,32.67c1.03,0,1.65-.62,1.65-1.65s-.62-1.65-1.65-1.65c-.48,0-.98.26-1.27.6,0-1.42.56-2.13,1.56-2.13.27,0,.55.06.9.19.18.07.24.06.28-.04l.05-.14c.04-.12.02-.17-.07-.22-.25-.14-.78-.25-1.16-.25-1.49,0-2.04,1.17-2.04,2.5,0,1.41.19,2.79,1.76,2.79M184.95,29.83c-.71,0-1.09-.35-1.09-1s.38-1,1.09-1,1.09.35,1.09,1-.38,1-1.09,1M184.95,32.22c-.78,0-1.23-.36-1.23-1s.46-1,1.23-1,1.23.36,1.23,1-.46,1-1.23,1M184.95,32.67c1.08,0,1.74-.53,1.74-1.39,0-.64-.29-1.06-.88-1.27.48-.21.73-.63.73-1.24,0-.89-.57-1.39-1.59-1.39s-1.59.5-1.59,1.39c0,.62.25,1.03.73,1.24-.58.2-.88.63-.88,1.27,0,.86.66,1.39,1.74,1.39M180.47,32.67c1.17,0,1.79-.53,1.79-1.54,0-.9-.58-1.44-1.54-1.44h-.11l1.45-1.79c.06-.07.07-.11.07-.21v-.08c0-.13-.05-.18-.17-.18h-2.52c-.13,0-.18.05-.18.18v.1c0,.13.05.17.18.17h2.03l-1.45,1.79c-.1.13-.11.16-.11.26v.06c0,.13.05.17.18.17.17,0,.34-.05.57-.05.67,0,1.11.4,1.11,1.01,0,.69-.45,1.07-1.27,1.07-.36,0-.83-.08-1.12-.2-.15-.06-.22-.02-.22.12v.17l.09.15c.26.11.72.22,1.23.22M176.53,32.6h.11c.13,0,.18-.05.18-.17v-1.51h1.29c.13,0,.18-.05.18-.17v-.1c0-.13-.05-.18-.18-.18h-1.29v-1.51c0-.13-.05-.17-.18-.17h-.11c-.13,0-.18.05-.18.17v1.51h-1.29c-.13,0-.18.05-.18.18v.1c0,.13.05.17.18.17h1.29v1.51c0,.13.05.17.18.17"/><path class="cls-2" d="M175.43,39.95c.42,0,.64-.22.64-.64s-.22-.63-.64-.63-.64.21-.64.63.22.64.64.64M175.43,42.66c.42,0,.64-.22.64-.64s-.22-.63-.64-.63-.64.21-.64.63.22.64.64.64M167.12,42.6h.43c.18,0,.25-.07.25-.25v-2.6c.21-.18.51-.29.77-.29.44,0,.62.26.62.89v2c0,.18.07.25.24.25h.44c.18,0,.25-.07.25-.25v-2.08c0-.17-.02-.34-.05-.5.29-.21.57-.31.82-.31.43,0,.62.26.62.89v2c0,.18.08.25.25.25h.44c.18,0,.24-.07.24-.25v-2.11c0-1.07-.43-1.58-1.3-1.58-.47,0-.91.16-1.3.48-.21-.32-.54-.48-1.01-.48-.43,0-.88.16-1.15.4v-.08c0-.17-.07-.24-.25-.24h-.34c-.18,0-.25.08-.25.25v3.36c0,.18.08.25.25.25"/><path class="cls-2" d="M227.07,38.27c.25,0,.38-.13.38-.37s-.13-.37-.38-.37-.38.13-.38.37.13.37.38.37M227.01,42.6h.13c.13,0,.18-.05.18-.17v-3.46c0-.13-.05-.17-.18-.17h-.13c-.13,0-.17.05-.17.17v3.46c0,.13.05.17.17.17M224.42,42.67c.95,0,1.48-.37,1.48-1.04,0-.49-.28-.81-.9-1.04l-.37-.13c-.56-.2-.74-.36-.74-.69,0-.39.34-.61.96-.61.24,0,.45.05.64.12.16.06.22.05.26-.06l.05-.14c.04-.1,0-.15-.08-.2-.17-.08-.54-.16-.87-.16-.9,0-1.46.41-1.46,1.06,0,.49.28.81.9,1.04l.37.13c.56.2.73.36.73.69,0,.41-.32.6-1.02.6-.35,0-.57-.05-.9-.18-.15-.06-.22-.03-.22.12v.15l.09.16c.2.11.67.2,1.05.2M222.13,42.64c.27,0,.41-.15.41-.41s-.14-.41-.41-.41-.41.14-.41.41.15.41.41.41M219.39,42.24c-.77,0-1.1-.46-1.1-1.55s.33-1.55,1.1-1.55,1.1.46,1.1,1.55-.33,1.55-1.1,1.55M219.39,42.67c1.08,0,1.59-.64,1.59-1.98s-.51-1.98-1.59-1.98-1.59.64-1.59,1.98.51,1.98,1.59,1.98M215.32,41.58c-.65,0-.97-.4-.97-1.22s.32-1.22.97-1.22.97.4.97,1.22-.32,1.22-.97,1.22M215.26,43.89c1.04,0,1.53-.58,1.53-1.22,0-.33-.13-.68-.42-1.05.27-.27.4-.69.4-1.25,0-.48-.1-.87-.3-1.14.29-.26.46-.71.46-1.05,0-.12-.04-.18-.18-.18h-.11c-.13,0-.17.06-.17.18,0,.35-.13.59-.31.76-.22-.14-.51-.22-.85-.22-.96,0-1.46.57-1.46,1.65s.5,1.65,1.46,1.65c.27,0,.5-.05.69-.13.2.23.31.49.31.72,0,.46-.37.85-1.11.85-.32,0-.58-.06-.9-.2-.18-.08-.25-.05-.25.11v.15l.09.16c.24.13.69.22,1.13.22M211.33,42.25c-.54,0-.83-.22-.83-.63,0-.57.52-.78,1.94-.8v1.07c-.3.23-.7.36-1.11.36M211.27,42.67c.47,0,.92-.15,1.21-.39v.14c0,.12.06.17.17.17h.09c.13,0,.17-.06.17-.17v-2.24c0-.97-.49-1.46-1.46-1.46-.37,0-.9.11-1.1.2-.08.04-.11.11-.07.2l.04.12c.04.1.11.11.29.05.27-.09.52-.15.79-.15.71,0,1.03.34,1.03,1.11v.17c-1.73,0-2.43.34-2.43,1.18,0,.67.46,1.06,1.25,1.06M204.22,42.6h.13c.13,0,.17-.05.17-.17v-2.92c.25-.22.64-.36.99-.36.56,0,.81.33.81,1.07v2.21c0,.13.05.17.18.17h.13c.13,0,.17-.05.17-.17v-2.27c0-.2-.03-.41-.07-.6.39-.29.71-.41,1.06-.41.55,0,.8.34.8,1.07v2.21c0,.13.05.17.17.17h.13c.13,0,.17-.05.17-.17v-2.27c0-.96-.4-1.44-1.2-1.44-.46,0-.88.15-1.28.47-.2-.31-.52-.47-.96-.47s-.88.16-1.13.38v-.13c0-.13-.05-.17-.17-.17h-.09c-.13,0-.17.05-.17.17v3.46c0,.13.05.17.17.17M202.56,38.27c.24,0,.38-.13.38-.37s-.13-.37-.38-.37-.38.13-.38.37.13.37.38.37M202.5,42.6h.13c.13,0,.18-.05.18-.17v-3.46c0-.13-.05-.17-.18-.17h-.13c-.13,0-.18.05-.18.17v3.46c0,.13.05.17.18.17M201.14,42.64c.1,0,.2,0,.27-.02.13-.02.18-.08.18-.19v-.08c0-.1-.04-.15-.12-.15-.07,0-.13.03-.27.03-.32,0-.45-.17-.45-.57v-4.03c0-.13-.05-.18-.18-.18h-.13c-.13,0-.17.05-.17.18v4.09c0,.61.29.92.87.92M196.77,42.6h.13c.13,0,.17-.05.17-.17v-1.37c.21-.11.39-.2.54-.3.51.45.93.99,1.28,1.68.06.13.1.16.2.16h.19c.09,0,.14-.04.14-.1,0-.29-.8-1.45-1.42-2,.6-.45,1.3-1.35,1.3-1.6,0-.08-.06-.11-.15-.11h-.15c-.1,0-.15.04-.22.16-.34.62-1.05,1.3-1.71,1.65v-2.98c0-.13-.05-.18-.17-.18h-.13c-.13,0-.17.05-.17.18v4.8c0,.13.05.17.17.17M193.56,42.04c-.55,0-.88-.19-.88-.61s.36-.86,2.33-.87c0,.83-.45,1.48-1.45,1.48M193.56,43.89c.51,0,1-.13,1.11-.19l.09-.16v-.15c0-.15-.08-.17-.24-.11-.24.09-.57.16-.95.16-1.86,0-2.47-1-2.47-2.02,0-1.41,1.13-2.26,2.38-2.26.75,0,1.35.32,1.49,1.01-1.47,0-2.79.2-2.79,1.26,0,.64.48,1.03,1.36,1.03,1.3,0,1.95-.85,1.95-1.91,0-1.22-.86-1.83-2.04-1.83-1.49,0-2.85.98-2.85,2.69,0,1.31.8,2.48,2.96,2.48M188.07,42.24c-.77,0-1.1-.46-1.1-1.55s.33-1.55,1.1-1.55,1.1.46,1.1,1.55-.33,1.55-1.1,1.55M188.07,42.67c1.08,0,1.59-.64,1.59-1.98s-.51-1.98-1.59-1.98-1.59.64-1.59,1.98.51,1.98,1.59,1.98M184.64,42.6h.13c.13,0,.18-.05.18-.17v-3.22h.84c.13,0,.18-.05.18-.17v-.06c0-.13-.05-.17-.18-.17h-.84v-.05c0-.67.22-.9.91-.9.13,0,.17-.05.17-.17v-.08c0-.13-.05-.18-.17-.18-.95,0-1.39.42-1.39,1.3v.08h-.41c-.13,0-.18.05-.18.17v.06c0,.13.05.17.18.17h.41v3.22c0,.13.05.17.18.17M180.38,42.6h.13c.13,0,.17-.05.17-.17v-2.92c.26-.22.67-.36,1.03-.36.6,0,.85.33.85,1.07v2.21c0,.13.05.17.18.17h.13c.13,0,.17-.05.17-.17v-2.27c0-.96-.41-1.44-1.25-1.44-.41,0-.89.16-1.14.38v-.13c0-.13-.05-.17-.18-.17h-.09c-.13,0-.18.05-.18.17v3.46c0,.13.05.17.18.17M178.72,38.27c.24,0,.38-.13.38-.37s-.13-.37-.38-.37-.38.13-.38.37.13.37.38.37M178.66,42.6h.13c.13,0,.17-.05.17-.17v-3.46c0-.13-.05-.17-.17-.17h-.13c-.13,0-.18.05-.18.17v3.46c0,.13.05.17.18.17"/><path class="cls-2" d="M318.22,29.95c.42,0,.64-.22.64-.64s-.22-.63-.64-.63-.64.21-.64.63.22.64.64.64M318.22,32.66c.42,0,.64-.22.64-.64s-.22-.63-.64-.63-.64.21-.64.63.22.64.64.64M313.15,32.6h.44c.21,0,.28-.08.36-.2.66-1.07,1.6-4.19,1.6-4.74,0-.15-.08-.22-.24-.22h-.44c-.2,0-.28.07-.31.24-.22,1.26-.78,2.94-1.18,3.87-.4-.93-.95-2.61-1.17-3.87-.03-.17-.11-.24-.31-.24h-.48c-.16,0-.24.07-.24.22,0,.55.95,3.66,1.61,4.74.08.12.15.2.35.2M307.66,31.71v-3.38h.79c.9,0,1.2.43,1.2,1.69s-.31,1.69-1.2,1.69h-.79ZM306.94,32.6h1.49c1.61,0,2.23-.71,2.23-2.58s-.62-2.58-2.23-2.58h-1.49c-.17,0-.25.07-.25.25v4.65c0,.18.08.25.25.25M302.65,31.71v-3.38h.78c.9,0,1.2.43,1.2,1.69s-.31,1.69-1.2,1.69h-.78ZM301.94,32.6h1.49c1.61,0,2.23-.71,2.23-2.58s-.62-2.58-2.23-2.58h-1.49c-.17,0-.25.07-.25.25v4.65c0,.18.08.25.25.25M297.28,31.97c-.39,0-.58-.15-.58-.45,0-.4.36-.56,1.44-.57v.72c-.22.19-.56.3-.86.3M297,32.68c.51,0,.94-.15,1.23-.44v.1c0,.18.08.26.25.26h.34c.17,0,.24-.08.24-.25v-2.12c0-1.03-.55-1.57-1.62-1.57-.44,0-1,.11-1.29.24-.15.07-.19.17-.15.32l.07.28c.04.17.14.2.34.13.32-.11.57-.17.87-.17.57,0,.84.25.84.81v.04c-1.67,0-2.37.39-2.37,1.25,0,.7.45,1.13,1.23,1.13M292.43,32.6h2.56c.17,0,.24-.07.24-.25v-.29c0-.18-.07-.25-.24-.25h-1.6l1.62-2.2c.09-.12.15-.22.15-.37v-.24c0-.18-.08-.25-.25-.25h-2.43c-.17,0-.25.08-.25.25v.3c0,.17.08.24.25.24h1.49l-1.65,2.2c-.09.12-.15.23-.15.37v.25c0,.18.07.25.25.25M286.89,31.71v-3.38h.79c.9,0,1.2.43,1.2,1.69s-.31,1.69-1.2,1.69h-.79ZM286.18,32.6h1.48c1.61,0,2.23-.71,2.23-2.58s-.62-2.58-2.23-2.58h-1.48c-.18,0-.25.07-.25.25v4.65c0,.18.08.25.25.25M284.02,32.6h.47c.18,0,.24-.07.24-.25v-4.65c0-.18-.07-.25-.24-.25h-.47c-.17,0-.25.07-.25.25v4.65c0,.18.08.25.25.25"/><path class="cls-2" d="M354.76,32.6h.14c.13,0,.17-.05.17-.17v-1.42h.76c.13,0,.18-.05.18-.17v-.11c0-.13-.05-.17-.18-.17h-.76v-1.59c0-.13-.05-.18-.17-.18h-.14c-.13,0-.17.05-.17.18v1.59h-1.86c.64-.9,1.25-2.3,1.25-2.93,0-.13-.05-.18-.17-.18h-.09c-.12,0-.17.04-.19.18-.18.97-.6,1.91-1.26,2.86-.08.11-.11.21-.11.32v.04c0,.13.05.17.18.17h2.26v1.42c0,.13.05.17.17.17M348.44,32.6h2.87c.13,0,.18-.05.18-.17v-.11c0-.13-.05-.18-.18-.18h-2.53c.05-.25.27-.49.84-.95l.3-.24c.97-.77,1.44-1.37,1.44-2.19s-.6-1.39-1.58-1.39c-.41,0-1.04.14-1.23.25l-.08.2.06.15c.04.11.09.12.26.06.34-.13.69-.2.98-.2.65,0,1.08.37,1.08.93,0,.65-.43,1.19-1.21,1.81l-.3.24c-.82.64-1.09,1.06-1.09,1.52v.1c0,.13.05.17.18.17M345.74,32.67c1.17,0,1.79-.53,1.79-1.54,0-.9-.58-1.44-1.54-1.44h-.11l1.45-1.79c.06-.07.07-.11.07-.21v-.08c0-.13-.05-.18-.17-.18h-2.52c-.13,0-.17.05-.17.18v.1c0,.13.05.18.17.18h2.03l-1.45,1.79c-.1.13-.11.16-.11.26v.06c0,.13.05.17.18.17.17,0,.34-.05.57-.05.67,0,1.11.4,1.11,1.01,0,.69-.45,1.07-1.27,1.07-.36,0-.83-.08-1.12-.2-.15-.06-.22-.02-.22.12v.17l.09.15c.26.11.72.22,1.23.22M342.03,32.6h.17c.13,0,.17-.05.17-.17,0-2.08.26-2.98,1.41-4.36.13-.16.15-.2.15-.39v-.07c0-.12-.05-.17-.18-.17h-2.89c-.13,0-.18.05-.18.18v.1c0,.13.05.18.18.18h2.46c-1.2,1.48-1.47,2.48-1.47,4.52,0,.13.05.17.18.17M338.52,32.67c1.13,0,1.74-.55,1.74-1.58s-.56-1.58-1.51-1.58c-.21,0-.45.03-.81.09l.05-1.7h1.83c.13,0,.18-.05.18-.18v-.1c0-.13-.05-.18-.18-.18h-2.14c-.12,0-.17.05-.17.18l-.07,2.33c0,.13.04.18.15.18.13,0,.61-.16,1.03-.16.73,0,1.13.42,1.13,1.13,0,.74-.41,1.13-1.22,1.13-.36,0-.83-.08-1.12-.2-.15-.06-.22-.02-.22.12v.17l.1.16c.26.1.71.21,1.22.21M334.68,32.6h.17c.13,0,.17-.05.17-.17,0-2.08.26-2.98,1.41-4.36.13-.16.15-.2.15-.39v-.07c0-.12-.05-.17-.17-.17h-2.89c-.13,0-.17.05-.17.18v.1c0,.13.05.18.17.18h2.46c-1.2,1.48-1.47,2.48-1.47,4.52,0,.13.05.17.18.17M332.16,32.6h.14c.13,0,.17-.05.17-.17v-4.8c0-.13-.05-.18-.17-.18h-.14c-.13,0-.17.05-.17.18,0,.56-.34.77-1.22.77-.12,0-.18.06-.18.17v.1c0,.13.04.18.18.18.57,0,.96-.08,1.22-.26v3.85c0,.13.05.17.17.17M328.22,32.67c1.17,0,1.79-.53,1.79-1.54,0-.9-.57-1.44-1.54-1.44h-.11l1.45-1.79c.06-.07.07-.11.07-.21v-.08c0-.13-.05-.18-.17-.18h-2.52c-.13,0-.18.05-.18.18v.1c0,.13.05.18.18.18h2.03l-1.45,1.79c-.11.13-.11.16-.11.26v.06c0,.13.05.17.18.17.17,0,.34-.05.57-.05.67,0,1.11.4,1.11,1.01,0,.69-.45,1.07-1.27,1.07-.36,0-.83-.08-1.12-.2-.15-.06-.22-.02-.22.12v.17l.09.15c.26.11.72.22,1.23.22M325.53,32.6h.14c.13,0,.18-.05.18-.17v-4.8c0-.13-.05-.18-.18-.18h-.14c-.13,0-.17.05-.17.18v4.8c0,.13.05.17.17.17M322.41,32.67c1.08,0,1.76-.48,1.76-1.35,0-.62-.27-1.01-1.11-1.39l-.38-.18c-.74-.34-.99-.64-.99-1.07,0-.55.4-.85,1.09-.85.46,0,.78.11,1.03.2.15.06.2.05.24-.06l.06-.17c.04-.1.01-.15-.08-.2-.14-.07-.6-.22-1.18-.22-.99,0-1.66.43-1.66,1.3,0,.59.27,1.02,1.11,1.41l.38.17c.74.34.99.63.99,1.06,0,.57-.43.9-1.18.9-.41,0-.85-.1-1.13-.22-.14-.06-.22-.02-.22.12v.17c0,.09.02.13.1.17.18.11.66.22,1.19.22"/><path class="cls-2" d="M322.72,39.95c.42,0,.64-.22.64-.64s-.22-.63-.64-.63-.64.21-.64.63.22.64.64.64M322.72,42.66c.42,0,.64-.22.64-.64s-.22-.63-.64-.63-.64.21-.64.63.22.64.64.64M319.24,42.66c.42,0,.64-.22.64-.64s-.22-.63-.64-.63-.64.21-.64.63.22.64.64.64M317.26,42.66c.19,0,.38-.03.51-.07.2-.07.25-.15.25-.31v-.29c0-.15-.05-.21-.17-.21-.11,0-.25.06-.47.06-.43,0-.54-.25-.54-.72v-1.59h.92c.18,0,.25-.07.25-.24v-.3c0-.18-.08-.25-.25-.25h-.92v-.81c0-.18-.06-.25-.2-.25-.06,0-.15.02-.24.04l-.28.06c-.16.04-.21.13-.21.32v.64h-.38c-.18,0-.25.08-.25.25v.3c0,.17.07.24.25.24h.38v1.63c0,1.12.45,1.5,1.35,1.5M313.61,38.38c.1,0,.19-.03.31-.09l.9-.51c.13-.07.18-.14.18-.23l-.04-.15v-.02c-.07-.08-.12-.13-.22-.13l-.17.04-.79.32-.16.03-.16-.03-.79-.32-.18-.04c-.1,0-.15.04-.2.13v.02s-.06.15-.06.15c0,.09.06.16.18.23l.9.51c.12.06.21.09.31.09M313.36,42.68c1.07,0,1.69-.43,1.69-1.18,0-.62-.32-.96-.99-1.13l-.39-.1c-.45-.12-.58-.2-.58-.43,0-.25.26-.4.74-.4.24,0,.46.04.69.1.22.08.31.04.35-.13l.06-.27c.04-.16-.01-.25-.15-.32-.21-.08-.62-.16-.98-.16-1.04,0-1.67.47-1.67,1.18,0,.61.34.96.99,1.13l.39.11c.46.12.58.21.58.45s-.24.37-.78.37c-.33,0-.64-.06-.97-.17-.2-.07-.31-.04-.31.18v.31c0,.15.05.22.2.27.28.11.74.19,1.14.19M307.99,41.97c-.39,0-.58-.15-.58-.45,0-.4.36-.56,1.44-.57v.72c-.22.19-.56.3-.86.3M307.71,42.68c.5,0,.94-.15,1.23-.44v.1c0,.18.08.26.25.26h.34c.18,0,.24-.08.24-.25v-2.12c0-1.03-.55-1.57-1.62-1.57-.44,0-1,.11-1.29.24-.15.07-.19.17-.15.32l.07.28c.04.17.14.2.34.13.31-.11.57-.17.87-.17.57,0,.84.25.84.81v.04c-1.67,0-2.37.39-2.37,1.25,0,.7.46,1.13,1.23,1.13M302.69,42.6h.43c.18,0,.25-.07.25-.25v-2.6c.22-.18.52-.29.8-.29.45,0,.65.26.65.86v2.02c0,.18.07.25.25.25h.43c.18,0,.25-.07.25-.25v-2.11c0-1.07-.43-1.58-1.32-1.58-.43,0-.88.16-1.16.41v-.08c0-.17-.07-.24-.25-.24h-.34c-.17,0-.25.08-.25.25v3.36c0,.18.08.25.25.25M300.47,38.38c.1,0,.19-.03.31-.09l.9-.51c.13-.07.18-.14.18-.23l-.04-.15v-.02c-.07-.08-.12-.13-.22-.13l-.17.04-.79.32-.16.03-.16-.03-.79-.32-.17-.04c-.1,0-.15.04-.2.13v.02s-.06.15-.06.15c0,.09.06.16.18.23l.9.51c.12.06.21.09.31.09M300.67,42.68c.32,0,.63-.06.81-.14.15-.06.2-.14.2-.29v-.31c0-.2-.1-.25-.29-.19-.27.09-.43.13-.64.13-.64,0-.89-.35-.89-1.21s.25-1.2.89-1.2c.18,0,.33.04.53.11.2.07.3.06.34-.14l.07-.32c.04-.15-.03-.25-.16-.32-.15-.06-.45-.14-.83-.14-1.21,0-1.81.67-1.81,2.02s.58,2,1.77,2M297.59,38.56c.4,0,.62-.2.62-.55s-.22-.55-.62-.55-.62.2-.62.55.22.55.62.55M297.37,42.6h.43c.18,0,.25-.07.25-.25v-3.16c0-.15-.08-.22-.24-.2l-.22.02-.22-.02c-.16-.02-.25.05-.25.2v3.16c0,.18.08.25.25.25M295.68,42.66c.19,0,.38-.03.51-.07.2-.07.25-.15.25-.31v-.29c0-.15-.05-.21-.17-.21-.11,0-.25.06-.47.06-.43,0-.54-.25-.54-.72v-1.59h.92c.18,0,.25-.07.25-.24v-.3c0-.18-.08-.25-.25-.25h-.92v-.81c0-.18-.06-.25-.2-.25-.06,0-.15.02-.24.04l-.28.06c-.16.04-.21.13-.21.32v.64h-.38c-.17,0-.24.08-.24.25v.3c0,.17.07.24.24.24h.38v1.63c0,1.12.45,1.5,1.35,1.5M291.38,41.97c-.39,0-.58-.15-.58-.45,0-.4.36-.56,1.44-.57v.72c-.22.19-.56.3-.85.3M291.09,42.68c.51,0,.94-.15,1.23-.44v.1c0,.18.08.26.25.26h.34c.17,0,.25-.08.25-.25v-2.12c0-1.03-.55-1.57-1.62-1.57-.44,0-1,.11-1.29.24-.15.07-.19.17-.15.32l.07.28c.04.17.14.2.34.13.32-.11.57-.17.87-.17.57,0,.84.25.84.81v.04c-1.67,0-2.37.39-2.37,1.25,0,.7.45,1.13,1.23,1.13M283.65,42.6h.4c.22,0,.32-.07.33-.24.14-1.58.35-2.81.6-3.81h.01c.32,1.03.67,2.05.85,3.24.03.17.11.24.32.24h.38c.22,0,.29-.06.32-.24.19-1.2.53-2.24.85-3.26h.01c.24,1,.45,2.24.6,3.83.01.17.11.24.32.24h.44c.16,0,.24-.07.24-.22,0-.88-.55-3.86-.98-4.73-.07-.13-.15-.2-.34-.2h-.38c-.2,0-.27.06-.35.2-.29.6-.69,1.79-.89,2.85h-.01c-.2-1.07-.61-2.25-.9-2.85-.08-.14-.15-.2-.35-.2h-.39c-.2,0-.27.06-.34.2-.43.88-.99,3.86-.99,4.73,0,.15.08.22.24.22"/><path class="cls-2" d="M366.9,42.22c-.91,0-1.23-.56-1.23-2.19s.32-2.19,1.23-2.19,1.23.56,1.23,2.19-.32,2.19-1.23,2.19M366.9,42.67c1.24,0,1.73-.75,1.73-2.65s-.49-2.65-1.73-2.65-1.73.75-1.73,2.65.49,2.65,1.73,2.65M362.3,42.22c-.91,0-1.23-.56-1.23-2.19s.32-2.19,1.23-2.19,1.23.56,1.23,2.19-.32,2.19-1.23,2.19M362.3,42.67c1.24,0,1.73-.75,1.73-2.65s-.49-2.65-1.73-2.65-1.73.75-1.73,2.65.49,2.65,1.73,2.65M357.71,42.22c-.91,0-1.23-.56-1.23-2.19s.32-2.19,1.23-2.19,1.23.56,1.23,2.19-.32,2.19-1.23,2.19M357.71,42.67c1.24,0,1.73-.75,1.73-2.65s-.49-2.65-1.73-2.65-1.73.75-1.73,2.65.49,2.65,1.73,2.65M353.39,42.22c-.99,0-1.2-.88-1.25-1.67.21-.41.74-.74,1.25-.74.71,0,1.14.45,1.14,1.21s-.43,1.2-1.14,1.2M353.39,42.67c1.03,0,1.65-.62,1.65-1.65s-.62-1.65-1.65-1.65c-.48,0-.98.26-1.27.6,0-1.42.56-2.13,1.55-2.13.27,0,.55.06.9.19.18.07.24.06.28-.04l.05-.14c.04-.12.02-.17-.07-.22-.25-.14-.78-.25-1.16-.25-1.48,0-2.05,1.17-2.05,2.5,0,1.41.19,2.8,1.77,2.8M348.81,42.67c1.17,0,1.79-.53,1.79-1.54,0-.9-.57-1.44-1.54-1.44h-.11l1.45-1.79c.06-.07.07-.11.07-.21v-.08c0-.13-.05-.18-.17-.18h-2.52c-.13,0-.17.05-.17.18v.1c0,.13.05.18.17.18h2.03l-1.45,1.79c-.11.13-.11.16-.11.26v.06c0,.13.05.17.18.17.17,0,.34-.05.57-.05.67,0,1.11.4,1.11,1.01,0,.69-.45,1.07-1.27,1.07-.36,0-.83-.08-1.12-.2-.15-.06-.22-.02-.22.12v.17l.09.15c.26.11.72.22,1.23.22M344.84,40.23c-.71,0-1.14-.45-1.14-1.21s.43-1.2,1.14-1.2c.99,0,1.21.88,1.25,1.67-.21.41-.74.74-1.25.74M344.56,42.67c1.49,0,2.05-1.17,2.05-2.5,0-1.41-.19-2.8-1.77-2.8-1.03,0-1.65.62-1.65,1.65s.62,1.65,1.65,1.65c.48,0,.98-.26,1.27-.6,0,1.41-.56,2.13-1.55,2.13-.31,0-.69-.08-.97-.22-.15-.07-.23-.01-.23.13v.17l.09.16c.24.12.71.22,1.11.22M340.45,40.23c-.71,0-1.14-.45-1.14-1.21s.43-1.2,1.14-1.2c1,0,1.21.88,1.25,1.67-.21.41-.74.74-1.25.74M340.17,42.67c1.49,0,2.05-1.17,2.05-2.5,0-1.41-.19-2.8-1.77-2.8-1.03,0-1.65.62-1.65,1.65s.62,1.65,1.65,1.65c.48,0,.98-.26,1.27-.6,0,1.41-.56,2.13-1.55,2.13-.31,0-.69-.08-.97-.22-.15-.07-.23-.01-.23.13v.17l.09.16c.24.12.71.22,1.11.22M336.06,40.23c-.71,0-1.14-.45-1.14-1.21s.43-1.2,1.14-1.2c.99,0,1.2.88,1.25,1.67-.21.41-.74.74-1.25.74M335.78,42.67c1.48,0,2.04-1.17,2.04-2.5,0-1.41-.19-2.8-1.76-2.8-1.03,0-1.65.62-1.65,1.65s.62,1.65,1.65,1.65c.48,0,.98-.26,1.27-.6,0,1.41-.56,2.13-1.55,2.13-.31,0-.69-.08-.97-.22-.15-.07-.23-.01-.23.13v.17l.09.16c.25.12.71.22,1.11.22M331.77,39.83c-.71,0-1.08-.35-1.08-1s.38-1,1.08-1,1.09.35,1.09,1-.38,1-1.09,1M331.77,42.22c-.78,0-1.23-.36-1.23-1s.45-1,1.23-1,1.23.36,1.23,1-.45,1-1.23,1M331.77,42.67c1.08,0,1.74-.53,1.74-1.39,0-.64-.29-1.06-.88-1.27.48-.21.73-.63.73-1.24,0-.89-.57-1.39-1.59-1.39s-1.59.5-1.59,1.39c0,.62.25,1.03.73,1.24-.58.2-.88.63-.88,1.27,0,.86.66,1.39,1.74,1.39M327.21,40.23c-.71,0-1.14-.45-1.14-1.21s.43-1.2,1.14-1.2c.99,0,1.2.88,1.25,1.67-.21.41-.74.74-1.25.74M326.93,42.67c1.48,0,2.05-1.17,2.05-2.5,0-1.41-.19-2.8-1.77-2.8-1.03,0-1.65.62-1.65,1.65s.62,1.65,1.65,1.65c.48,0,.98-.26,1.27-.6,0,1.41-.56,2.13-1.55,2.13-.31,0-.69-.08-.97-.22-.15-.07-.23-.01-.23.13v.17l.09.16c.25.12.71.22,1.11.22"/><path class="cls-1" d="M471.66,2.81c-.07-.36-.09-.63-.09-.97,0-.32.02-.59.09-.95.09-.57-.16-.88-.7-.88H.93C.27,0,0,.27,0,.91v1.88c0,.66.27.91.93.91h470.03c.54,0,.79-.32.7-.88"/><path class="cls-1" d="M.02.88c.07.36.09.63.09.97,0,.32-.02.59-.09.95-.09.57.16.88.7.88h470.03c.66,0,.93-.27.93-.91V.91c0-.66-.27-.91-.93-.91H.72C.18,0-.07.32.02.88"/></g></svg>