<?xml version="1.0" encoding="UTF-8"?><svg id="Layer_2" xmlns="http://www.w3.org/2000/svg" viewBox="0 0 182.94 43.85"><defs><style>.cls-1{fill:#36a9e1;}</style></defs><g id="Layer_1-2"><path class="cls-1" d="M23.28,10.14c0-1.09-.52-1.52-1.62-1.52h-4.24c-1.38,0-1.9.33-2.62,1.76-1.62,3.24-4.33,6.24-7.05,8.09V1.95C7.76.57,7.24,0,5.86,0H1.9C.57,0,0,.57,0,1.95v31.14c0,1.38.57,1.95,1.9,1.95h3.95c1.38,0,1.9-.57,1.9-1.95v-6.66c.86-.48,1.67-.95,2.43-1.52,2.24,2.71,4,5.47,5.33,8.38.57,1.33,1.14,1.76,2.57,1.76h4.19c1.1,0,1.62-.52,1.62-1.52,0-2.38-4-9.09-7.62-13.05,3.67-3.67,7-8.52,7-10.33"/><path class="cls-1" d="M38.35,28.9c-.24,0-.43.05-.86.05-1.38,0-2-.71-2-2.43V1.95c0-1.38-.52-1.95-1.9-1.95h-3.95c-1.33,0-1.9.57-1.9,1.95v25.38c0,5.86,2.09,8.14,7.48,8.14.86,0,1.86-.05,2.67-.29,1.38-.33,1.9-.9,1.9-2.19v-2.43c0-1.19-.38-1.67-1.43-1.67"/><path class="cls-1" d="M49.61,11.09c-.76.14-1.33.19-2.05.19-.67,0-1.24-.05-2-.19-1.19-.19-1.86.33-1.86,1.48v20.52c0,1.38.57,1.95,1.9,1.95h3.95c1.38,0,1.9-.57,1.9-1.95V12.57c0-1.14-.67-1.67-1.86-1.48"/><path class="cls-1" d="M88.58,8.05c-3.24,0-6.29,1.09-8.86,3.24-1.48-2.14-3.71-3.24-7.05-3.24-2.95,0-5.95,1.09-7.9,2.81v-.38c0-1.33-.52-1.86-1.95-1.86h-3.05c-1.33,0-1.9.57-1.9,1.91v22.57c0,1.38.57,1.95,1.9,1.95h3.95c1.38,0,1.9-.57,1.9-1.95v-16.66c1.33-1.14,3.1-1.76,4.57-1.76,2.62,0,3.67,1.57,3.67,5.52v12.9c0,1.38.57,1.95,1.9,1.95h3.95c1.38,0,1.95-.57,1.95-1.95v-13.57c0-1.05-.09-2.09-.24-3.05,1.71-1.19,3.38-1.81,4.81-1.81,2.57,0,3.62,1.57,3.62,5.52v12.9c0,1.38.62,1.95,1.95,1.95h3.95c1.38,0,1.9-.57,1.9-1.95v-13.85c0-7.52-2.95-11.19-9.09-11.19"/><path class="cls-1" d="M117.76,28.42c-1.24,1.14-3.48,1.76-5.14,1.76-2.24,0-3.33-.91-3.33-2.57,0-2.29,2.05-3.24,8.48-3.33v4.14ZM114.1,8.05c-3.24,0-7.14.76-9.38,1.71-1.24.57-1.57,1.33-1.24,2.57l.62,2.38c.33,1.33,1,1.67,2.43,1.14,2.24-.81,4-1.24,6.09-1.24,3.52,0,5.14,1.48,5.14,4.62v.29c-11.19.05-15.9,2.71-15.9,8.43,0,4.71,3.14,7.62,8.33,7.62,3.52,0,6.43-1.05,8.48-3.1v.57c0,1.38.57,2,1.9,2h3.1c1.38,0,1.9-.57,1.9-1.95v-14.05c0-7.19-3.9-11-11.48-11"/><path class="cls-1" d="M141.21,25.28c-3,0-4.48-1.71-4.48-5.52s1.48-5.57,4.48-5.57,4.47,1.76,4.47,5.57-1.48,5.52-4.47,5.52M154.59,4.19c0-.1,0-.2,0-.29v-.09c-.03-1.95-1.31-3.06-3.6-3.03-2.23.03-3.47,1.15-3.48,3.05v.21c0,2.14-.53,3.67-1.53,4.86-1.38-.52-3-.86-4.76-.86-7.57,0-11.86,4.14-11.86,11.71s4.29,11.66,11.86,11.66c1.24,0,2.43-.14,3.33-.48.62.95.95,2,.95,3,0,2.05-2.14,3.57-5.48,3.57-1.76,0-4.14-.48-6.33-1.29-1.62-.57-2.48-.29-2.48,1.38v2.62c0,1.19.48,1.81,1.67,2.24,2.24.91,5.47,1.38,8.33,1.38,7.47,0,12.24-3.81,12.24-8.95,0-2.43-1.14-4.95-3.14-7.14,1.81-1.95,2.76-4.71,2.76-8s-.76-5.81-2.24-7.76c2.33-1.95,3.76-5.28,3.76-7.81"/><path class="cls-1" d="M169.99,29c-3.52,0-5-2.1-5-7.19s1.48-7.19,5-7.19,5,2.09,5,7.19-1.43,7.19-5,7.19M169.99,8.05c-8.62,0-12.9,4.57-12.9,13.76s4.29,13.76,12.9,13.76,12.95-4.52,12.95-13.76-4.29-13.76-12.95-13.76"/><path class="cls-1" d="M47.56,0C44.64,0,43,1.46,43,3.99s1.64,4.03,4.56,4.03,4.61-1.46,4.61-4.03S50.53,0,47.56,0"/></g></svg>