<?xml version="1.0" encoding="UTF-8"?><svg id="Layer_2" xmlns="http://www.w3.org/2000/svg" viewBox="0 0 37.12 844.73"><defs><style>.cls-1{fill:#e9f3fc;}</style></defs><g id="Layer_1-2"><path class="cls-1" d="M21.95,797.27c1.2,0,1.87-.6,1.87-1.64s-.67-1.66-1.87-1.66-1.89.6-1.89,1.66.67,1.64,1.89,1.64"/><path class="cls-1" d="M21.95,804.04c1.2,0,1.87-.6,1.87-1.64s-.67-1.66-1.87-1.66-1.89.6-1.89,1.66.67,1.64,1.89,1.64"/><path class="cls-1" d="M21.95,783.73c1.2,0,1.87-.6,1.87-1.64s-.67-1.66-1.87-1.66-1.89.6-1.89,1.66.67,1.64,1.89,1.64"/><path class="cls-1" d="M20.65,790.15c-.23-.32-.36-.76-.36-1.31s.12-.97.35-1.28c-.38.28-.58.72-.58,1.3s.2,1.01.59,1.29M23.23,790.15c.39-.28.59-.72.59-1.29s-.2-1.02-.58-1.3c.23.31.35.74.35,1.28s-.12.99-.35,1.31"/><path class="cls-1" d="M21.95,776.97c1.2,0,1.87-.6,1.87-1.64s-.67-1.66-1.87-1.66-1.89.6-1.89,1.66.67,1.64,1.89,1.64"/><path class="cls-1" d="M28.72,790.74c1.04,0,1.64-.67,1.64-1.89s-.6-1.87-1.64-1.87-1.66.67-1.66,1.87.6,1.89,1.66,1.89"/><path class="cls-1" d="M35.49,790.74c1.04,0,1.64-.67,1.64-1.89s-.6-1.87-1.64-1.87-1.66.67-1.66,1.87.6,1.89,1.66,1.89"/><path class="cls-1" d="M15.18,790.74c1.04,0,1.64-.67,1.64-1.89s-.6-1.87-1.64-1.87-1.66.67-1.66,1.87.6,1.89,1.66,1.89"/><path class="cls-1" d="M26.6,795.41c.46,0,.94-.24,1.4-.71.84-.86.87-1.76.13-2.49-.35-.34-.73-.51-1.11-.51-.46,0-.93.23-1.38.7-.85.88-.88,1.78-.13,2.51.34.33.71.49,1.09.49"/><path class="cls-1" d="M16.87,786c.46,0,.94-.24,1.4-.71.84-.86.87-1.76.13-2.49-.35-.34-.73-.51-1.11-.51-.46,0-.93.23-1.38.7-.85.88-.88,1.78-.13,2.51.34.33.71.49,1.09.49"/><path class="cls-1" d="M26.87,785.84c.4,0,.79-.18,1.14-.54.72-.74.66-1.64-.22-2.49-.45-.44-.92-.66-1.36-.66-.4,0-.78.18-1.12.53-.73.76-.67,1.66.2,2.49.46.45.93.67,1.37.67"/><path class="cls-1" d="M17.46,795.56c.4,0,.79-.18,1.14-.54.72-.74.66-1.64-.22-2.49-.45-.44-.92-.66-1.36-.66-.4,0-.78.18-1.12.53-.73.76-.67,1.66.19,2.49.46.45.93.67,1.37.67"/><path class="cls-1" d="M21.95,790.74c.57,0,1-.2,1.28-.58.23-.32.35-.76.35-1.31s-.12-.97-.35-1.28c-.28-.38-.72-.59-1.29-.59s-1.03.21-1.31.59c-.23.31-.35.74-.35,1.28s.12.99.36,1.31c.28.38.72.59,1.3.59"/><path class="cls-1" d="M8.41,790.74c1.04,0,1.64-.67,1.64-1.89s-.6-1.87-1.64-1.87-1.66.67-1.66,1.87.6,1.89,1.66,1.89"/><path class="cls-1" d="M31.53,800.05c.46,0,.94-.24,1.4-.72.83-.87.86-1.77.11-2.49-.35-.33-.72-.5-1.11-.5-.46,0-.93.24-1.38.71-.84.88-.87,1.78-.11,2.51.34.32.71.48,1.09.48"/><path class="cls-1" d="M11.94,781.37c.46,0,.94-.24,1.4-.72.83-.87.86-1.77.11-2.49-.35-.33-.72-.5-1.11-.5-.46,0-.93.24-1.38.71-.84.88-.87,1.78-.11,2.51.34.32.71.48,1.09.48"/><path class="cls-1" d="M31.51,780.9c.41,0,.79-.18,1.14-.55.72-.75.64-1.65-.24-2.49-.45-.43-.92-.65-1.36-.65-.4,0-.79.18-1.13.54-.73.76-.66,1.66.21,2.49.46.44.92.66,1.37.66"/><path class="cls-1" d="M12.83,800.49c.41,0,.79-.18,1.14-.55.71-.75.64-1.65-.24-2.49-.45-.43-.92-.65-1.36-.65-.4,0-.79.18-1.13.54-.73.76-.66,1.66.21,2.49.46.44.93.66,1.37.66"/><path class="cls-1" d="M21.95,810.82c1.2,0,1.87-.6,1.87-1.64s-.67-1.66-1.87-1.66-1.89.6-1.89,1.66.67,1.64,1.89,1.64"/><path class="cls-1" d="M21.95,770.12c1.2,0,1.87-.6,1.87-1.64s-.67-1.66-1.87-1.66-1.89.6-1.89,1.66.67,1.64,1.89,1.64"/><path class="cls-1" d="M1.66,790.74c1.04,0,1.64-.67,1.64-1.89s-.6-1.87-1.64-1.87-1.66.67-1.66,1.87.6,1.89,1.66,1.89"/><path class="cls-1" d="M21.95,837.96c1.2,0,1.87-.6,1.87-1.64s-.67-1.66-1.87-1.66-1.89.6-1.89,1.66.67,1.64,1.89,1.64"/><path class="cls-1" d="M21.95,844.73c1.2,0,1.87-.6,1.87-1.64s-.67-1.66-1.87-1.66-1.89.6-1.89,1.66.67,1.64,1.89,1.64"/><path class="cls-1" d="M21.95,824.42c1.2,0,1.87-.6,1.87-1.64s-.67-1.66-1.87-1.66-1.89.6-1.89,1.66.67,1.64,1.89,1.64"/><path class="cls-1" d="M20.65,830.84c-.23-.32-.36-.76-.36-1.31s.12-.97.35-1.28c-.38.28-.58.72-.58,1.3s.2,1.01.59,1.29M23.23,830.85c.39-.28.59-.72.59-1.29s-.2-1.02-.58-1.3c.23.31.35.74.35,1.28s-.12.99-.35,1.31"/><path class="cls-1" d="M21.95,817.66c1.2,0,1.87-.6,1.87-1.64s-.67-1.66-1.87-1.66-1.89.6-1.89,1.66.67,1.64,1.89,1.64"/><path class="cls-1" d="M28.72,831.43c1.04,0,1.64-.67,1.64-1.89s-.6-1.87-1.64-1.87-1.66.67-1.66,1.87.6,1.89,1.66,1.89"/><path class="cls-1" d="M35.49,831.43c1.04,0,1.64-.67,1.64-1.89s-.6-1.87-1.64-1.87-1.66.67-1.66,1.87.6,1.89,1.66,1.89"/><path class="cls-1" d="M15.18,831.43c1.04,0,1.64-.67,1.64-1.89s-.6-1.87-1.64-1.87-1.66.67-1.66,1.87.6,1.89,1.66,1.89"/><path class="cls-1" d="M26.6,836.11c.46,0,.94-.24,1.4-.71.84-.86.87-1.76.13-2.49-.35-.34-.73-.51-1.11-.51-.46,0-.93.23-1.38.7-.85.88-.88,1.78-.13,2.51.34.33.71.49,1.09.49"/><path class="cls-1" d="M16.87,826.69c.46,0,.94-.24,1.4-.71.84-.86.87-1.76.13-2.49-.35-.34-.73-.51-1.11-.51-.46,0-.93.23-1.38.7-.85.88-.88,1.78-.13,2.51.34.33.71.49,1.09.49"/><path class="cls-1" d="M26.87,826.53c.4,0,.79-.18,1.14-.54.72-.74.66-1.64-.22-2.49-.45-.44-.92-.66-1.36-.66-.4,0-.78.18-1.12.53-.73.76-.67,1.66.2,2.49.46.45.93.67,1.37.67"/><path class="cls-1" d="M17.46,836.25c.4,0,.79-.18,1.14-.54.72-.74.66-1.64-.22-2.49-.45-.44-.92-.66-1.36-.66-.4,0-.78.18-1.12.53-.73.76-.67,1.66.19,2.49.46.45.93.67,1.37.67"/><path class="cls-1" d="M21.95,831.43c.57,0,1-.2,1.28-.58.23-.32.35-.76.35-1.31s-.12-.97-.35-1.28c-.28-.38-.72-.59-1.29-.59s-1.03.21-1.31.59c-.23.31-.35.74-.35,1.28s.12.99.36,1.31c.28.38.72.59,1.3.59"/><path class="cls-1" d="M8.41,831.43c1.04,0,1.64-.67,1.64-1.89s-.6-1.87-1.64-1.87-1.66.67-1.66,1.87.6,1.89,1.66,1.89"/><path class="cls-1" d="M31.53,840.74c.46,0,.94-.24,1.4-.72.83-.87.86-1.77.11-2.49-.35-.33-.72-.5-1.11-.5-.46,0-.93.24-1.38.71-.84.88-.87,1.78-.11,2.51.34.32.71.48,1.09.48"/><path class="cls-1" d="M11.94,822.06c.46,0,.94-.24,1.4-.72.83-.87.86-1.77.11-2.49-.35-.33-.72-.5-1.11-.5-.46,0-.93.24-1.38.71-.84.88-.87,1.78-.11,2.51.34.32.71.48,1.09.48"/><path class="cls-1" d="M31.51,821.59c.41,0,.79-.18,1.14-.55.72-.75.64-1.65-.24-2.49-.45-.43-.92-.65-1.36-.65-.4,0-.79.18-1.13.54-.73.76-.66,1.66.21,2.49.46.44.92.66,1.37.66"/><path class="cls-1" d="M12.83,841.18c.41,0,.79-.18,1.14-.55.71-.75.64-1.65-.24-2.49-.45-.43-.92-.65-1.36-.65-.4,0-.79.18-1.13.54-.73.76-.66,1.66.21,2.49.46.44.93.66,1.37.66"/><path class="cls-1" d="M1.66,831.43c1.04,0,1.64-.67,1.64-1.89s-.6-1.87-1.64-1.87-1.66.67-1.66,1.87.6,1.89,1.66,1.89"/><path class="cls-1" d="M21.95,715.88c1.2,0,1.87-.6,1.87-1.64s-.67-1.66-1.87-1.66-1.89.6-1.89,1.66.67,1.64,1.89,1.64"/><path class="cls-1" d="M21.95,722.65c1.2,0,1.87-.6,1.87-1.64s-.67-1.66-1.87-1.66-1.89.6-1.89,1.66.67,1.64,1.89,1.64"/><path class="cls-1" d="M21.95,702.34c1.2,0,1.87-.6,1.87-1.64s-.67-1.66-1.87-1.66-1.89.6-1.89,1.66.67,1.64,1.89,1.64"/><path class="cls-1" d="M20.65,708.76c-.23-.32-.36-.76-.36-1.31s.12-.97.35-1.28c-.38.28-.58.72-.58,1.3s.2,1.01.59,1.29M23.23,708.76c.39-.28.59-.72.59-1.29s-.2-1.02-.58-1.3c.23.31.35.74.35,1.28s-.12.99-.35,1.31"/><path class="cls-1" d="M21.95,695.58c1.2,0,1.87-.6,1.87-1.64s-.67-1.66-1.87-1.66-1.89.6-1.89,1.66.67,1.64,1.89,1.64"/><path class="cls-1" d="M28.72,709.35c1.04,0,1.64-.67,1.64-1.89s-.6-1.87-1.64-1.87-1.66.67-1.66,1.87.6,1.89,1.66,1.89"/><path class="cls-1" d="M35.49,709.35c1.04,0,1.64-.67,1.64-1.89s-.6-1.87-1.64-1.87-1.66.67-1.66,1.87.6,1.89,1.66,1.89"/><path class="cls-1" d="M15.18,709.35c1.04,0,1.64-.67,1.64-1.89s-.6-1.87-1.64-1.87-1.66.67-1.66,1.87.6,1.89,1.66,1.89"/><path class="cls-1" d="M26.6,714.02c.46,0,.94-.24,1.4-.71.84-.86.87-1.76.13-2.49-.35-.34-.73-.51-1.11-.51-.46,0-.93.23-1.38.7-.85.88-.88,1.78-.13,2.51.34.33.71.49,1.09.49"/><path class="cls-1" d="M16.87,704.61c.46,0,.94-.24,1.4-.71.84-.86.87-1.76.13-2.49-.35-.34-.73-.51-1.11-.51-.46,0-.93.23-1.38.7-.85.88-.88,1.78-.13,2.51.34.33.71.49,1.09.49"/><path class="cls-1" d="M26.87,704.45c.4,0,.79-.18,1.14-.54.72-.74.66-1.64-.22-2.49-.45-.44-.92-.66-1.36-.66-.4,0-.78.18-1.12.53-.73.76-.67,1.66.2,2.49.46.45.93.67,1.37.67"/><path class="cls-1" d="M17.46,714.17c.4,0,.79-.18,1.14-.54.72-.74.66-1.64-.22-2.49-.45-.44-.92-.66-1.36-.66-.4,0-.78.18-1.12.53-.73.76-.67,1.66.19,2.49.46.45.93.67,1.37.67"/><path class="cls-1" d="M21.95,709.35c.57,0,1-.2,1.28-.58.23-.32.35-.76.35-1.31s-.12-.97-.35-1.28c-.28-.38-.72-.59-1.29-.59s-1.03.21-1.31.59c-.23.31-.35.74-.35,1.28s.12.99.36,1.31c.28.38.72.59,1.3.59"/><path class="cls-1" d="M8.41,709.35c1.04,0,1.64-.67,1.64-1.89s-.6-1.87-1.64-1.87-1.66.67-1.66,1.87.6,1.89,1.66,1.89"/><path class="cls-1" d="M31.53,718.66c.46,0,.94-.24,1.4-.72.83-.87.86-1.77.11-2.49-.35-.33-.72-.5-1.11-.5-.46,0-.93.24-1.38.71-.84.88-.87,1.78-.11,2.51.34.32.71.48,1.09.48"/><path class="cls-1" d="M11.94,699.98c.46,0,.94-.24,1.4-.72.83-.87.86-1.77.11-2.49-.35-.33-.72-.5-1.11-.5-.46,0-.93.24-1.38.71-.84.88-.87,1.78-.11,2.51.34.32.71.48,1.09.48"/><path class="cls-1" d="M31.51,699.51c.41,0,.79-.18,1.14-.55.72-.75.64-1.65-.24-2.49-.45-.43-.92-.65-1.36-.65-.4,0-.79.18-1.13.54-.73.76-.66,1.66.21,2.49.46.44.92.66,1.37.66"/><path class="cls-1" d="M12.83,719.1c.41,0,.79-.18,1.14-.55.71-.75.64-1.65-.24-2.49-.45-.43-.92-.65-1.36-.65-.4,0-.79.18-1.13.54-.73.76-.66,1.66.21,2.49.46.44.93.66,1.37.66"/><path class="cls-1" d="M21.95,729.43c1.2,0,1.87-.6,1.87-1.64s-.67-1.66-1.87-1.66-1.89.6-1.89,1.66.67,1.64,1.89,1.64"/><path class="cls-1" d="M21.95,688.73c1.2,0,1.87-.6,1.87-1.64s-.67-1.66-1.87-1.66-1.89.6-1.89,1.66.67,1.64,1.89,1.64"/><path class="cls-1" d="M1.66,709.35c1.04,0,1.64-.67,1.64-1.89s-.6-1.87-1.64-1.87-1.66.67-1.66,1.87.6,1.89,1.66,1.89"/><path class="cls-1" d="M21.95,756.57c1.2,0,1.87-.6,1.87-1.64s-.67-1.66-1.87-1.66-1.89.6-1.89,1.66.67,1.64,1.89,1.64"/><path class="cls-1" d="M21.95,763.34c1.2,0,1.87-.6,1.87-1.64s-.67-1.66-1.87-1.66-1.89.6-1.89,1.66.67,1.64,1.89,1.64"/><path class="cls-1" d="M21.95,743.03c1.2,0,1.87-.6,1.87-1.64s-.67-1.66-1.87-1.66-1.89.6-1.89,1.66.67,1.64,1.89,1.64"/><path class="cls-1" d="M20.65,749.45c-.23-.32-.36-.76-.36-1.31s.12-.97.35-1.28c-.38.28-.58.72-.58,1.3s.2,1.01.59,1.29M23.23,749.46c.39-.28.59-.72.59-1.29s-.2-1.02-.58-1.3c.23.31.35.74.35,1.28s-.12.99-.35,1.31"/><path class="cls-1" d="M21.95,736.27c1.2,0,1.87-.6,1.87-1.64s-.67-1.66-1.87-1.66-1.89.6-1.89,1.66.67,1.64,1.89,1.64"/><path class="cls-1" d="M28.72,750.04c1.04,0,1.64-.67,1.64-1.89s-.6-1.87-1.64-1.87-1.66.67-1.66,1.87.6,1.89,1.66,1.89"/><path class="cls-1" d="M35.49,750.04c1.04,0,1.64-.67,1.64-1.89s-.6-1.87-1.64-1.87-1.66.67-1.66,1.87.6,1.89,1.66,1.89"/><path class="cls-1" d="M15.18,750.04c1.04,0,1.64-.67,1.64-1.89s-.6-1.87-1.64-1.87-1.66.67-1.66,1.87.6,1.89,1.66,1.89"/><path class="cls-1" d="M26.6,754.72c.46,0,.94-.24,1.4-.71.84-.86.87-1.76.13-2.49-.35-.34-.73-.51-1.11-.51-.46,0-.93.23-1.38.7-.85.88-.88,1.78-.13,2.51.34.33.71.49,1.09.49"/><path class="cls-1" d="M16.87,745.3c.46,0,.94-.24,1.4-.71.84-.86.87-1.76.13-2.49-.35-.34-.73-.51-1.11-.51-.46,0-.93.23-1.38.7-.85.88-.88,1.78-.13,2.51.34.33.71.49,1.09.49"/><path class="cls-1" d="M26.87,745.14c.4,0,.79-.18,1.14-.54.72-.74.66-1.64-.22-2.49-.45-.44-.92-.66-1.36-.66-.4,0-.78.18-1.12.53-.73.76-.67,1.66.2,2.49.46.45.93.67,1.37.67"/><path class="cls-1" d="M17.46,754.86c.4,0,.79-.18,1.14-.54.72-.74.66-1.64-.22-2.49-.45-.44-.92-.66-1.36-.66-.4,0-.78.18-1.12.53-.73.76-.67,1.66.19,2.49.46.45.93.67,1.37.67"/><path class="cls-1" d="M21.95,750.04c.57,0,1-.2,1.28-.58.23-.32.35-.76.35-1.31s-.12-.97-.35-1.28c-.28-.38-.72-.59-1.29-.59s-1.03.21-1.31.59c-.23.31-.35.74-.35,1.28s.12.99.36,1.31c.28.38.72.59,1.3.59"/><path class="cls-1" d="M8.41,750.04c1.04,0,1.64-.67,1.64-1.89s-.6-1.87-1.64-1.87-1.66.67-1.66,1.87.6,1.89,1.66,1.89"/><path class="cls-1" d="M31.53,759.35c.46,0,.94-.24,1.4-.72.83-.87.86-1.77.11-2.49-.35-.33-.72-.5-1.11-.5-.46,0-.93.24-1.38.71-.84.88-.87,1.78-.11,2.51.34.32.71.48,1.09.48"/><path class="cls-1" d="M11.94,740.67c.46,0,.94-.24,1.4-.72.83-.87.86-1.77.11-2.49-.35-.33-.72-.5-1.11-.5-.46,0-.93.24-1.38.71-.84.88-.87,1.78-.11,2.51.34.32.71.48,1.09.48"/><path class="cls-1" d="M31.51,740.2c.41,0,.79-.18,1.14-.55.72-.75.64-1.65-.24-2.49-.45-.43-.92-.65-1.36-.65-.4,0-.79.18-1.13.54-.73.76-.66,1.66.21,2.49.46.44.92.66,1.37.66"/><path class="cls-1" d="M12.83,759.79c.41,0,.79-.18,1.14-.55.71-.75.64-1.65-.24-2.49-.45-.43-.92-.65-1.36-.65-.4,0-.79.18-1.13.54-.73.76-.66,1.66.21,2.49.46.44.93.66,1.37.66"/><path class="cls-1" d="M1.66,750.04c1.04,0,1.64-.67,1.64-1.89s-.6-1.87-1.64-1.87-1.66.67-1.66,1.87.6,1.89,1.66,1.89"/><path class="cls-1" d="M21.95,634.47c1.2,0,1.87-.6,1.87-1.64s-.67-1.66-1.87-1.66-1.89.6-1.89,1.66.67,1.64,1.89,1.64"/><path class="cls-1" d="M21.95,641.24c1.2,0,1.87-.6,1.87-1.64s-.67-1.66-1.87-1.66-1.89.6-1.89,1.66.67,1.64,1.89,1.64"/><path class="cls-1" d="M21.95,620.94c1.2,0,1.87-.6,1.87-1.64s-.67-1.66-1.87-1.66-1.89.6-1.89,1.66.67,1.64,1.89,1.64"/><path class="cls-1" d="M20.65,627.36c-.23-.32-.36-.76-.36-1.31s.12-.97.35-1.28c-.38.28-.58.72-.58,1.3s.2,1.01.59,1.29M23.23,627.36c.39-.28.59-.72.59-1.29s-.2-1.02-.58-1.3c.23.31.35.74.35,1.28s-.12.99-.35,1.31"/><path class="cls-1" d="M21.95,614.17c1.2,0,1.87-.6,1.87-1.64s-.67-1.66-1.87-1.66-1.89.6-1.89,1.66.67,1.64,1.89,1.64"/><path class="cls-1" d="M28.72,627.94c1.04,0,1.64-.67,1.64-1.89s-.6-1.87-1.64-1.87-1.66.67-1.66,1.87.6,1.89,1.66,1.89"/><path class="cls-1" d="M35.49,627.94c1.04,0,1.64-.67,1.64-1.89s-.6-1.87-1.64-1.87-1.66.67-1.66,1.87.6,1.89,1.66,1.89"/><path class="cls-1" d="M15.18,627.94c1.04,0,1.64-.67,1.64-1.89s-.6-1.87-1.64-1.87-1.66.67-1.66,1.87.6,1.89,1.66,1.89"/><path class="cls-1" d="M26.6,632.62c.46,0,.94-.24,1.4-.71.84-.86.87-1.76.13-2.49-.35-.34-.73-.51-1.11-.51-.46,0-.93.23-1.38.7-.85.88-.88,1.78-.13,2.51.34.33.71.49,1.09.49"/><path class="cls-1" d="M16.87,623.21c.46,0,.94-.24,1.4-.71.84-.86.87-1.76.13-2.49-.35-.34-.73-.51-1.11-.51-.46,0-.93.23-1.38.7-.85.88-.88,1.78-.13,2.51.34.33.71.49,1.09.49"/><path class="cls-1" d="M26.87,623.04c.4,0,.79-.18,1.14-.54.72-.74.66-1.64-.22-2.49-.45-.44-.92-.66-1.36-.66-.4,0-.78.18-1.12.53-.73.76-.67,1.66.2,2.49.46.45.93.67,1.37.67"/><path class="cls-1" d="M17.46,632.77c.4,0,.79-.18,1.14-.54.72-.74.66-1.64-.22-2.49-.45-.44-.92-.66-1.36-.66-.4,0-.78.18-1.12.53-.73.76-.67,1.66.19,2.49.46.45.93.67,1.37.67"/><path class="cls-1" d="M21.95,627.94c.57,0,1-.2,1.28-.58.23-.32.35-.76.35-1.31s-.12-.97-.35-1.28c-.28-.38-.72-.59-1.29-.59s-1.03.21-1.31.59c-.23.31-.35.74-.35,1.28s.12.99.36,1.31c.28.38.72.59,1.3.59"/><path class="cls-1" d="M8.41,627.94c1.04,0,1.64-.67,1.64-1.89s-.6-1.87-1.64-1.87-1.66.67-1.66,1.87.6,1.89,1.66,1.89"/><path class="cls-1" d="M31.53,637.26c.46,0,.94-.24,1.4-.72.83-.87.86-1.77.11-2.49-.35-.33-.72-.5-1.11-.5-.46,0-.93.24-1.38.71-.84.88-.87,1.78-.11,2.51.34.32.71.48,1.09.48"/><path class="cls-1" d="M11.94,618.57c.46,0,.94-.24,1.4-.72.83-.87.86-1.77.11-2.49-.35-.33-.72-.5-1.11-.5-.46,0-.93.24-1.38.71-.84.88-.87,1.78-.11,2.51.34.32.71.48,1.09.48"/><path class="cls-1" d="M31.51,618.1c.41,0,.79-.18,1.14-.55.72-.75.64-1.65-.24-2.49-.45-.43-.92-.65-1.36-.65-.4,0-.79.18-1.13.54-.73.76-.66,1.66.21,2.49.46.44.92.66,1.37.66"/><path class="cls-1" d="M12.83,637.7c.41,0,.79-.18,1.14-.55.71-.75.64-1.65-.24-2.49-.45-.43-.92-.65-1.36-.65-.4,0-.79.18-1.13.54-.73.76-.66,1.66.21,2.49.46.44.93.66,1.37.66"/><path class="cls-1" d="M21.95,648.03c1.2,0,1.87-.6,1.87-1.64s-.67-1.66-1.87-1.66-1.89.6-1.89,1.66.67,1.64,1.89,1.64"/><path class="cls-1" d="M21.95,607.33c1.2,0,1.87-.6,1.87-1.64s-.67-1.66-1.87-1.66-1.89.6-1.89,1.66.67,1.64,1.89,1.64"/><path class="cls-1" d="M1.66,627.94c1.04,0,1.64-.67,1.64-1.89s-.6-1.87-1.64-1.87-1.66.67-1.66,1.87.6,1.89,1.66,1.89"/><path class="cls-1" d="M21.95,675.17c1.2,0,1.87-.6,1.87-1.64s-.67-1.66-1.87-1.66-1.89.6-1.89,1.66.67,1.64,1.89,1.64"/><path class="cls-1" d="M21.95,681.93c1.2,0,1.87-.6,1.87-1.64s-.67-1.66-1.87-1.66-1.89.6-1.89,1.66.67,1.64,1.89,1.64"/><path class="cls-1" d="M21.95,661.63c1.2,0,1.87-.6,1.87-1.64s-.67-1.66-1.87-1.66-1.89.6-1.89,1.66.67,1.64,1.89,1.64"/><path class="cls-1" d="M20.65,668.05c-.23-.32-.36-.76-.36-1.31s.12-.97.35-1.28c-.38.28-.58.72-.58,1.3s.2,1.01.59,1.29M23.23,668.05c.39-.28.59-.72.59-1.29s-.2-1.02-.58-1.3c.23.31.35.74.35,1.28s-.12.99-.35,1.31"/><path class="cls-1" d="M21.95,654.86c1.2,0,1.87-.6,1.87-1.64s-.67-1.66-1.87-1.66-1.89.6-1.89,1.66.67,1.64,1.89,1.64"/><path class="cls-1" d="M28.72,668.63c1.04,0,1.64-.67,1.64-1.89s-.6-1.87-1.64-1.87-1.66.67-1.66,1.87.6,1.89,1.66,1.89"/><path class="cls-1" d="M35.49,668.63c1.04,0,1.64-.67,1.64-1.89s-.6-1.87-1.64-1.87-1.66.67-1.66,1.87.6,1.89,1.66,1.89"/><path class="cls-1" d="M15.18,668.63c1.04,0,1.64-.67,1.64-1.89s-.6-1.87-1.64-1.87-1.66.67-1.66,1.87.6,1.89,1.66,1.89"/><path class="cls-1" d="M26.6,673.31c.46,0,.94-.24,1.4-.71.84-.86.87-1.76.13-2.49-.35-.34-.73-.51-1.11-.51-.46,0-.93.23-1.38.7-.85.88-.88,1.78-.13,2.51.34.33.71.49,1.09.49"/><path class="cls-1" d="M16.87,663.9c.46,0,.94-.24,1.4-.71.84-.86.87-1.76.13-2.49-.35-.34-.73-.51-1.11-.51-.46,0-.93.23-1.38.7-.85.88-.88,1.78-.13,2.51.34.33.71.49,1.09.49"/><path class="cls-1" d="M26.87,663.73c.4,0,.79-.18,1.14-.54.72-.74.66-1.64-.22-2.49-.45-.44-.92-.66-1.36-.66-.4,0-.78.18-1.12.53-.73.76-.67,1.66.2,2.49.46.45.93.67,1.37.67"/><path class="cls-1" d="M17.46,673.46c.4,0,.79-.18,1.14-.54.72-.74.66-1.64-.22-2.49-.45-.44-.92-.66-1.36-.66-.4,0-.78.18-1.12.53-.73.76-.67,1.66.19,2.49.46.45.93.67,1.37.67"/><path class="cls-1" d="M21.95,668.63c.57,0,1-.2,1.28-.58.23-.32.35-.76.35-1.31s-.12-.97-.35-1.28c-.28-.38-.72-.59-1.29-.59s-1.03.21-1.31.59c-.23.31-.35.74-.35,1.28s.12.99.36,1.31c.28.38.72.59,1.3.59"/><path class="cls-1" d="M8.41,668.63c1.04,0,1.64-.67,1.64-1.89s-.6-1.87-1.64-1.87-1.66.67-1.66,1.87.6,1.89,1.66,1.89"/><path class="cls-1" d="M31.53,677.95c.46,0,.94-.24,1.4-.72.83-.87.86-1.77.11-2.49-.35-.33-.72-.5-1.11-.5-.46,0-.93.24-1.38.71-.84.88-.87,1.78-.11,2.51.34.32.71.48,1.09.48"/><path class="cls-1" d="M11.94,659.26c.46,0,.94-.24,1.4-.72.83-.87.86-1.77.11-2.49-.35-.33-.72-.5-1.11-.5-.46,0-.93.24-1.38.71-.84.88-.87,1.78-.11,2.51.34.32.71.48,1.09.48"/><path class="cls-1" d="M31.51,658.8c.41,0,.79-.18,1.14-.55.72-.75.64-1.65-.24-2.49-.45-.43-.92-.65-1.36-.65-.4,0-.79.18-1.13.54-.73.76-.66,1.66.21,2.49.46.44.92.66,1.37.66"/><path class="cls-1" d="M12.83,678.39c.41,0,.79-.18,1.14-.55.71-.75.64-1.65-.24-2.49-.45-.43-.92-.65-1.36-.65-.4,0-.79.18-1.13.54-.73.76-.66,1.66.21,2.49.46.44.93.66,1.37.66"/><path class="cls-1" d="M1.66,668.63c1.04,0,1.64-.67,1.64-1.89s-.6-1.87-1.64-1.87-1.66.67-1.66,1.87.6,1.89,1.66,1.89"/><path class="cls-1" d="M21.95,553.08c1.2,0,1.87-.6,1.87-1.64s-.67-1.66-1.87-1.66-1.89.6-1.89,1.66.67,1.64,1.89,1.64"/><path class="cls-1" d="M21.95,559.85c1.2,0,1.87-.6,1.87-1.64s-.67-1.66-1.87-1.66-1.89.6-1.89,1.66.67,1.64,1.89,1.64"/><path class="cls-1" d="M21.95,539.55c1.2,0,1.87-.6,1.87-1.64s-.67-1.66-1.87-1.66-1.89.6-1.89,1.66.67,1.64,1.89,1.64"/><path class="cls-1" d="M20.65,545.97c-.23-.32-.36-.76-.36-1.31s.12-.97.35-1.28c-.38.28-.58.72-.58,1.3s.2,1.01.59,1.29M23.23,545.97c.39-.28.59-.72.59-1.29s-.2-1.02-.58-1.3c.23.31.35.74.35,1.28s-.12.99-.35,1.31"/><path class="cls-1" d="M21.95,532.78c1.2,0,1.87-.6,1.87-1.64s-.67-1.66-1.87-1.66-1.89.6-1.89,1.66.67,1.64,1.89,1.64"/><path class="cls-1" d="M28.72,546.55c1.04,0,1.64-.67,1.64-1.89s-.6-1.87-1.64-1.87-1.66.67-1.66,1.87.6,1.89,1.66,1.89"/><path class="cls-1" d="M35.49,546.55c1.04,0,1.64-.67,1.64-1.89s-.6-1.87-1.64-1.87-1.66.67-1.66,1.87.6,1.89,1.66,1.89"/><path class="cls-1" d="M15.18,546.55c1.04,0,1.64-.67,1.64-1.89s-.6-1.87-1.64-1.87-1.66.67-1.66,1.87.6,1.89,1.66,1.89"/><path class="cls-1" d="M26.6,551.23c.46,0,.94-.24,1.4-.71.84-.86.87-1.76.13-2.49-.35-.34-.73-.51-1.11-.51-.46,0-.93.23-1.38.7-.85.88-.88,1.78-.13,2.51.34.33.71.49,1.09.49"/><path class="cls-1" d="M16.87,541.82c.46,0,.94-.24,1.4-.71.84-.86.87-1.76.13-2.49-.35-.34-.73-.51-1.11-.51-.46,0-.93.23-1.38.7-.85.88-.88,1.78-.13,2.51.34.33.71.49,1.09.49"/><path class="cls-1" d="M26.87,541.65c.4,0,.79-.18,1.14-.54.72-.74.66-1.64-.22-2.49-.45-.44-.92-.66-1.36-.66-.4,0-.78.18-1.12.53-.73.76-.67,1.66.2,2.49.46.45.93.67,1.37.67"/><path class="cls-1" d="M17.46,551.38c.4,0,.79-.18,1.14-.54.72-.74.66-1.64-.22-2.49-.45-.44-.92-.66-1.36-.66-.4,0-.78.18-1.12.53-.73.76-.67,1.66.19,2.49.46.45.93.67,1.37.67"/><path class="cls-1" d="M21.95,546.55c.57,0,1-.2,1.28-.58.23-.32.35-.76.35-1.31s-.12-.97-.35-1.28c-.28-.38-.72-.59-1.29-.59s-1.03.21-1.31.59c-.23.31-.35.74-.35,1.28s.12.99.36,1.31c.28.38.72.59,1.3.59"/><path class="cls-1" d="M8.41,546.55c1.04,0,1.64-.67,1.64-1.89s-.6-1.87-1.64-1.87-1.66.67-1.66,1.87.6,1.89,1.66,1.89"/><path class="cls-1" d="M31.53,555.86c.46,0,.94-.24,1.4-.72.83-.87.86-1.77.11-2.49-.35-.33-.72-.5-1.11-.5-.46,0-.93.24-1.38.71-.84.88-.87,1.78-.11,2.51.34.32.71.48,1.09.48"/><path class="cls-1" d="M11.94,537.18c.46,0,.94-.24,1.4-.72.83-.87.86-1.77.11-2.49-.35-.33-.72-.5-1.11-.5-.46,0-.93.24-1.38.71-.84.88-.87,1.78-.11,2.51.34.32.71.48,1.09.48"/><path class="cls-1" d="M31.51,536.71c.41,0,.79-.18,1.14-.55.72-.75.64-1.65-.24-2.49-.45-.43-.92-.65-1.36-.65-.4,0-.79.18-1.13.54-.73.76-.66,1.66.21,2.49.46.44.92.66,1.37.66"/><path class="cls-1" d="M12.83,556.31c.41,0,.79-.18,1.14-.55.71-.75.64-1.65-.24-2.49-.45-.43-.92-.65-1.36-.65-.4,0-.79.18-1.13.54-.73.76-.66,1.66.21,2.49.46.44.93.66,1.37.66"/><path class="cls-1" d="M21.95,566.64c1.2,0,1.87-.6,1.87-1.64s-.67-1.66-1.87-1.66-1.89.6-1.89,1.66.67,1.64,1.89,1.64"/><path class="cls-1" d="M21.95,525.94c1.2,0,1.87-.6,1.87-1.64s-.67-1.66-1.87-1.66-1.89.6-1.89,1.66.67,1.64,1.89,1.64"/><path class="cls-1" d="M1.66,546.55c1.04,0,1.64-.67,1.64-1.89s-.6-1.87-1.64-1.87-1.66.67-1.66,1.87.6,1.89,1.66,1.89"/><path class="cls-1" d="M21.95,593.78c1.2,0,1.87-.6,1.87-1.64s-.67-1.66-1.87-1.66-1.89.6-1.89,1.66.67,1.64,1.89,1.64"/><path class="cls-1" d="M21.95,600.54c1.2,0,1.87-.6,1.87-1.64s-.67-1.66-1.87-1.66-1.89.6-1.89,1.66.67,1.64,1.89,1.64"/><path class="cls-1" d="M21.95,580.24c1.2,0,1.87-.6,1.87-1.64s-.67-1.66-1.87-1.66-1.89.6-1.89,1.66.67,1.64,1.89,1.64"/><path class="cls-1" d="M20.65,586.66c-.23-.32-.36-.76-.36-1.31s.12-.97.35-1.28c-.38.28-.58.72-.58,1.3s.2,1.01.59,1.29M23.23,586.66c.39-.28.59-.72.59-1.29s-.2-1.02-.58-1.3c.23.31.35.74.35,1.28s-.12.99-.35,1.31"/><path class="cls-1" d="M21.95,573.47c1.2,0,1.87-.6,1.87-1.64s-.67-1.66-1.87-1.66-1.89.6-1.89,1.66.67,1.64,1.89,1.64"/><path class="cls-1" d="M28.72,587.24c1.04,0,1.64-.67,1.64-1.89s-.6-1.87-1.64-1.87-1.66.67-1.66,1.87.6,1.89,1.66,1.89"/><path class="cls-1" d="M35.49,587.24c1.04,0,1.64-.67,1.64-1.89s-.6-1.87-1.64-1.87-1.66.67-1.66,1.87.6,1.89,1.66,1.89"/><path class="cls-1" d="M15.18,587.24c1.04,0,1.64-.67,1.64-1.89s-.6-1.87-1.64-1.87-1.66.67-1.66,1.87.6,1.89,1.66,1.89"/><path class="cls-1" d="M26.6,591.92c.46,0,.94-.24,1.4-.71.84-.86.87-1.76.13-2.49-.35-.34-.73-.51-1.11-.51-.46,0-.93.23-1.38.7-.85.88-.88,1.78-.13,2.51.34.33.71.49,1.09.49"/><path class="cls-1" d="M16.87,582.51c.46,0,.94-.24,1.4-.71.84-.86.87-1.76.13-2.49-.35-.34-.73-.51-1.11-.51-.46,0-.93.23-1.38.7-.85.88-.88,1.78-.13,2.51.34.33.71.49,1.09.49"/><path class="cls-1" d="M26.87,582.34c.4,0,.79-.18,1.14-.54.72-.74.66-1.64-.22-2.49-.45-.44-.92-.66-1.36-.66-.4,0-.78.18-1.12.53-.73.76-.67,1.66.2,2.49.46.45.93.67,1.37.67"/><path class="cls-1" d="M17.46,592.07c.4,0,.79-.18,1.14-.54.72-.74.66-1.64-.22-2.49-.45-.44-.92-.66-1.36-.66-.4,0-.78.18-1.12.53-.73.76-.67,1.66.19,2.49.46.45.93.67,1.37.67"/><path class="cls-1" d="M21.95,587.24c.57,0,1-.2,1.28-.58.23-.32.35-.76.35-1.31s-.12-.97-.35-1.28c-.28-.38-.72-.59-1.29-.59s-1.03.21-1.31.59c-.23.31-.35.74-.35,1.28s.12.99.36,1.31c.28.38.72.59,1.3.59"/><path class="cls-1" d="M8.41,587.24c1.04,0,1.64-.67,1.64-1.89s-.6-1.87-1.64-1.87-1.66.67-1.66,1.87.6,1.89,1.66,1.89"/><path class="cls-1" d="M31.53,596.56c.46,0,.94-.24,1.4-.72.83-.87.86-1.77.11-2.49-.35-.33-.72-.5-1.11-.5-.46,0-.93.24-1.38.71-.84.88-.87,1.78-.11,2.51.34.32.71.48,1.09.48"/><path class="cls-1" d="M11.94,577.87c.46,0,.94-.24,1.4-.72.83-.87.86-1.77.11-2.49-.35-.33-.72-.5-1.11-.5-.46,0-.93.24-1.38.71-.84.88-.87,1.78-.11,2.51.34.32.71.48,1.09.48"/><path class="cls-1" d="M31.51,577.41c.41,0,.79-.18,1.14-.55.72-.75.64-1.65-.24-2.49-.45-.43-.92-.65-1.36-.65-.4,0-.79.18-1.13.54-.73.76-.66,1.66.21,2.49.46.44.92.66,1.37.66"/><path class="cls-1" d="M12.83,597c.41,0,.79-.18,1.14-.55.71-.75.64-1.65-.24-2.49-.45-.43-.92-.65-1.36-.65-.4,0-.79.18-1.13.54-.73.76-.66,1.66.21,2.49.46.44.93.66,1.37.66"/><path class="cls-1" d="M1.66,587.24c1.04,0,1.64-.67,1.64-1.89s-.6-1.87-1.64-1.87-1.66.67-1.66,1.87.6,1.89,1.66,1.89"/><path class="cls-1" d="M21.95,471.73c1.2,0,1.87-.6,1.87-1.64s-.67-1.66-1.87-1.66-1.89.6-1.89,1.66.67,1.64,1.89,1.64"/><path class="cls-1" d="M21.95,478.49c1.2,0,1.87-.6,1.87-1.64s-.67-1.66-1.87-1.66-1.89.6-1.89,1.66.67,1.64,1.89,1.64"/><path class="cls-1" d="M21.95,458.19c1.2,0,1.87-.6,1.87-1.64s-.67-1.66-1.87-1.66-1.89.6-1.89,1.66.67,1.64,1.89,1.64"/><path class="cls-1" d="M20.65,464.61c-.23-.32-.36-.76-.36-1.31s.12-.97.35-1.28c-.38.28-.58.72-.58,1.3s.2,1.01.59,1.29M23.23,464.61c.39-.28.59-.72.59-1.29s-.2-1.02-.58-1.3c.23.31.35.74.35,1.28s-.12.99-.35,1.31"/><path class="cls-1" d="M21.95,451.42c1.2,0,1.87-.6,1.87-1.64s-.67-1.66-1.87-1.66-1.89.6-1.89,1.66.67,1.64,1.89,1.64"/><path class="cls-1" d="M28.72,465.19c1.04,0,1.64-.67,1.64-1.89s-.6-1.87-1.64-1.87-1.66.67-1.66,1.87.6,1.89,1.66,1.89"/><path class="cls-1" d="M35.49,465.19c1.04,0,1.64-.67,1.64-1.89s-.6-1.87-1.64-1.87-1.66.67-1.66,1.87.6,1.89,1.66,1.89"/><path class="cls-1" d="M15.18,465.19c1.04,0,1.64-.67,1.64-1.89s-.6-1.87-1.64-1.87-1.66.67-1.66,1.87.6,1.89,1.66,1.89"/><path class="cls-1" d="M26.6,469.87c.46,0,.94-.24,1.4-.71.84-.86.87-1.76.13-2.49-.35-.34-.73-.51-1.11-.51-.46,0-.93.23-1.38.7-.85.88-.88,1.78-.13,2.51.34.33.71.49,1.09.49"/><path class="cls-1" d="M16.87,460.46c.46,0,.94-.24,1.4-.71.84-.86.87-1.76.13-2.49-.35-.34-.73-.51-1.11-.51-.46,0-.93.23-1.38.7-.85.88-.88,1.78-.13,2.51.34.33.71.49,1.09.49"/><path class="cls-1" d="M26.87,460.29c.4,0,.79-.18,1.14-.54.72-.74.66-1.64-.22-2.49-.45-.44-.92-.66-1.36-.66-.4,0-.78.18-1.12.53-.73.76-.67,1.66.2,2.49.46.45.93.67,1.37.67"/><path class="cls-1" d="M17.46,470.02c.4,0,.79-.18,1.14-.54.72-.74.66-1.64-.22-2.49-.45-.44-.92-.66-1.36-.66-.4,0-.78.18-1.12.53-.73.76-.67,1.66.19,2.49.46.45.93.67,1.37.67"/><path class="cls-1" d="M21.95,465.19c.57,0,1-.2,1.28-.58.23-.32.35-.76.35-1.31s-.12-.97-.35-1.28c-.28-.38-.72-.59-1.29-.59s-1.03.21-1.31.59c-.23.31-.35.74-.35,1.28s.12.99.36,1.31c.28.38.72.59,1.3.59"/><path class="cls-1" d="M8.41,465.19c1.04,0,1.64-.67,1.64-1.89s-.6-1.87-1.64-1.87-1.66.67-1.66,1.87.6,1.89,1.66,1.89"/><path class="cls-1" d="M31.53,474.51c.46,0,.94-.24,1.4-.72.83-.87.86-1.77.11-2.49-.35-.33-.72-.5-1.11-.5-.46,0-.93.24-1.38.71-.84.88-.87,1.78-.11,2.51.34.32.71.48,1.09.48"/><path class="cls-1" d="M11.94,455.83c.46,0,.94-.24,1.4-.72.83-.87.86-1.77.11-2.49-.35-.33-.72-.5-1.11-.5-.46,0-.93.24-1.38.71-.84.88-.87,1.78-.11,2.51.34.32.71.48,1.09.48"/><path class="cls-1" d="M31.51,455.36c.41,0,.79-.18,1.14-.55.72-.75.64-1.65-.24-2.49-.45-.43-.92-.65-1.36-.65-.4,0-.79.18-1.13.54-.73.76-.66,1.66.21,2.49.46.44.92.66,1.37.66"/><path class="cls-1" d="M12.83,474.95c.41,0,.79-.18,1.14-.55.71-.75.64-1.65-.24-2.49-.45-.43-.92-.65-1.36-.65-.4,0-.79.18-1.13.54-.73.76-.66,1.66.21,2.49.46.44.93.66,1.37.66"/><path class="cls-1" d="M21.95,485.28c1.2,0,1.87-.6,1.87-1.64s-.67-1.66-1.87-1.66-1.89.6-1.89,1.66.67,1.64,1.89,1.64"/><path class="cls-1" d="M21.95,444.58c1.2,0,1.87-.6,1.87-1.64s-.67-1.66-1.87-1.66-1.89.6-1.89,1.66.67,1.64,1.89,1.64"/><path class="cls-1" d="M1.66,465.19c1.04,0,1.64-.67,1.64-1.89s-.6-1.87-1.64-1.87-1.66.67-1.66,1.87.6,1.89,1.66,1.89"/><path class="cls-1" d="M21.95,512.42c1.2,0,1.87-.6,1.87-1.64s-.67-1.66-1.87-1.66-1.89.6-1.89,1.66.67,1.64,1.89,1.64"/><path class="cls-1" d="M21.95,519.19c1.2,0,1.87-.6,1.87-1.64s-.67-1.66-1.87-1.66-1.89.6-1.89,1.66.67,1.64,1.89,1.64"/><path class="cls-1" d="M21.95,498.88c1.2,0,1.87-.6,1.87-1.64s-.67-1.66-1.87-1.66-1.89.6-1.89,1.66.67,1.64,1.89,1.64"/><path class="cls-1" d="M20.65,505.3c-.23-.32-.36-.76-.36-1.31s.12-.97.35-1.28c-.38.28-.58.72-.58,1.3s.2,1.01.59,1.29M23.23,505.3c.39-.28.59-.72.59-1.29s-.2-1.02-.58-1.3c.23.31.35.74.35,1.28s-.12.99-.35,1.31"/><path class="cls-1" d="M21.95,492.11c1.2,0,1.87-.6,1.87-1.64s-.67-1.66-1.87-1.66-1.89.6-1.89,1.66.67,1.64,1.89,1.64"/><path class="cls-1" d="M28.72,505.89c1.04,0,1.64-.67,1.64-1.89s-.6-1.87-1.64-1.87-1.66.67-1.66,1.87.6,1.89,1.66,1.89"/><path class="cls-1" d="M35.49,505.89c1.04,0,1.64-.67,1.64-1.89s-.6-1.87-1.64-1.87-1.66.67-1.66,1.87.6,1.89,1.66,1.89"/><path class="cls-1" d="M15.18,505.89c1.04,0,1.64-.67,1.64-1.89s-.6-1.87-1.64-1.87-1.66.67-1.66,1.87.6,1.89,1.66,1.89"/><path class="cls-1" d="M26.6,510.56c.46,0,.94-.24,1.4-.71.84-.86.87-1.76.13-2.49-.35-.34-.73-.51-1.11-.51-.46,0-.93.23-1.38.7-.85.88-.88,1.78-.13,2.51.34.33.71.49,1.09.49"/><path class="cls-1" d="M16.87,501.15c.46,0,.94-.24,1.4-.71.84-.86.87-1.76.13-2.49-.35-.34-.73-.51-1.11-.51-.46,0-.93.23-1.38.7-.85.88-.88,1.78-.13,2.51.34.33.71.49,1.09.49"/><path class="cls-1" d="M26.87,500.98c.4,0,.79-.18,1.14-.54.72-.74.66-1.64-.22-2.49-.45-.44-.92-.66-1.36-.66-.4,0-.78.18-1.12.53-.73.76-.67,1.66.2,2.49.46.45.93.67,1.37.67"/><path class="cls-1" d="M17.46,510.71c.4,0,.79-.18,1.14-.54.72-.74.66-1.64-.22-2.49-.45-.44-.92-.66-1.36-.66-.4,0-.78.18-1.12.53-.73.76-.67,1.66.19,2.49.46.45.93.67,1.37.67"/><path class="cls-1" d="M21.95,505.89c.57,0,1-.2,1.28-.58.23-.32.35-.76.35-1.31s-.12-.97-.35-1.28c-.28-.38-.72-.59-1.29-.59s-1.03.21-1.31.59c-.23.31-.35.74-.35,1.28s.12.99.36,1.31c.28.38.72.59,1.3.59"/><path class="cls-1" d="M8.41,505.89c1.04,0,1.64-.67,1.64-1.89s-.6-1.87-1.64-1.87-1.66.67-1.66,1.87.6,1.89,1.66,1.89"/><path class="cls-1" d="M31.53,515.2c.46,0,.94-.24,1.4-.72.83-.87.86-1.77.11-2.49-.35-.33-.72-.5-1.11-.5-.46,0-.93.24-1.38.71-.84.88-.87,1.78-.11,2.51.34.32.71.48,1.09.48"/><path class="cls-1" d="M11.94,496.52c.46,0,.94-.24,1.4-.72.83-.87.86-1.77.11-2.49-.35-.33-.72-.5-1.11-.5-.46,0-.93.24-1.38.71-.84.88-.87,1.78-.11,2.51.34.32.71.48,1.09.48"/><path class="cls-1" d="M31.51,496.05c.41,0,.79-.18,1.14-.55.72-.75.64-1.65-.24-2.49-.45-.43-.92-.65-1.36-.65-.4,0-.79.18-1.13.54-.73.76-.66,1.66.21,2.49.46.44.92.66,1.37.66"/><path class="cls-1" d="M12.83,515.64c.41,0,.79-.18,1.14-.55.71-.75.64-1.65-.24-2.49-.45-.43-.92-.65-1.36-.65-.4,0-.79.18-1.13.54-.73.76-.66,1.66.21,2.49.46.44.93.66,1.37.66"/><path class="cls-1" d="M1.66,505.89c1.04,0,1.64-.67,1.64-1.89s-.6-1.87-1.64-1.87-1.66.67-1.66,1.87.6,1.89,1.66,1.89"/><path class="cls-1" d="M21.95,390.34c1.2,0,1.87-.6,1.87-1.64s-.67-1.66-1.87-1.66-1.89.6-1.89,1.66.67,1.64,1.89,1.64"/><path class="cls-1" d="M21.95,397.1c1.2,0,1.87-.6,1.87-1.64s-.67-1.66-1.87-1.66-1.89.6-1.89,1.66.67,1.64,1.89,1.64"/><path class="cls-1" d="M21.95,376.8c1.2,0,1.87-.6,1.87-1.64s-.67-1.66-1.87-1.66-1.89.6-1.89,1.66.67,1.64,1.89,1.64"/><path class="cls-1" d="M20.65,383.22c-.23-.32-.36-.76-.36-1.31s.12-.97.35-1.28c-.38.28-.58.72-.58,1.3s.2,1.01.59,1.29M23.23,383.22c.39-.28.59-.72.59-1.29s-.2-1.02-.58-1.3c.23.31.35.74.35,1.28s-.12.99-.35,1.31"/><path class="cls-1" d="M21.95,370.03c1.2,0,1.87-.6,1.87-1.64s-.67-1.66-1.87-1.66-1.89.6-1.89,1.66.67,1.64,1.89,1.64"/><path class="cls-1" d="M28.72,383.8c1.04,0,1.64-.67,1.64-1.89s-.6-1.87-1.64-1.87-1.66.67-1.66,1.87.6,1.89,1.66,1.89"/><path class="cls-1" d="M35.49,383.8c1.04,0,1.64-.67,1.64-1.89s-.6-1.87-1.64-1.87-1.66.67-1.66,1.87.6,1.89,1.66,1.89"/><path class="cls-1" d="M15.18,383.8c1.04,0,1.64-.67,1.64-1.89s-.6-1.87-1.64-1.87-1.66.67-1.66,1.87.6,1.89,1.66,1.89"/><path class="cls-1" d="M26.6,388.48c.46,0,.94-.24,1.4-.71.84-.86.87-1.76.13-2.49-.35-.34-.73-.51-1.11-.51-.46,0-.93.23-1.38.7-.85.88-.88,1.78-.13,2.51.34.33.71.49,1.09.49"/><path class="cls-1" d="M16.87,379.07c.46,0,.94-.24,1.4-.71.84-.86.87-1.76.13-2.49-.35-.34-.73-.51-1.11-.51-.46,0-.93.23-1.38.7-.85.88-.88,1.78-.13,2.51.34.33.71.49,1.09.49"/><path class="cls-1" d="M26.87,378.9c.4,0,.79-.18,1.14-.54.72-.74.66-1.64-.22-2.49-.45-.44-.92-.66-1.36-.66-.4,0-.78.18-1.12.53-.73.76-.67,1.66.2,2.49.46.45.93.67,1.37.67"/><path class="cls-1" d="M17.46,388.63c.4,0,.79-.18,1.14-.54.72-.74.66-1.64-.22-2.49-.45-.44-.92-.66-1.36-.66-.4,0-.78.18-1.12.53-.73.76-.67,1.66.19,2.49.46.45.93.67,1.37.67"/><path class="cls-1" d="M21.95,383.8c.57,0,1-.2,1.28-.58.23-.32.35-.76.35-1.31s-.12-.97-.35-1.28c-.28-.38-.72-.59-1.29-.59s-1.03.21-1.31.59c-.23.31-.35.74-.35,1.28s.12.99.36,1.31c.28.38.72.59,1.3.59"/><path class="cls-1" d="M8.41,383.8c1.04,0,1.64-.67,1.64-1.89s-.6-1.87-1.64-1.87-1.66.67-1.66,1.87.6,1.89,1.66,1.89"/><path class="cls-1" d="M31.53,393.12c.46,0,.94-.24,1.4-.72.83-.87.86-1.77.11-2.49-.35-.33-.72-.5-1.11-.5-.46,0-.93.24-1.38.71-.84.88-.87,1.78-.11,2.51.34.32.71.48,1.09.48"/><path class="cls-1" d="M11.94,374.44c.46,0,.94-.24,1.4-.72.83-.87.86-1.77.11-2.49-.35-.33-.72-.5-1.11-.5-.46,0-.93.24-1.38.71-.84.88-.87,1.78-.11,2.51.34.32.71.48,1.09.48"/><path class="cls-1" d="M31.51,373.97c.41,0,.79-.18,1.14-.55.72-.75.64-1.65-.24-2.49-.45-.43-.92-.65-1.36-.65-.4,0-.79.18-1.13.54-.73.76-.66,1.66.21,2.49.46.44.92.66,1.37.66"/><path class="cls-1" d="M12.83,393.56c.41,0,.79-.18,1.14-.55.71-.75.64-1.65-.24-2.49-.45-.43-.92-.65-1.36-.65-.4,0-.79.18-1.13.54-.73.76-.66,1.66.21,2.49.46.44.93.66,1.37.66"/><path class="cls-1" d="M21.95,403.89c1.2,0,1.87-.6,1.87-1.64s-.67-1.66-1.87-1.66-1.89.6-1.89,1.66.67,1.64,1.89,1.64"/><path class="cls-1" d="M21.95,363.19c1.2,0,1.87-.6,1.87-1.64s-.67-1.66-1.87-1.66-1.89.6-1.89,1.66.67,1.64,1.89,1.64"/><path class="cls-1" d="M1.66,383.8c1.04,0,1.64-.67,1.64-1.89s-.6-1.87-1.64-1.87-1.66.67-1.66,1.87.6,1.89,1.66,1.89"/><path class="cls-1" d="M21.95,431.03c1.2,0,1.87-.6,1.87-1.64s-.67-1.66-1.87-1.66-1.89.6-1.89,1.66.67,1.64,1.89,1.64"/><path class="cls-1" d="M21.95,437.8c1.2,0,1.87-.6,1.87-1.64s-.67-1.66-1.87-1.66-1.89.6-1.89,1.66.67,1.64,1.89,1.64"/><path class="cls-1" d="M21.95,417.49c1.2,0,1.87-.6,1.87-1.64s-.67-1.66-1.87-1.66-1.89.6-1.89,1.66.67,1.64,1.89,1.64"/><path class="cls-1" d="M20.65,423.91c-.23-.32-.36-.76-.36-1.31s.12-.97.35-1.28c-.38.28-.58.72-.58,1.3s.2,1.01.59,1.29M23.23,423.91c.39-.28.59-.72.59-1.29s-.2-1.02-.58-1.3c.23.31.35.74.35,1.28s-.12.99-.35,1.31"/><path class="cls-1" d="M21.95,410.72c1.2,0,1.87-.6,1.87-1.64s-.67-1.66-1.87-1.66-1.89.6-1.89,1.66.67,1.64,1.89,1.64"/><path class="cls-1" d="M28.72,424.5c1.04,0,1.64-.67,1.64-1.89s-.6-1.87-1.64-1.87-1.66.67-1.66,1.87.6,1.89,1.66,1.89"/><path class="cls-1" d="M35.49,424.5c1.04,0,1.64-.67,1.64-1.89s-.6-1.87-1.64-1.87-1.66.67-1.66,1.87.6,1.89,1.66,1.89"/><path class="cls-1" d="M15.18,424.5c1.04,0,1.64-.67,1.64-1.89s-.6-1.87-1.64-1.87-1.66.67-1.66,1.87.6,1.89,1.66,1.89"/><path class="cls-1" d="M26.6,429.17c.46,0,.94-.24,1.4-.71.84-.86.87-1.76.13-2.49-.35-.34-.73-.51-1.11-.51-.46,0-.93.23-1.38.7-.85.88-.88,1.78-.13,2.51.34.33.71.49,1.09.49"/><path class="cls-1" d="M16.87,419.76c.46,0,.94-.24,1.4-.71.84-.86.87-1.76.13-2.49-.35-.34-.73-.51-1.11-.51-.46,0-.93.23-1.38.7-.85.88-.88,1.78-.13,2.51.34.33.71.49,1.09.49"/><path class="cls-1" d="M26.87,419.59c.4,0,.79-.18,1.14-.54.72-.74.66-1.64-.22-2.49-.45-.44-.92-.66-1.36-.66-.4,0-.78.18-1.12.53-.73.76-.67,1.66.2,2.49.46.45.93.67,1.37.67"/><path class="cls-1" d="M17.46,429.32c.4,0,.79-.18,1.14-.54.72-.74.66-1.64-.22-2.49-.45-.44-.92-.66-1.36-.66-.4,0-.78.18-1.12.53-.73.76-.67,1.66.19,2.49.46.45.93.67,1.37.67"/><path class="cls-1" d="M21.95,424.5c.57,0,1-.2,1.28-.58.23-.32.35-.76.35-1.31s-.12-.97-.35-1.28c-.28-.38-.72-.59-1.29-.59s-1.03.21-1.31.59c-.23.31-.35.74-.35,1.28s.12.99.36,1.31c.28.38.72.59,1.3.59"/><path class="cls-1" d="M8.41,424.5c1.04,0,1.64-.67,1.64-1.89s-.6-1.87-1.64-1.87-1.66.67-1.66,1.87.6,1.89,1.66,1.89"/><path class="cls-1" d="M31.53,433.81c.46,0,.94-.24,1.4-.72.83-.87.86-1.77.11-2.49-.35-.33-.72-.5-1.11-.5-.46,0-.93.24-1.38.71-.84.88-.87,1.78-.11,2.51.34.32.71.48,1.09.48"/><path class="cls-1" d="M11.94,415.13c.46,0,.94-.24,1.4-.72.83-.87.86-1.77.11-2.49-.35-.33-.72-.5-1.11-.5-.46,0-.93.24-1.38.71-.84.88-.87,1.78-.11,2.51.34.32.71.48,1.09.48"/><path class="cls-1" d="M31.51,414.66c.41,0,.79-.18,1.14-.55.72-.75.64-1.65-.24-2.49-.45-.43-.92-.65-1.36-.65-.4,0-.79.18-1.13.54-.73.76-.66,1.66.21,2.49.46.44.92.66,1.37.66"/><path class="cls-1" d="M12.83,434.25c.41,0,.79-.18,1.14-.55.71-.75.64-1.65-.24-2.49-.45-.43-.92-.65-1.36-.65-.4,0-.79.18-1.13.54-.73.76-.66,1.66.21,2.49.46.44.93.66,1.37.66"/><path class="cls-1" d="M1.66,424.5c1.04,0,1.64-.67,1.64-1.89s-.6-1.87-1.64-1.87-1.66.67-1.66,1.87.6,1.89,1.66,1.89"/><path class="cls-1" d="M21.95,308.93c1.2,0,1.87-.6,1.87-1.64s-.67-1.66-1.87-1.66-1.89.6-1.89,1.66.67,1.64,1.89,1.64"/><path class="cls-1" d="M21.95,315.7c1.2,0,1.87-.6,1.87-1.64s-.67-1.66-1.87-1.66-1.89.6-1.89,1.66.67,1.64,1.89,1.64"/><path class="cls-1" d="M21.95,295.4c1.2,0,1.87-.6,1.87-1.64s-.67-1.66-1.87-1.66-1.89.6-1.89,1.66.67,1.64,1.89,1.64"/><path class="cls-1" d="M20.65,301.81c-.23-.32-.36-.76-.36-1.31s.12-.97.35-1.28c-.38.28-.58.72-.58,1.3s.2,1.01.59,1.29M23.23,301.82c.39-.28.59-.72.59-1.29s-.2-1.02-.58-1.3c.23.31.35.74.35,1.28s-.12.99-.35,1.31"/><path class="cls-1" d="M21.95,288.63c1.2,0,1.87-.6,1.87-1.64s-.67-1.66-1.87-1.66-1.89.6-1.89,1.66.67,1.64,1.89,1.64"/><path class="cls-1" d="M28.72,302.4c1.04,0,1.64-.67,1.64-1.89s-.6-1.87-1.64-1.87-1.66.67-1.66,1.87.6,1.89,1.66,1.89"/><path class="cls-1" d="M35.49,302.4c1.04,0,1.64-.67,1.64-1.89s-.6-1.87-1.64-1.87-1.66.67-1.66,1.87.6,1.89,1.66,1.89"/><path class="cls-1" d="M15.18,302.4c1.04,0,1.64-.67,1.64-1.89s-.6-1.87-1.64-1.87-1.66.67-1.66,1.87.6,1.89,1.66,1.89"/><path class="cls-1" d="M26.6,307.08c.46,0,.94-.24,1.4-.71.84-.86.87-1.76.13-2.49-.35-.34-.73-.51-1.11-.51-.46,0-.93.23-1.38.7-.85.88-.88,1.78-.13,2.51.34.33.71.49,1.09.49"/><path class="cls-1" d="M16.87,297.66c.46,0,.94-.24,1.4-.71.84-.86.87-1.76.13-2.49-.35-.34-.73-.51-1.11-.51-.46,0-.93.23-1.38.7-.85.88-.88,1.78-.13,2.51.34.33.71.49,1.09.49"/><path class="cls-1" d="M26.87,297.5c.4,0,.79-.18,1.14-.54.72-.74.66-1.64-.22-2.49-.45-.44-.92-.66-1.36-.66-.4,0-.78.18-1.12.53-.73.76-.67,1.66.2,2.49.46.45.93.67,1.37.67"/><path class="cls-1" d="M17.46,307.22c.4,0,.79-.18,1.14-.54.72-.74.66-1.64-.22-2.49-.45-.44-.92-.66-1.36-.66-.4,0-.78.18-1.12.53-.73.76-.67,1.66.19,2.49.46.45.93.67,1.37.67"/><path class="cls-1" d="M21.95,302.4c.57,0,1-.2,1.28-.58.23-.32.35-.76.35-1.31s-.12-.97-.35-1.28c-.28-.38-.72-.59-1.29-.59s-1.03.21-1.31.59c-.23.31-.35.74-.35,1.28s.12.99.36,1.31c.28.38.72.59,1.3.59"/><path class="cls-1" d="M8.41,302.4c1.04,0,1.64-.67,1.64-1.89s-.6-1.87-1.64-1.87-1.66.67-1.66,1.87.6,1.89,1.66,1.89"/><path class="cls-1" d="M31.53,311.71c.46,0,.94-.24,1.4-.72.83-.87.86-1.77.11-2.49-.35-.33-.72-.5-1.11-.5-.46,0-.93.24-1.38.71-.84.88-.87,1.78-.11,2.51.34.32.71.48,1.09.48"/><path class="cls-1" d="M11.94,293.03c.46,0,.94-.24,1.4-.72.83-.87.86-1.77.11-2.49-.35-.33-.72-.5-1.11-.5-.46,0-.93.24-1.38.71-.84.88-.87,1.78-.11,2.51.34.32.71.48,1.09.48"/><path class="cls-1" d="M31.51,292.56c.41,0,.79-.18,1.14-.55.72-.75.64-1.65-.24-2.49-.45-.43-.92-.65-1.36-.65-.4,0-.79.18-1.13.54-.73.76-.66,1.66.21,2.49.46.44.92.66,1.37.66"/><path class="cls-1" d="M12.83,312.15c.41,0,.79-.18,1.14-.55.71-.75.64-1.65-.24-2.49-.45-.43-.92-.65-1.36-.65-.4,0-.79.18-1.13.54-.73.76-.66,1.66.21,2.49.46.44.93.66,1.37.66"/><path class="cls-1" d="M21.95,322.49c1.2,0,1.87-.6,1.87-1.64s-.67-1.66-1.87-1.66-1.89.6-1.89,1.66.67,1.64,1.89,1.64"/><path class="cls-1" d="M21.95,281.79c1.2,0,1.87-.6,1.87-1.64s-.67-1.66-1.87-1.66-1.89.6-1.89,1.66.67,1.64,1.89,1.64"/><path class="cls-1" d="M1.66,302.4c1.04,0,1.64-.67,1.64-1.89s-.6-1.87-1.64-1.87-1.66.67-1.66,1.87.6,1.89,1.66,1.89"/><path class="cls-1" d="M21.95,349.62c1.2,0,1.87-.6,1.87-1.64s-.67-1.66-1.87-1.66-1.89.6-1.89,1.66.67,1.64,1.89,1.64"/><path class="cls-1" d="M21.95,356.39c1.2,0,1.87-.6,1.87-1.64s-.67-1.66-1.87-1.66-1.89.6-1.89,1.66.67,1.64,1.89,1.64"/><path class="cls-1" d="M21.95,336.09c1.2,0,1.87-.6,1.87-1.64s-.67-1.66-1.87-1.66-1.89.6-1.89,1.66.67,1.64,1.89,1.64"/><path class="cls-1" d="M20.65,342.51c-.23-.32-.36-.76-.36-1.31s.12-.97.35-1.28c-.38.28-.58.72-.58,1.3s.2,1.01.59,1.29M23.23,342.51c.39-.28.59-.72.59-1.29s-.2-1.02-.58-1.3c.23.31.35.74.35,1.28s-.12.99-.35,1.31"/><path class="cls-1" d="M21.95,329.32c1.2,0,1.87-.6,1.87-1.64s-.67-1.66-1.87-1.66-1.89.6-1.89,1.66.67,1.64,1.89,1.64"/><path class="cls-1" d="M28.72,343.09c1.04,0,1.64-.67,1.64-1.89s-.6-1.87-1.64-1.87-1.66.67-1.66,1.87.6,1.89,1.66,1.89"/><path class="cls-1" d="M35.49,343.09c1.04,0,1.64-.67,1.64-1.89s-.6-1.87-1.64-1.87-1.66.67-1.66,1.87.6,1.89,1.66,1.89"/><path class="cls-1" d="M15.18,343.09c1.04,0,1.64-.67,1.64-1.89s-.6-1.87-1.64-1.87-1.66.67-1.66,1.87.6,1.89,1.66,1.89"/><path class="cls-1" d="M26.6,347.77c.46,0,.94-.24,1.4-.71.84-.86.87-1.76.13-2.49-.35-.34-.73-.51-1.11-.51-.46,0-.93.23-1.38.7-.85.88-.88,1.78-.13,2.51.34.33.71.49,1.09.49"/><path class="cls-1" d="M16.87,338.35c.46,0,.94-.24,1.4-.71.84-.86.87-1.76.13-2.49-.35-.34-.73-.51-1.11-.51-.46,0-.93.23-1.38.7-.85.88-.88,1.78-.13,2.51.34.33.71.49,1.09.49"/><path class="cls-1" d="M26.87,338.19c.4,0,.79-.18,1.14-.54.72-.74.66-1.64-.22-2.49-.45-.44-.92-.66-1.36-.66-.4,0-.78.18-1.12.53-.73.76-.67,1.66.2,2.49.46.45.93.67,1.37.67"/><path class="cls-1" d="M17.46,347.91c.4,0,.79-.18,1.14-.54.72-.74.66-1.64-.22-2.49-.45-.44-.92-.66-1.36-.66-.4,0-.78.18-1.12.53-.73.76-.67,1.66.19,2.49.46.45.93.67,1.37.67"/><path class="cls-1" d="M21.95,343.09c.57,0,1-.2,1.28-.58.23-.32.35-.76.35-1.31s-.12-.97-.35-1.28c-.28-.38-.72-.59-1.29-.59s-1.03.21-1.31.59c-.23.31-.35.74-.35,1.28s.12.99.36,1.31c.28.38.72.59,1.3.59"/><path class="cls-1" d="M8.41,343.09c1.04,0,1.64-.67,1.64-1.89s-.6-1.87-1.64-1.87-1.66.67-1.66,1.87.6,1.89,1.66,1.89"/><path class="cls-1" d="M31.53,352.4c.46,0,.94-.24,1.4-.72.83-.87.86-1.77.11-2.49-.35-.33-.72-.5-1.11-.5-.46,0-.93.24-1.38.71-.84.88-.87,1.78-.11,2.51.34.32.71.48,1.09.48"/><path class="cls-1" d="M11.94,333.72c.46,0,.94-.24,1.4-.72.83-.87.86-1.77.11-2.49-.35-.33-.72-.5-1.11-.5-.46,0-.93.24-1.38.71-.84.88-.87,1.78-.11,2.51.34.32.71.48,1.09.48"/><path class="cls-1" d="M31.51,333.25c.41,0,.79-.18,1.14-.55.72-.75.64-1.65-.24-2.49-.45-.43-.92-.65-1.36-.65-.4,0-.79.18-1.13.54-.73.76-.66,1.66.21,2.49.46.44.92.66,1.37.66"/><path class="cls-1" d="M12.83,352.85c.41,0,.79-.18,1.14-.55.71-.75.64-1.65-.24-2.49-.45-.43-.92-.65-1.36-.65-.4,0-.79.18-1.13.54-.73.76-.66,1.66.21,2.49.46.44.93.66,1.37.66"/><path class="cls-1" d="M1.66,343.09c1.04,0,1.64-.67,1.64-1.89s-.6-1.87-1.64-1.87-1.66.67-1.66,1.87.6,1.89,1.66,1.89"/><path class="cls-1" d="M21.95,227.54c1.2,0,1.87-.6,1.87-1.64s-.67-1.66-1.87-1.66-1.89.6-1.89,1.66.67,1.64,1.89,1.64"/><path class="cls-1" d="M21.95,234.31c1.2,0,1.87-.6,1.87-1.64s-.67-1.66-1.87-1.66-1.89.6-1.89,1.66.67,1.64,1.89,1.64"/><path class="cls-1" d="M21.95,214.01c1.2,0,1.87-.6,1.87-1.64s-.67-1.66-1.87-1.66-1.89.6-1.89,1.66.67,1.64,1.89,1.64"/><path class="cls-1" d="M20.65,220.42c-.23-.32-.36-.76-.36-1.31s.12-.97.35-1.28c-.38.28-.58.72-.58,1.3s.2,1.01.59,1.29M23.23,220.43c.39-.28.59-.72.59-1.29s-.2-1.02-.58-1.3c.23.31.35.74.35,1.28s-.12.99-.35,1.31"/><path class="cls-1" d="M21.95,207.24c1.2,0,1.87-.6,1.87-1.64s-.67-1.66-1.87-1.66-1.89.6-1.89,1.66.67,1.64,1.89,1.64"/><path class="cls-1" d="M28.72,221.01c1.04,0,1.64-.67,1.64-1.89s-.6-1.87-1.64-1.87-1.66.67-1.66,1.87.6,1.89,1.66,1.89"/><path class="cls-1" d="M35.49,221.01c1.04,0,1.64-.67,1.64-1.89s-.6-1.87-1.64-1.87-1.66.67-1.66,1.87.6,1.89,1.66,1.89"/><path class="cls-1" d="M15.18,221.01c1.04,0,1.64-.67,1.64-1.89s-.6-1.87-1.64-1.87-1.66.67-1.66,1.87.6,1.89,1.66,1.89"/><path class="cls-1" d="M26.6,225.69c.46,0,.94-.24,1.4-.71.84-.86.87-1.76.13-2.49-.35-.34-.73-.51-1.11-.51-.46,0-.93.23-1.38.7-.85.88-.88,1.78-.13,2.51.34.33.71.49,1.09.49"/><path class="cls-1" d="M16.87,216.27c.46,0,.94-.24,1.4-.71.84-.86.87-1.76.13-2.49-.35-.34-.73-.51-1.11-.51-.46,0-.93.23-1.38.7-.85.88-.88,1.78-.13,2.51.34.33.71.49,1.09.49"/><path class="cls-1" d="M26.87,216.11c.4,0,.79-.18,1.14-.54.72-.74.66-1.64-.22-2.49-.45-.44-.92-.66-1.36-.66-.4,0-.78.18-1.12.53-.73.76-.67,1.66.2,2.49.46.45.93.67,1.37.67"/><path class="cls-1" d="M17.46,225.83c.4,0,.79-.18,1.14-.54.72-.74.66-1.64-.22-2.49-.45-.44-.92-.66-1.36-.66-.4,0-.78.18-1.12.53-.73.76-.67,1.66.19,2.49.46.45.93.67,1.37.67"/><path class="cls-1" d="M21.95,221.01c.57,0,1-.2,1.28-.58.23-.32.35-.76.35-1.31s-.12-.97-.35-1.28c-.28-.38-.72-.59-1.29-.59s-1.03.21-1.31.59c-.23.31-.35.74-.35,1.28s.12.99.36,1.31c.28.38.72.59,1.3.59"/><path class="cls-1" d="M8.41,221.01c1.04,0,1.64-.67,1.64-1.89s-.6-1.87-1.64-1.87-1.66.67-1.66,1.87.6,1.89,1.66,1.89"/><path class="cls-1" d="M31.53,230.32c.46,0,.94-.24,1.4-.72.83-.87.86-1.77.11-2.49-.35-.33-.72-.5-1.11-.5-.46,0-.93.24-1.38.71-.84.88-.87,1.78-.11,2.51.34.32.71.48,1.09.48"/><path class="cls-1" d="M11.94,211.64c.46,0,.94-.24,1.4-.72.83-.87.86-1.77.11-2.49-.35-.33-.72-.5-1.11-.5-.46,0-.93.24-1.38.71-.84.88-.87,1.78-.11,2.51.34.32.71.48,1.09.48"/><path class="cls-1" d="M31.51,211.17c.41,0,.79-.18,1.14-.55.72-.75.64-1.65-.24-2.49-.45-.43-.92-.65-1.36-.65-.4,0-.79.18-1.13.54-.73.76-.66,1.66.21,2.49.46.44.92.66,1.37.66"/><path class="cls-1" d="M12.83,230.76c.41,0,.79-.18,1.14-.55.71-.75.64-1.65-.24-2.49-.45-.43-.92-.65-1.36-.65-.4,0-.79.18-1.13.54-.73.76-.66,1.66.21,2.49.46.44.93.66,1.37.66"/><path class="cls-1" d="M21.95,241.1c1.2,0,1.87-.6,1.87-1.64s-.67-1.66-1.87-1.66-1.89.6-1.89,1.66.67,1.64,1.89,1.64"/><path class="cls-1" d="M21.95,200.4c1.2,0,1.87-.6,1.87-1.64s-.67-1.66-1.87-1.66-1.89.6-1.89,1.66.67,1.64,1.89,1.64"/><path class="cls-1" d="M1.66,221.01c1.04,0,1.64-.67,1.64-1.89s-.6-1.87-1.64-1.87-1.66.67-1.66,1.87.6,1.89,1.66,1.89"/><path class="cls-1" d="M21.95,268.23c1.2,0,1.87-.6,1.87-1.64s-.67-1.66-1.87-1.66-1.89.6-1.89,1.66.67,1.64,1.89,1.64"/><path class="cls-1" d="M21.95,275c1.2,0,1.87-.6,1.87-1.64s-.67-1.66-1.87-1.66-1.89.6-1.89,1.66.67,1.64,1.89,1.64"/><path class="cls-1" d="M21.95,254.7c1.2,0,1.87-.6,1.87-1.64s-.67-1.66-1.87-1.66-1.89.6-1.89,1.66.67,1.64,1.89,1.64"/><path class="cls-1" d="M20.65,261.12c-.23-.32-.36-.76-.36-1.31s.12-.97.35-1.28c-.38.28-.58.72-.58,1.3s.2,1.01.59,1.29M23.23,261.12c.39-.28.59-.72.59-1.29s-.2-1.02-.58-1.3c.23.31.35.74.35,1.28s-.12.99-.35,1.31"/><path class="cls-1" d="M21.95,247.93c1.2,0,1.87-.6,1.87-1.64s-.67-1.66-1.87-1.66-1.89.6-1.89,1.66.67,1.64,1.89,1.64"/><path class="cls-1" d="M28.72,261.7c1.04,0,1.64-.67,1.64-1.89s-.6-1.87-1.64-1.87-1.66.67-1.66,1.87.6,1.89,1.66,1.89"/><path class="cls-1" d="M35.49,261.7c1.04,0,1.64-.67,1.64-1.89s-.6-1.87-1.64-1.87-1.66.67-1.66,1.87.6,1.89,1.66,1.89"/><path class="cls-1" d="M15.18,261.7c1.04,0,1.64-.67,1.64-1.89s-.6-1.87-1.64-1.87-1.66.67-1.66,1.87.6,1.89,1.66,1.89"/><path class="cls-1" d="M26.6,266.38c.46,0,.94-.24,1.4-.71.84-.86.87-1.76.13-2.49-.35-.34-.73-.51-1.11-.51-.46,0-.93.23-1.38.7-.85.88-.88,1.78-.13,2.51.34.33.71.49,1.09.49"/><path class="cls-1" d="M16.87,256.96c.46,0,.94-.24,1.4-.71.84-.86.87-1.76.13-2.49-.35-.34-.73-.51-1.11-.51-.46,0-.93.23-1.38.7-.85.88-.88,1.78-.13,2.51.34.33.71.49,1.09.49"/><path class="cls-1" d="M26.87,256.8c.4,0,.79-.18,1.14-.54.72-.74.66-1.64-.22-2.49-.45-.44-.92-.66-1.36-.66-.4,0-.78.18-1.12.53-.73.76-.67,1.66.2,2.49.46.45.93.67,1.37.67"/><path class="cls-1" d="M17.46,266.52c.4,0,.79-.18,1.14-.54.72-.74.66-1.64-.22-2.49-.45-.44-.92-.66-1.36-.66-.4,0-.78.18-1.12.53-.73.76-.67,1.66.19,2.49.46.45.93.67,1.37.67"/><path class="cls-1" d="M21.95,261.7c.57,0,1-.2,1.28-.58.23-.32.35-.76.35-1.31s-.12-.97-.35-1.28c-.28-.38-.72-.59-1.29-.59s-1.03.21-1.31.59c-.23.31-.35.74-.35,1.28s.12.99.36,1.31c.28.38.72.59,1.3.59"/><path class="cls-1" d="M8.41,261.7c1.04,0,1.64-.67,1.64-1.89s-.6-1.87-1.64-1.87-1.66.67-1.66,1.87.6,1.89,1.66,1.89"/><path class="cls-1" d="M31.53,271.01c.46,0,.94-.24,1.4-.72.83-.87.86-1.77.11-2.49-.35-.33-.72-.5-1.11-.5-.46,0-.93.24-1.38.71-.84.88-.87,1.78-.11,2.51.34.32.71.48,1.09.48"/><path class="cls-1" d="M11.94,252.33c.46,0,.94-.24,1.4-.72.83-.87.86-1.77.11-2.49-.35-.33-.72-.5-1.11-.5-.46,0-.93.24-1.38.71-.84.88-.87,1.78-.11,2.51.34.32.71.48,1.09.48"/><path class="cls-1" d="M31.51,251.86c.41,0,.79-.18,1.14-.55.72-.75.64-1.65-.24-2.49-.45-.43-.92-.65-1.36-.65-.4,0-.79.18-1.13.54-.73.76-.66,1.66.21,2.49.46.44.92.66,1.37.66"/><path class="cls-1" d="M12.83,271.46c.41,0,.79-.18,1.14-.55.71-.75.64-1.65-.24-2.49-.45-.43-.92-.65-1.36-.65-.4,0-.79.18-1.13.54-.73.76-.66,1.66.21,2.49.46.44.93.66,1.37.66"/><path class="cls-1" d="M1.66,261.7c1.04,0,1.64-.67,1.64-1.89s-.6-1.87-1.64-1.87-1.66.67-1.66,1.87.6,1.89,1.66,1.89"/><path class="cls-1" d="M21.95,145.7c1.2,0,1.87-.6,1.87-1.64s-.67-1.66-1.87-1.66-1.89.6-1.89,1.66.67,1.64,1.89,1.64"/><path class="cls-1" d="M21.95,152.47c1.2,0,1.87-.6,1.87-1.64s-.67-1.66-1.87-1.66-1.89.6-1.89,1.66.67,1.64,1.89,1.64"/><path class="cls-1" d="M21.95,132.17c1.2,0,1.87-.6,1.87-1.64s-.67-1.66-1.87-1.66-1.89.6-1.89,1.66.67,1.64,1.89,1.64"/><path class="cls-1" d="M20.65,138.58c-.23-.32-.36-.76-.36-1.31s.12-.97.35-1.28c-.38.28-.58.72-.58,1.3s.2,1.01.59,1.29M23.23,138.59c.39-.28.59-.72.59-1.29s-.2-1.02-.58-1.3c.23.31.35.74.35,1.28s-.12.99-.35,1.31"/><path class="cls-1" d="M21.95,125.4c1.2,0,1.87-.6,1.87-1.64s-.67-1.66-1.87-1.66-1.89.6-1.89,1.66.67,1.64,1.89,1.64"/><path class="cls-1" d="M28.72,139.17c1.04,0,1.64-.67,1.64-1.89s-.6-1.87-1.64-1.87-1.66.67-1.66,1.87.6,1.89,1.66,1.89"/><path class="cls-1" d="M35.49,139.17c1.04,0,1.64-.67,1.64-1.89s-.6-1.87-1.64-1.87-1.66.67-1.66,1.87.6,1.89,1.66,1.89"/><path class="cls-1" d="M15.18,139.17c1.04,0,1.64-.67,1.64-1.89s-.6-1.87-1.64-1.87-1.66.67-1.66,1.87.6,1.89,1.66,1.89"/><path class="cls-1" d="M26.6,143.85c.46,0,.94-.24,1.4-.71.84-.86.87-1.76.13-2.49-.35-.34-.73-.51-1.11-.51-.46,0-.93.23-1.38.7-.85.88-.88,1.78-.13,2.51.34.33.71.49,1.09.49"/><path class="cls-1" d="M16.87,134.43c.46,0,.94-.24,1.4-.71.84-.86.87-1.76.13-2.49-.35-.34-.73-.51-1.11-.51-.46,0-.93.23-1.38.7-.85.88-.88,1.78-.13,2.51.34.33.71.49,1.09.49"/><path class="cls-1" d="M26.87,134.27c.4,0,.79-.18,1.14-.54.72-.74.66-1.64-.22-2.49-.45-.44-.92-.66-1.36-.66-.4,0-.78.18-1.12.53-.73.76-.67,1.66.2,2.49.46.45.93.67,1.37.67"/><path class="cls-1" d="M17.46,143.99c.4,0,.79-.18,1.14-.54.72-.74.66-1.64-.22-2.49-.45-.44-.92-.66-1.36-.66-.4,0-.78.18-1.12.53-.73.76-.67,1.66.19,2.49.46.45.93.67,1.37.67"/><path class="cls-1" d="M21.95,139.17c.57,0,1-.2,1.28-.58.23-.32.35-.76.35-1.31s-.12-.97-.35-1.28c-.28-.38-.72-.59-1.29-.59s-1.03.21-1.31.59c-.23.31-.35.74-.35,1.28s.12.99.36,1.31c.28.38.72.59,1.3.59"/><path class="cls-1" d="M8.41,139.17c1.04,0,1.64-.67,1.64-1.89s-.6-1.87-1.64-1.87-1.66.67-1.66,1.87.6,1.89,1.66,1.89"/><path class="cls-1" d="M31.53,148.48c.46,0,.94-.24,1.4-.72.83-.87.86-1.77.11-2.49-.35-.33-.72-.5-1.11-.5-.46,0-.93.24-1.38.71-.84.88-.87,1.78-.11,2.51.34.32.71.48,1.09.48"/><path class="cls-1" d="M11.94,129.8c.46,0,.94-.24,1.4-.72.83-.87.86-1.77.11-2.49-.35-.33-.72-.5-1.11-.5-.46,0-.93.24-1.38.71-.84.88-.87,1.78-.11,2.51.34.32.71.48,1.09.48"/><path class="cls-1" d="M31.51,129.33c.41,0,.79-.18,1.14-.55.72-.75.64-1.65-.24-2.49-.45-.43-.92-.65-1.36-.65-.4,0-.79.18-1.13.54-.73.76-.66,1.66.21,2.49.46.44.92.66,1.37.66"/><path class="cls-1" d="M12.83,148.92c.41,0,.79-.18,1.14-.55.71-.75.64-1.65-.24-2.49-.45-.43-.92-.65-1.36-.65-.4,0-.79.18-1.13.54-.73.76-.66,1.66.21,2.49.46.44.93.66,1.37.66"/><path class="cls-1" d="M21.95,159.26c1.2,0,1.87-.6,1.87-1.64s-.67-1.66-1.87-1.66-1.89.6-1.89,1.66.67,1.64,1.89,1.64"/><path class="cls-1" d="M21.95,118.56c1.2,0,1.87-.6,1.87-1.64s-.67-1.66-1.87-1.66-1.89.6-1.89,1.66.67,1.64,1.89,1.64"/><path class="cls-1" d="M1.66,139.17c1.04,0,1.64-.67,1.64-1.89s-.6-1.87-1.64-1.87-1.66.67-1.66,1.87.6,1.89,1.66,1.89"/><path class="cls-1" d="M21.95,186.39c1.2,0,1.87-.6,1.87-1.64s-.67-1.66-1.87-1.66-1.89.6-1.89,1.66.67,1.64,1.89,1.64"/><path class="cls-1" d="M21.95,193.16c1.2,0,1.87-.6,1.87-1.64s-.67-1.66-1.87-1.66-1.89.6-1.89,1.66.67,1.64,1.89,1.64"/><path class="cls-1" d="M21.95,172.86c1.2,0,1.87-.6,1.87-1.64s-.67-1.66-1.87-1.66-1.89.6-1.89,1.66.67,1.64,1.89,1.64"/><path class="cls-1" d="M20.65,179.28c-.23-.32-.36-.76-.36-1.31s.12-.97.35-1.28c-.38.28-.58.72-.58,1.3s.2,1.01.59,1.29M23.23,179.28c.39-.28.59-.72.59-1.29s-.2-1.02-.58-1.3c.23.31.35.74.35,1.28s-.12.99-.35,1.31"/><path class="cls-1" d="M21.95,166.09c1.2,0,1.87-.6,1.87-1.64s-.67-1.66-1.87-1.66-1.89.6-1.89,1.66.67,1.64,1.89,1.64"/><path class="cls-1" d="M28.72,179.86c1.04,0,1.64-.67,1.64-1.89s-.6-1.87-1.64-1.87-1.66.67-1.66,1.87.6,1.89,1.66,1.89"/><path class="cls-1" d="M35.49,179.86c1.04,0,1.64-.67,1.64-1.89s-.6-1.87-1.64-1.87-1.66.67-1.66,1.87.6,1.89,1.66,1.89"/><path class="cls-1" d="M15.18,179.86c1.04,0,1.64-.67,1.64-1.89s-.6-1.87-1.64-1.87-1.66.67-1.66,1.87.6,1.89,1.66,1.89"/><path class="cls-1" d="M26.6,184.54c.46,0,.94-.24,1.4-.71.84-.86.87-1.76.13-2.49-.35-.34-.73-.51-1.11-.51-.46,0-.93.23-1.38.7-.85.88-.88,1.78-.13,2.51.34.33.71.49,1.09.49"/><path class="cls-1" d="M16.87,175.12c.46,0,.94-.24,1.4-.71.84-.86.87-1.76.13-2.49-.35-.34-.73-.51-1.11-.51-.46,0-.93.23-1.38.7-.85.88-.88,1.78-.13,2.51.34.33.71.49,1.09.49"/><path class="cls-1" d="M26.87,174.96c.4,0,.79-.18,1.14-.54.72-.74.66-1.64-.22-2.49-.45-.44-.92-.66-1.36-.66-.4,0-.78.18-1.12.53-.73.76-.67,1.66.2,2.49.46.45.93.67,1.37.67"/><path class="cls-1" d="M17.46,184.68c.4,0,.79-.18,1.14-.54.72-.74.66-1.64-.22-2.49-.45-.44-.92-.66-1.36-.66-.4,0-.78.18-1.12.53-.73.76-.67,1.66.19,2.49.46.45.93.67,1.37.67"/><path class="cls-1" d="M21.95,179.86c.57,0,1-.2,1.28-.58.23-.32.35-.76.35-1.31s-.12-.97-.35-1.28c-.28-.38-.72-.59-1.29-.59s-1.03.21-1.31.59c-.23.31-.35.74-.35,1.28s.12.99.36,1.31c.28.38.72.59,1.3.59"/><path class="cls-1" d="M8.41,179.86c1.04,0,1.64-.67,1.64-1.89s-.6-1.87-1.64-1.87-1.66.67-1.66,1.87.6,1.89,1.66,1.89"/><path class="cls-1" d="M31.53,189.17c.46,0,.94-.24,1.4-.72.83-.87.86-1.77.11-2.49-.35-.33-.72-.5-1.11-.5-.46,0-.93.24-1.38.71-.84.88-.87,1.78-.11,2.51.34.32.71.48,1.09.48"/><path class="cls-1" d="M11.94,170.49c.46,0,.94-.24,1.4-.72.83-.87.86-1.77.11-2.49-.35-.33-.72-.5-1.11-.5-.46,0-.93.24-1.38.71-.84.88-.87,1.78-.11,2.51.34.32.71.48,1.09.48"/><path class="cls-1" d="M31.51,170.02c.41,0,.79-.18,1.14-.55.72-.75.64-1.65-.24-2.49-.45-.43-.92-.65-1.36-.65-.4,0-.79.18-1.13.54-.73.76-.66,1.66.21,2.49.46.44.92.66,1.37.66"/><path class="cls-1" d="M12.83,189.62c.41,0,.79-.18,1.14-.55.71-.75.64-1.65-.24-2.49-.45-.43-.92-.65-1.36-.65-.4,0-.79.18-1.13.54-.73.76-.66,1.66.21,2.49.46.44.93.66,1.37.66"/><path class="cls-1" d="M1.66,179.86c1.04,0,1.64-.67,1.64-1.89s-.6-1.87-1.64-1.87-1.66.67-1.66,1.87.6,1.89,1.66,1.89"/><path class="cls-1" d="M21.95,64.31c1.2,0,1.87-.6,1.87-1.64s-.67-1.66-1.87-1.66-1.89.6-1.89,1.66.67,1.64,1.89,1.64"/><path class="cls-1" d="M21.95,71.08c1.2,0,1.87-.6,1.87-1.64s-.67-1.66-1.87-1.66-1.89.6-1.89,1.66.67,1.64,1.89,1.64"/><path class="cls-1" d="M21.95,50.78c1.2,0,1.87-.6,1.87-1.64s-.67-1.66-1.87-1.66-1.89.6-1.89,1.66.67,1.64,1.89,1.64"/><path class="cls-1" d="M20.65,57.19c-.23-.32-.36-.76-.36-1.31s.12-.97.35-1.28c-.38.28-.58.72-.58,1.3s.2,1.01.59,1.29M23.23,57.2c.39-.28.59-.72.59-1.29s-.2-1.02-.58-1.3c.23.31.35.74.35,1.28s-.12.99-.35,1.31"/><path class="cls-1" d="M21.95,44.01c1.2,0,1.87-.6,1.87-1.64s-.67-1.66-1.87-1.66-1.89.6-1.89,1.66.67,1.64,1.89,1.64"/><path class="cls-1" d="M28.72,57.78c1.04,0,1.64-.67,1.64-1.89s-.6-1.87-1.64-1.87-1.66.67-1.66,1.87.6,1.89,1.66,1.89"/><path class="cls-1" d="M35.49,57.78c1.04,0,1.64-.67,1.64-1.89s-.6-1.87-1.64-1.87-1.66.67-1.66,1.87.6,1.89,1.66,1.89"/><path class="cls-1" d="M15.18,57.78c1.04,0,1.64-.67,1.64-1.89s-.6-1.87-1.64-1.87-1.66.67-1.66,1.87.6,1.89,1.66,1.89"/><path class="cls-1" d="M26.6,62.46c.46,0,.94-.24,1.4-.71.84-.86.87-1.76.13-2.49-.35-.34-.73-.51-1.11-.51-.46,0-.93.23-1.38.7-.85.88-.88,1.78-.13,2.51.34.33.71.49,1.09.49"/><path class="cls-1" d="M16.87,53.04c.46,0,.94-.24,1.4-.71.84-.86.87-1.76.13-2.49-.35-.34-.73-.51-1.11-.51-.46,0-.93.23-1.38.7-.85.88-.88,1.78-.13,2.51.34.33.71.49,1.09.49"/><path class="cls-1" d="M26.87,52.88c.4,0,.79-.18,1.14-.54.72-.74.66-1.64-.22-2.49-.45-.44-.92-.66-1.36-.66-.4,0-.78.18-1.12.53-.73.76-.67,1.66.2,2.49.46.45.93.67,1.37.67"/><path class="cls-1" d="M17.46,62.6c.4,0,.79-.18,1.14-.54.72-.74.66-1.64-.22-2.49-.45-.44-.92-.66-1.36-.66-.4,0-.78.18-1.12.53-.73.76-.67,1.66.19,2.49.46.45.93.67,1.37.67"/><path class="cls-1" d="M21.95,57.78c.57,0,1-.2,1.28-.58.23-.32.35-.76.35-1.31s-.12-.97-.35-1.28c-.28-.38-.72-.59-1.29-.59s-1.03.21-1.31.59c-.23.31-.35.74-.35,1.28s.12.99.36,1.31c.28.38.72.59,1.3.59"/><path class="cls-1" d="M8.41,57.78c1.04,0,1.64-.67,1.64-1.89s-.6-1.87-1.64-1.87-1.66.67-1.66,1.87.6,1.89,1.66,1.89"/><path class="cls-1" d="M31.53,67.09c.46,0,.94-.24,1.4-.72.83-.87.86-1.77.11-2.49-.35-.33-.72-.5-1.11-.5-.46,0-.93.24-1.38.71-.84.88-.87,1.78-.11,2.51.34.32.71.48,1.09.48"/><path class="cls-1" d="M11.94,48.41c.46,0,.94-.24,1.4-.72.83-.87.86-1.77.11-2.49-.35-.33-.72-.5-1.11-.5-.46,0-.93.24-1.38.71-.84.88-.87,1.78-.11,2.51.34.32.71.48,1.09.48"/><path class="cls-1" d="M31.51,47.94c.41,0,.79-.18,1.14-.55.72-.75.64-1.65-.24-2.49-.45-.43-.92-.65-1.36-.65-.4,0-.79.18-1.13.54-.73.76-.66,1.66.21,2.49.46.44.92.66,1.37.66"/><path class="cls-1" d="M12.83,67.53c.41,0,.79-.18,1.14-.55.71-.75.64-1.65-.24-2.49-.45-.43-.92-.65-1.36-.65-.4,0-.79.18-1.13.54-.73.76-.66,1.66.21,2.49.46.44.93.66,1.37.66"/><path class="cls-1" d="M21.95,77.87c1.2,0,1.87-.6,1.87-1.64s-.67-1.66-1.87-1.66-1.89.6-1.89,1.66.67,1.64,1.89,1.64"/><path class="cls-1" d="M21.95,37.17c1.2,0,1.87-.6,1.87-1.64s-.67-1.66-1.87-1.66-1.89.6-1.89,1.66.67,1.64,1.89,1.64"/><path class="cls-1" d="M1.66,57.78c1.04,0,1.64-.67,1.64-1.89s-.6-1.87-1.64-1.87-1.66.67-1.66,1.87.6,1.89,1.66,1.89"/><path class="cls-1" d="M21.95,105c1.2,0,1.87-.6,1.87-1.64s-.67-1.66-1.87-1.66-1.89.6-1.89,1.66.67,1.64,1.89,1.64"/><path class="cls-1" d="M21.95,111.77c1.2,0,1.87-.6,1.87-1.64s-.67-1.66-1.87-1.66-1.89.6-1.89,1.66.67,1.64,1.89,1.64"/><path class="cls-1" d="M21.95,91.47c1.2,0,1.87-.6,1.87-1.64s-.67-1.66-1.87-1.66-1.89.6-1.89,1.66.67,1.64,1.89,1.64"/><path class="cls-1" d="M20.65,97.89c-.23-.32-.36-.76-.36-1.31s.12-.97.35-1.28c-.38.28-.58.72-.58,1.3s.2,1.01.59,1.29M23.23,97.89c.39-.28.59-.72.59-1.29s-.2-1.02-.58-1.3c.23.31.35.74.35,1.28s-.12.99-.35,1.31"/><path class="cls-1" d="M21.95,84.7c1.2,0,1.87-.6,1.87-1.64s-.67-1.66-1.87-1.66-1.89.6-1.89,1.66.67,1.64,1.89,1.64"/><path class="cls-1" d="M28.72,98.47c1.04,0,1.64-.67,1.64-1.89s-.6-1.87-1.64-1.87-1.66.67-1.66,1.87.6,1.89,1.66,1.89"/><path class="cls-1" d="M35.49,98.47c1.04,0,1.64-.67,1.64-1.89s-.6-1.87-1.64-1.87-1.66.67-1.66,1.87.6,1.89,1.66,1.89"/><path class="cls-1" d="M15.18,98.47c1.04,0,1.64-.67,1.64-1.89s-.6-1.87-1.64-1.87-1.66.67-1.66,1.87.6,1.89,1.66,1.89"/><path class="cls-1" d="M26.6,103.15c.46,0,.94-.24,1.4-.71.84-.86.87-1.76.13-2.49-.35-.34-.73-.51-1.11-.51-.46,0-.93.23-1.38.7-.85.88-.88,1.78-.13,2.51.34.33.71.49,1.09.49"/><path class="cls-1" d="M16.87,93.73c.46,0,.94-.24,1.4-.71.84-.86.87-1.76.13-2.49-.35-.34-.73-.51-1.11-.51-.46,0-.93.23-1.38.7-.85.88-.88,1.78-.13,2.51.34.33.71.49,1.09.49"/><path class="cls-1" d="M26.87,93.57c.4,0,.79-.18,1.14-.54.72-.74.66-1.64-.22-2.49-.45-.44-.92-.66-1.36-.66-.4,0-.78.18-1.12.53-.73.76-.67,1.66.2,2.49.46.45.93.67,1.37.67"/><path class="cls-1" d="M17.46,103.29c.4,0,.79-.18,1.14-.54.72-.74.66-1.64-.22-2.49-.45-.44-.92-.66-1.36-.66-.4,0-.78.18-1.12.53-.73.76-.67,1.66.19,2.49.46.45.93.67,1.37.67"/><path class="cls-1" d="M21.95,98.47c.57,0,1-.2,1.28-.58.23-.32.35-.76.35-1.31s-.12-.97-.35-1.28c-.28-.38-.72-.59-1.29-.59s-1.03.21-1.31.59c-.23.31-.35.74-.35,1.28s.12.99.36,1.31c.28.38.72.59,1.3.59"/><path class="cls-1" d="M8.41,98.47c1.04,0,1.64-.67,1.64-1.89s-.6-1.87-1.64-1.87-1.66.67-1.66,1.87.6,1.89,1.66,1.89"/><path class="cls-1" d="M31.53,107.78c.46,0,.94-.24,1.4-.72.83-.87.86-1.77.11-2.49-.35-.33-.72-.5-1.11-.5-.46,0-.93.24-1.38.71-.84.88-.87,1.78-.11,2.51.34.32.71.48,1.09.48"/><path class="cls-1" d="M11.94,89.1c.46,0,.94-.24,1.4-.72.83-.87.86-1.77.11-2.49-.35-.33-.72-.5-1.11-.5-.46,0-.93.24-1.38.71-.84.88-.87,1.78-.11,2.51.34.32.71.48,1.09.48"/><path class="cls-1" d="M31.51,88.63c.41,0,.79-.18,1.14-.55.72-.75.64-1.65-.24-2.49-.45-.43-.92-.65-1.36-.65-.4,0-.79.18-1.13.54-.73.76-.66,1.66.21,2.49.46.44.92.66,1.37.66"/><path class="cls-1" d="M12.83,108.23c.41,0,.79-.18,1.14-.55.71-.75.64-1.65-.24-2.49-.45-.43-.92-.65-1.36-.65-.4,0-.79.18-1.13.54-.73.76-.66,1.66.21,2.49.46.44.93.66,1.37.66"/><path class="cls-1" d="M1.66,98.47c1.04,0,1.64-.67,1.64-1.89s-.6-1.87-1.64-1.87-1.66.67-1.66,1.87.6,1.89,1.66,1.89"/><path class="cls-1" d="M21.95,23.6c1.2,0,1.87-.6,1.87-1.64s-.67-1.66-1.87-1.66-1.89.6-1.89,1.66.67,1.64,1.89,1.64"/><path class="cls-1" d="M21.95,30.37c1.2,0,1.87-.6,1.87-1.64s-.67-1.66-1.87-1.66-1.89.6-1.89,1.66.67,1.64,1.89,1.64"/><path class="cls-1" d="M21.95,10.06c1.2,0,1.87-.6,1.87-1.64s-.67-1.66-1.87-1.66-1.89.6-1.89,1.66.67,1.64,1.89,1.64"/><path class="cls-1" d="M20.65,16.48c-.23-.32-.36-.76-.36-1.31s.12-.97.35-1.28c-.38.28-.58.72-.58,1.3s.2,1.01.59,1.29M23.23,16.48c.39-.28.59-.72.59-1.29s-.2-1.02-.58-1.3c.23.31.35.74.35,1.28s-.12.99-.35,1.31"/><path class="cls-1" d="M21.95,3.29c1.2,0,1.87-.6,1.87-1.64s-.67-1.66-1.87-1.66-1.89.6-1.89,1.66.67,1.64,1.89,1.64"/><path class="cls-1" d="M28.72,17.07c1.04,0,1.64-.67,1.64-1.89s-.6-1.87-1.64-1.87-1.66.67-1.66,1.87.6,1.89,1.66,1.89"/><path class="cls-1" d="M35.49,17.07c1.04,0,1.64-.67,1.64-1.89s-.6-1.87-1.64-1.87-1.66.67-1.66,1.87.6,1.89,1.66,1.89"/><path class="cls-1" d="M15.18,17.07c1.04,0,1.64-.67,1.64-1.89s-.6-1.87-1.64-1.87-1.66.67-1.66,1.87.6,1.89,1.66,1.89"/><path class="cls-1" d="M26.6,21.74c.46,0,.94-.24,1.4-.71.84-.86.87-1.76.13-2.49-.35-.34-.73-.51-1.11-.51-.46,0-.93.23-1.38.7-.85.88-.88,1.78-.13,2.51.34.33.71.49,1.09.49"/><path class="cls-1" d="M16.87,12.33c.46,0,.94-.24,1.4-.71.84-.86.87-1.76.13-2.49-.35-.34-.73-.51-1.11-.51-.46,0-.93.23-1.38.7-.85.88-.88,1.78-.13,2.51.34.33.71.49,1.09.49"/><path class="cls-1" d="M26.87,12.16c.4,0,.79-.18,1.14-.54.72-.74.66-1.64-.22-2.49-.45-.44-.92-.66-1.36-.66-.4,0-.78.18-1.12.53-.73.76-.67,1.66.2,2.49.46.45.93.67,1.37.67"/><path class="cls-1" d="M17.46,21.89c.4,0,.79-.18,1.14-.54.72-.74.66-1.64-.22-2.49-.45-.44-.92-.66-1.36-.66-.4,0-.78.18-1.12.53-.73.76-.67,1.66.19,2.49.46.45.93.67,1.37.67"/><path class="cls-1" d="M21.95,17.07c.57,0,1-.2,1.28-.58.23-.32.35-.76.35-1.31s-.12-.97-.35-1.28c-.28-.38-.72-.59-1.29-.59s-1.03.21-1.31.59c-.23.31-.35.74-.35,1.28s.12.99.36,1.31c.28.38.72.59,1.3.59"/><path class="cls-1" d="M8.41,17.07c1.04,0,1.64-.67,1.64-1.89s-.6-1.87-1.64-1.87-1.66.67-1.66,1.87.6,1.89,1.66,1.89"/><path class="cls-1" d="M31.53,26.38c.46,0,.94-.24,1.4-.72.83-.87.86-1.77.11-2.49-.35-.33-.72-.5-1.11-.5-.46,0-.93.24-1.38.71-.84.88-.87,1.78-.11,2.51.34.32.71.48,1.09.48"/><path class="cls-1" d="M11.94,7.7c.46,0,.94-.24,1.4-.72.83-.87.86-1.77.11-2.49-.35-.33-.72-.5-1.11-.5-.46,0-.93.24-1.38.71-.84.88-.87,1.78-.11,2.51.34.32.71.48,1.09.48"/><path class="cls-1" d="M31.51,7.23c.41,0,.79-.18,1.14-.55.72-.75.64-1.65-.24-2.49-.45-.43-.92-.65-1.36-.65-.4,0-.79.18-1.13.54-.73.76-.66,1.66.21,2.49.46.44.92.66,1.37.66"/><path class="cls-1" d="M12.83,26.82c.41,0,.79-.18,1.14-.55.71-.75.64-1.65-.24-2.49-.45-.43-.92-.65-1.36-.65-.4,0-.79.18-1.13.54-.73.76-.66,1.66.21,2.49.46.44.93.66,1.37.66"/><path class="cls-1" d="M1.66,17.07c1.04,0,1.64-.67,1.64-1.89s-.6-1.87-1.64-1.87-1.66.67-1.66,1.87.6,1.89,1.66,1.89"/></g></svg>