<?xml version="1.0" encoding="UTF-8"?><svg id="Layer_2" xmlns="http://www.w3.org/2000/svg" viewBox="0 0 37.12 844.73"><defs><style>.cls-1{fill:#e9f3fc;}</style></defs><g id="Layer_1-2"><path class="cls-1" d="M15.17,47.46c-1.2,0-1.87.6-1.87,1.64s.67,1.66,1.87,1.66,1.89-.6,1.89-1.66-.67-1.64-1.89-1.64"/><path class="cls-1" d="M15.17,40.69c-1.2,0-1.87.6-1.87,1.64s.67,1.66,1.87,1.66,1.89-.6,1.89-1.66-.67-1.64-1.89-1.64"/><path class="cls-1" d="M15.17,61c-1.2,0-1.87.6-1.87,1.64s.67,1.66,1.87,1.66,1.89-.6,1.89-1.66-.67-1.64-1.89-1.64"/><path class="cls-1" d="M16.47,54.58c.23.32.36.76.36,1.31s-.12.97-.35,1.28c.38-.28.58-.72.58-1.3s-.2-1.01-.59-1.29M13.89,54.57c-.39.28-.59.72-.59,1.29s.2,1.02.58,1.3c-.23-.31-.35-.74-.35-1.28s.12-.99.35-1.31"/><path class="cls-1" d="M15.17,67.76c-1.2,0-1.87.6-1.87,1.64s.67,1.66,1.87,1.66,1.89-.6,1.89-1.66-.67-1.64-1.89-1.64"/><path class="cls-1" d="M8.41,53.99c-1.04,0-1.64.67-1.64,1.89s.6,1.87,1.64,1.87,1.66-.67,1.66-1.87-.6-1.89-1.66-1.89"/><path class="cls-1" d="M1.64,53.99c-1.04,0-1.64.67-1.64,1.89s.6,1.87,1.64,1.87,1.66-.67,1.66-1.87-.6-1.89-1.66-1.89"/><path class="cls-1" d="M21.94,53.99c-1.04,0-1.64.67-1.64,1.89s.6,1.87,1.64,1.87,1.66-.67,1.66-1.87-.6-1.89-1.66-1.89"/><path class="cls-1" d="M10.53,49.31c-.46,0-.94.24-1.4.71-.84.86-.87,1.76-.13,2.49.35.34.73.51,1.11.51.46,0,.93-.23,1.38-.7.85-.88.88-1.78.13-2.51-.34-.33-.71-.49-1.09-.49"/><path class="cls-1" d="M20.25,58.73c-.46,0-.94.24-1.4.71-.84.86-.87,1.76-.13,2.49.35.34.73.51,1.11.51.46,0,.93-.23,1.38-.7.85-.88.88-1.78.13-2.51-.34-.33-.71-.49-1.09-.49"/><path class="cls-1" d="M10.25,58.89c-.4,0-.79.18-1.14.54-.72.74-.66,1.64.22,2.49.45.44.92.66,1.36.66.4,0,.78-.18,1.12-.53.73-.76.67-1.66-.2-2.49-.46-.45-.93-.67-1.37-.67"/><path class="cls-1" d="M19.67,49.17c-.4,0-.79.18-1.14.54-.72.74-.66,1.64.22,2.49.45.44.92.66,1.36.66.4,0,.78-.18,1.12-.53.73-.76.67-1.66-.19-2.49-.46-.45-.93-.67-1.37-.67"/><path class="cls-1" d="M15.17,53.99c-.57,0-1,.2-1.28.58-.23.32-.35.76-.35,1.31s.12.97.35,1.28c.28.38.72.59,1.29.59s1.03-.21,1.31-.59c.23-.31.35-.74.35-1.28s-.12-.99-.36-1.31c-.28-.38-.72-.59-1.3-.59"/><path class="cls-1" d="M28.71,53.99c-1.04,0-1.64.67-1.64,1.89s.6,1.87,1.64,1.87,1.66-.67,1.66-1.87-.6-1.89-1.66-1.89"/><path class="cls-1" d="M5.59,44.68c-.46,0-.94.24-1.4.72-.83.87-.86,1.77-.11,2.49.35.33.72.5,1.11.5.46,0,.93-.24,1.38-.71.84-.88.87-1.78.11-2.51-.34-.32-.71-.48-1.09-.48"/><path class="cls-1" d="M25.18,63.36c-.46,0-.94.24-1.4.72-.83.87-.86,1.77-.11,2.49.35.33.72.5,1.11.5.46,0,.93-.24,1.38-.71.84-.88.87-1.78.11-2.51-.34-.32-.71-.48-1.09-.48"/><path class="cls-1" d="M5.62,63.83c-.41,0-.79.18-1.14.55-.72.75-.64,1.65.24,2.49.45.43.92.65,1.36.65.4,0,.79-.18,1.13-.54.73-.76.66-1.66-.21-2.49-.46-.44-.92-.66-1.37-.66"/><path class="cls-1" d="M24.3,44.24c-.41,0-.79.18-1.14.55-.71.75-.64,1.65.24,2.49.45.43.92.65,1.36.65.4,0,.79-.18,1.13-.54.73-.76.66-1.66-.21-2.49-.46-.44-.93-.66-1.37-.66"/><path class="cls-1" d="M15.17,33.9c-1.2,0-1.87.6-1.87,1.64s.67,1.66,1.87,1.66,1.89-.6,1.89-1.66-.67-1.64-1.89-1.64"/><path class="cls-1" d="M15.17,74.6c-1.2,0-1.87.6-1.87,1.64s.67,1.66,1.87,1.66,1.89-.6,1.89-1.66-.67-1.64-1.89-1.64"/><path class="cls-1" d="M35.47,53.99c-1.04,0-1.64.67-1.64,1.89s.6,1.87,1.64,1.87,1.66-.67,1.66-1.87-.6-1.89-1.66-1.89"/><path class="cls-1" d="M15.17,6.77c-1.2,0-1.87.6-1.87,1.64s.67,1.66,1.87,1.66,1.89-.6,1.89-1.66-.67-1.64-1.89-1.64"/><path class="cls-1" d="M15.17,0c-1.2,0-1.87.6-1.87,1.64s.67,1.66,1.87,1.66,1.89-.6,1.89-1.66-.67-1.64-1.89-1.64"/><path class="cls-1" d="M15.17,20.3c-1.2,0-1.87.6-1.87,1.64s.67,1.66,1.87,1.66,1.89-.6,1.89-1.66-.67-1.64-1.89-1.64"/><path class="cls-1" d="M16.47,13.88c.23.32.36.76.36,1.31s-.12.97-.35,1.28c.38-.28.58-.72.58-1.3s-.2-1.01-.59-1.29M13.89,13.88c-.39.28-.59.72-.59,1.29s.2,1.02.58,1.3c-.23-.31-.35-.74-.35-1.28s.12-.99.35-1.31"/><path class="cls-1" d="M15.17,27.07c-1.2,0-1.87.6-1.87,1.64s.67,1.66,1.87,1.66,1.89-.6,1.89-1.66-.67-1.64-1.89-1.64"/><path class="cls-1" d="M8.41,13.3c-1.04,0-1.64.67-1.64,1.89s.6,1.87,1.64,1.87,1.66-.67,1.66-1.87-.6-1.89-1.66-1.89"/><path class="cls-1" d="M1.64,13.3c-1.04,0-1.64.67-1.64,1.89s.6,1.87,1.64,1.87,1.66-.67,1.66-1.87-.6-1.89-1.66-1.89"/><path class="cls-1" d="M21.94,13.3c-1.04,0-1.64.67-1.64,1.89s.6,1.87,1.64,1.87,1.66-.67,1.66-1.87-.6-1.89-1.66-1.89"/><path class="cls-1" d="M10.53,8.62c-.46,0-.94.24-1.4.71-.84.86-.87,1.76-.13,2.49.35.34.73.51,1.11.51.46,0,.93-.23,1.38-.7.85-.88.88-1.78.13-2.51-.34-.33-.71-.49-1.09-.49"/><path class="cls-1" d="M20.25,18.04c-.46,0-.94.24-1.4.71-.84.86-.87,1.76-.13,2.49.35.34.73.51,1.11.51.46,0,.93-.23,1.38-.7.85-.88.88-1.78.13-2.51-.34-.33-.71-.49-1.09-.49"/><path class="cls-1" d="M10.25,18.2c-.4,0-.79.18-1.14.54-.72.74-.66,1.64.22,2.49.45.44.92.66,1.36.66.4,0,.78-.18,1.12-.53.73-.76.67-1.66-.2-2.49-.46-.45-.93-.67-1.37-.67"/><path class="cls-1" d="M19.67,8.48c-.4,0-.79.18-1.14.54-.72.74-.66,1.64.22,2.49.45.44.92.66,1.36.66.4,0,.78-.18,1.12-.53.73-.76.67-1.66-.19-2.49-.46-.45-.93-.67-1.37-.67"/><path class="cls-1" d="M15.17,13.3c-.57,0-1,.2-1.28.58-.23.32-.35.76-.35,1.31s.12.97.35,1.28c.28.38.72.59,1.29.59s1.03-.21,1.31-.59c.23-.31.35-.74.35-1.28s-.12-.99-.36-1.31c-.28-.38-.72-.59-1.3-.59"/><path class="cls-1" d="M28.71,13.3c-1.04,0-1.64.67-1.64,1.89s.6,1.87,1.64,1.87,1.66-.67,1.66-1.87-.6-1.89-1.66-1.89"/><path class="cls-1" d="M5.59,3.99c-.46,0-.94.24-1.4.72-.83.87-.86,1.77-.11,2.49.35.33.72.5,1.11.5.46,0,.93-.24,1.38-.71.84-.88.87-1.78.11-2.51-.34-.32-.71-.48-1.09-.48"/><path class="cls-1" d="M25.18,22.67c-.46,0-.94.24-1.4.72-.83.87-.86,1.77-.11,2.49.35.33.72.5,1.11.5.46,0,.93-.24,1.38-.71.84-.88.87-1.78.11-2.51-.34-.32-.71-.48-1.09-.48"/><path class="cls-1" d="M5.62,23.14c-.41,0-.79.18-1.14.55-.72.75-.64,1.65.24,2.49.45.43.92.65,1.36.65.4,0,.79-.18,1.13-.54.73-.76.66-1.66-.21-2.49-.46-.44-.92-.66-1.37-.66"/><path class="cls-1" d="M24.3,3.54c-.41,0-.79.18-1.14.55-.71.75-.64,1.65.24,2.49.45.43.92.65,1.36.65.4,0,.79-.18,1.13-.54.73-.76.66-1.66-.21-2.49-.46-.44-.93-.66-1.37-.66"/><path class="cls-1" d="M35.47,13.3c-1.04,0-1.64.67-1.64,1.89s.6,1.87,1.64,1.87,1.66-.67,1.66-1.87-.6-1.89-1.66-1.89"/><path class="cls-1" d="M15.17,128.85c-1.2,0-1.87.6-1.87,1.64s.67,1.66,1.87,1.66,1.89-.6,1.89-1.66-.67-1.64-1.89-1.64"/><path class="cls-1" d="M15.17,122.08c-1.2,0-1.87.6-1.87,1.64s.67,1.66,1.87,1.66,1.89-.6,1.89-1.66-.67-1.64-1.89-1.64"/><path class="cls-1" d="M15.17,142.39c-1.2,0-1.87.6-1.87,1.64s.67,1.66,1.87,1.66,1.89-.6,1.89-1.66-.67-1.64-1.89-1.64"/><path class="cls-1" d="M16.47,135.97c.23.32.36.76.36,1.31s-.12.97-.35,1.28c.38-.28.58-.72.58-1.3s-.2-1.01-.59-1.29M13.89,135.96c-.39.28-.59.72-.59,1.29s.2,1.02.58,1.3c-.23-.31-.35-.74-.35-1.28s.12-.99.35-1.31"/><path class="cls-1" d="M15.17,149.15c-1.2,0-1.87.6-1.87,1.64s.67,1.66,1.87,1.66,1.89-.6,1.89-1.66-.67-1.64-1.89-1.64"/><path class="cls-1" d="M8.41,135.38c-1.04,0-1.64.67-1.64,1.89s.6,1.87,1.64,1.87,1.66-.67,1.66-1.87-.6-1.89-1.66-1.89"/><path class="cls-1" d="M1.64,135.38c-1.04,0-1.64.67-1.64,1.89s.6,1.87,1.64,1.87,1.66-.67,1.66-1.87-.6-1.89-1.66-1.89"/><path class="cls-1" d="M21.94,135.38c-1.04,0-1.64.67-1.64,1.89s.6,1.87,1.64,1.87,1.66-.67,1.66-1.87-.6-1.89-1.66-1.89"/><path class="cls-1" d="M10.53,130.7c-.46,0-.94.24-1.4.71-.84.86-.87,1.76-.13,2.49.35.34.73.51,1.11.51.46,0,.93-.23,1.38-.7.85-.88.88-1.78.13-2.51-.34-.33-.71-.49-1.09-.49"/><path class="cls-1" d="M20.25,140.12c-.46,0-.94.24-1.4.71-.84.86-.87,1.76-.13,2.49.35.34.73.51,1.11.51.46,0,.93-.23,1.38-.7.85-.88.88-1.78.13-2.51-.34-.33-.71-.49-1.09-.49"/><path class="cls-1" d="M10.25,140.28c-.4,0-.79.18-1.14.54-.72.74-.66,1.64.22,2.49.45.44.92.66,1.36.66.4,0,.78-.18,1.12-.53.73-.76.67-1.66-.2-2.49-.46-.45-.93-.67-1.37-.67"/><path class="cls-1" d="M19.67,130.56c-.4,0-.79.18-1.14.54-.72.74-.66,1.64.22,2.49.45.44.92.66,1.36.66.4,0,.78-.18,1.12-.53.73-.76.67-1.66-.19-2.49-.46-.45-.93-.67-1.37-.67"/><path class="cls-1" d="M15.17,135.38c-.57,0-1,.2-1.28.58-.23.32-.35.76-.35,1.31s.12.97.35,1.28c.28.38.72.59,1.29.59s1.03-.21,1.31-.59c.23-.31.35-.74.35-1.28s-.12-.99-.36-1.31c-.28-.38-.72-.59-1.3-.59"/><path class="cls-1" d="M28.71,135.38c-1.04,0-1.64.67-1.64,1.89s.6,1.87,1.64,1.87,1.66-.67,1.66-1.87-.6-1.89-1.66-1.89"/><path class="cls-1" d="M5.59,126.07c-.46,0-.94.24-1.4.72-.83.87-.86,1.77-.11,2.49.35.33.72.5,1.11.5.46,0,.93-.24,1.38-.71.84-.88.87-1.78.11-2.51-.34-.32-.71-.48-1.09-.48"/><path class="cls-1" d="M25.18,144.75c-.46,0-.94.24-1.4.72-.83.87-.86,1.77-.11,2.49.35.33.72.5,1.11.5.46,0,.93-.24,1.38-.71.84-.88.87-1.78.11-2.51-.34-.32-.71-.48-1.09-.48"/><path class="cls-1" d="M5.62,145.22c-.41,0-.79.18-1.14.55-.72.75-.64,1.65.24,2.49.45.43.92.65,1.36.65.4,0,.79-.18,1.13-.54.73-.76.66-1.66-.21-2.49-.46-.44-.92-.66-1.37-.66"/><path class="cls-1" d="M24.3,125.63c-.41,0-.79.18-1.14.55-.71.75-.64,1.65.24,2.49.45.43.92.65,1.36.65.4,0,.79-.18,1.13-.54.73-.76.66-1.66-.21-2.49-.46-.44-.93-.66-1.37-.66"/><path class="cls-1" d="M15.17,115.29c-1.2,0-1.87.6-1.87,1.64s.67,1.66,1.87,1.66,1.89-.6,1.89-1.66-.67-1.64-1.89-1.64"/><path class="cls-1" d="M15.17,155.99c-1.2,0-1.87.6-1.87,1.64s.67,1.66,1.87,1.66,1.89-.6,1.89-1.66-.67-1.64-1.89-1.64"/><path class="cls-1" d="M35.47,135.38c-1.04,0-1.64.67-1.64,1.89s.6,1.87,1.64,1.87,1.66-.67,1.66-1.87-.6-1.89-1.66-1.89"/><path class="cls-1" d="M15.17,88.16c-1.2,0-1.87.6-1.87,1.64s.67,1.66,1.87,1.66,1.89-.6,1.89-1.66-.67-1.64-1.89-1.64"/><path class="cls-1" d="M15.17,81.39c-1.2,0-1.87.6-1.87,1.64s.67,1.66,1.87,1.66,1.89-.6,1.89-1.66-.67-1.64-1.89-1.64"/><path class="cls-1" d="M15.17,101.69c-1.2,0-1.87.6-1.87,1.64s.67,1.66,1.87,1.66,1.89-.6,1.89-1.66-.67-1.64-1.89-1.64"/><path class="cls-1" d="M16.47,95.27c.23.32.36.76.36,1.31s-.12.97-.35,1.28c.38-.28.58-.72.58-1.3s-.2-1.01-.59-1.29M13.89,95.27c-.39.28-.59.72-.59,1.29s.2,1.02.58,1.3c-.23-.31-.35-.74-.35-1.28s.12-.99.35-1.31"/><path class="cls-1" d="M15.17,108.46c-1.2,0-1.87.6-1.87,1.64s.67,1.66,1.87,1.66,1.89-.6,1.89-1.66-.67-1.64-1.89-1.64"/><path class="cls-1" d="M8.41,94.69c-1.04,0-1.64.67-1.64,1.89s.6,1.87,1.64,1.87,1.66-.67,1.66-1.87-.6-1.89-1.66-1.89"/><path class="cls-1" d="M1.64,94.69c-1.04,0-1.64.67-1.64,1.89s.6,1.87,1.64,1.87,1.66-.67,1.66-1.87-.6-1.89-1.66-1.89"/><path class="cls-1" d="M21.94,94.69c-1.04,0-1.64.67-1.64,1.89s.6,1.87,1.64,1.87,1.66-.67,1.66-1.87-.6-1.89-1.66-1.89"/><path class="cls-1" d="M10.53,90.01c-.46,0-.94.24-1.4.71-.84.86-.87,1.76-.13,2.49.35.34.73.51,1.11.51.46,0,.93-.23,1.38-.7.85-.88.88-1.78.13-2.51-.34-.33-.71-.49-1.09-.49"/><path class="cls-1" d="M20.25,99.43c-.46,0-.94.24-1.4.71-.84.86-.87,1.76-.13,2.49.35.34.73.51,1.11.51.46,0,.93-.23,1.38-.7.85-.88.88-1.78.13-2.51-.34-.33-.71-.49-1.09-.49"/><path class="cls-1" d="M10.25,99.59c-.4,0-.79.18-1.14.54-.72.74-.66,1.64.22,2.49.45.44.92.66,1.36.66.4,0,.78-.18,1.12-.53.73-.76.67-1.66-.2-2.49-.46-.45-.93-.67-1.37-.67"/><path class="cls-1" d="M19.67,89.87c-.4,0-.79.18-1.14.54-.72.74-.66,1.64.22,2.49.45.44.92.66,1.36.66.4,0,.78-.18,1.12-.53.73-.76.67-1.66-.19-2.49-.46-.45-.93-.67-1.37-.67"/><path class="cls-1" d="M15.17,94.69c-.57,0-1,.2-1.28.58-.23.32-.35.76-.35,1.31s.12.97.35,1.28c.28.38.72.59,1.29.59s1.03-.21,1.31-.59c.23-.31.35-.74.35-1.28s-.12-.99-.36-1.31c-.28-.38-.72-.59-1.3-.59"/><path class="cls-1" d="M28.71,94.69c-1.04,0-1.64.67-1.64,1.89s.6,1.87,1.64,1.87,1.66-.67,1.66-1.87-.6-1.89-1.66-1.89"/><path class="cls-1" d="M5.59,85.38c-.46,0-.94.24-1.4.72-.83.87-.86,1.77-.11,2.49.35.33.72.5,1.11.5.46,0,.93-.24,1.38-.71.84-.88.87-1.78.11-2.51-.34-.32-.71-.48-1.09-.48"/><path class="cls-1" d="M25.18,104.06c-.46,0-.94.24-1.4.72-.83.87-.86,1.77-.11,2.49.35.33.72.5,1.11.5.46,0,.93-.24,1.38-.71.84-.88.87-1.78.11-2.51-.34-.32-.71-.48-1.09-.48"/><path class="cls-1" d="M5.62,104.53c-.41,0-.79.18-1.14.55-.72.75-.64,1.65.24,2.49.45.43.92.65,1.36.65.4,0,.79-.18,1.13-.54.73-.76.66-1.66-.21-2.49-.46-.44-.92-.66-1.37-.66"/><path class="cls-1" d="M24.3,84.93c-.41,0-.79.18-1.14.55-.71.75-.64,1.65.24,2.49.45.43.92.65,1.36.65.4,0,.79-.18,1.13-.54.73-.76.66-1.66-.21-2.49-.46-.44-.93-.66-1.37-.66"/><path class="cls-1" d="M35.47,94.69c-1.04,0-1.64.67-1.64,1.89s.6,1.87,1.64,1.87,1.66-.67,1.66-1.87-.6-1.89-1.66-1.89"/><path class="cls-1" d="M15.17,210.25c-1.2,0-1.87.6-1.87,1.64s.67,1.66,1.87,1.66,1.89-.6,1.89-1.66-.67-1.64-1.89-1.64"/><path class="cls-1" d="M15.17,203.49c-1.2,0-1.87.6-1.87,1.64s.67,1.66,1.87,1.66,1.89-.6,1.89-1.66-.67-1.64-1.89-1.64"/><path class="cls-1" d="M15.17,223.79c-1.2,0-1.87.6-1.87,1.64s.67,1.66,1.87,1.66,1.89-.6,1.89-1.66-.67-1.64-1.89-1.64"/><path class="cls-1" d="M16.47,217.37c.23.32.36.76.36,1.31s-.12.97-.35,1.28c.38-.28.58-.72.58-1.3s-.2-1.01-.59-1.29M13.89,217.37c-.39.28-.59.72-.59,1.29s.2,1.02.58,1.3c-.23-.31-.35-.74-.35-1.28s.12-.99.35-1.31"/><path class="cls-1" d="M15.17,230.56c-1.2,0-1.87.6-1.87,1.64s.67,1.66,1.87,1.66,1.89-.6,1.89-1.66-.67-1.64-1.89-1.64"/><path class="cls-1" d="M8.41,216.79c-1.04,0-1.64.67-1.64,1.89s.6,1.87,1.64,1.87,1.66-.67,1.66-1.87-.6-1.89-1.66-1.89"/><path class="cls-1" d="M1.64,216.79c-1.04,0-1.64.67-1.64,1.89s.6,1.87,1.64,1.87,1.66-.67,1.66-1.87-.6-1.89-1.66-1.89"/><path class="cls-1" d="M21.94,216.79c-1.04,0-1.64.67-1.64,1.89s.6,1.87,1.64,1.87,1.66-.67,1.66-1.87-.6-1.89-1.66-1.89"/><path class="cls-1" d="M10.53,212.11c-.46,0-.94.24-1.4.71-.84.86-.87,1.76-.13,2.49.35.34.73.51,1.11.51.46,0,.93-.23,1.38-.7.85-.88.88-1.78.13-2.51-.34-.33-.71-.49-1.09-.49"/><path class="cls-1" d="M20.25,221.52c-.46,0-.94.24-1.4.71-.84.86-.87,1.76-.13,2.49.35.34.73.51,1.11.51.46,0,.93-.23,1.38-.7.85-.88.88-1.78.13-2.51-.34-.33-.71-.49-1.09-.49"/><path class="cls-1" d="M10.25,221.69c-.4,0-.79.18-1.14.54-.72.74-.66,1.64.22,2.49.45.44.92.66,1.36.66.4,0,.78-.18,1.12-.53.73-.76.67-1.66-.2-2.49-.46-.45-.93-.67-1.37-.67"/><path class="cls-1" d="M19.67,211.96c-.4,0-.79.18-1.14.54-.72.74-.66,1.64.22,2.49.45.44.92.66,1.36.66.4,0,.78-.18,1.12-.53.73-.76.67-1.66-.19-2.49-.46-.45-.93-.67-1.37-.67"/><path class="cls-1" d="M15.17,216.79c-.57,0-1,.2-1.28.58-.23.32-.35.76-.35,1.31s.12.97.35,1.28c.28.38.72.59,1.29.59s1.03-.21,1.31-.59c.23-.31.35-.74.35-1.28s-.12-.99-.36-1.31c-.28-.38-.72-.59-1.3-.59"/><path class="cls-1" d="M28.71,216.79c-1.04,0-1.64.67-1.64,1.89s.6,1.87,1.64,1.87,1.66-.67,1.66-1.87-.6-1.89-1.66-1.89"/><path class="cls-1" d="M5.59,207.47c-.46,0-.94.24-1.4.72-.83.87-.86,1.77-.11,2.49.35.33.72.5,1.11.5.46,0,.93-.24,1.38-.71.84-.88.87-1.78.11-2.51-.34-.32-.71-.48-1.09-.48"/><path class="cls-1" d="M25.18,226.16c-.46,0-.94.24-1.4.72-.83.87-.86,1.77-.11,2.49.35.33.72.5,1.11.5.46,0,.93-.24,1.38-.71.84-.88.87-1.78.11-2.51-.34-.32-.71-.48-1.09-.48"/><path class="cls-1" d="M5.62,226.62c-.41,0-.79.18-1.14.55-.72.75-.64,1.65.24,2.49.45.43.92.65,1.36.65.4,0,.79-.18,1.13-.54.73-.76.66-1.66-.21-2.49-.46-.44-.92-.66-1.37-.66"/><path class="cls-1" d="M24.3,207.03c-.41,0-.79.18-1.14.55-.71.75-.64,1.65.24,2.49.45.43.92.65,1.36.65.4,0,.79-.18,1.13-.54.73-.76.66-1.66-.21-2.49-.46-.44-.93-.66-1.37-.66"/><path class="cls-1" d="M15.17,196.7c-1.2,0-1.87.6-1.87,1.64s.67,1.66,1.87,1.66,1.89-.6,1.89-1.66-.67-1.64-1.89-1.64"/><path class="cls-1" d="M15.17,237.4c-1.2,0-1.87.6-1.87,1.64s.67,1.66,1.87,1.66,1.89-.6,1.89-1.66-.67-1.64-1.89-1.64"/><path class="cls-1" d="M35.47,216.79c-1.04,0-1.64.67-1.64,1.89s.6,1.87,1.64,1.87,1.66-.67,1.66-1.87-.6-1.89-1.66-1.89"/><path class="cls-1" d="M15.17,169.56c-1.2,0-1.87.6-1.87,1.64s.67,1.66,1.87,1.66,1.89-.6,1.89-1.66-.67-1.64-1.89-1.64"/><path class="cls-1" d="M15.17,162.8c-1.2,0-1.87.6-1.87,1.64s.67,1.66,1.87,1.66,1.89-.6,1.89-1.66-.67-1.64-1.89-1.64"/><path class="cls-1" d="M15.17,183.1c-1.2,0-1.87.6-1.87,1.64s.67,1.66,1.87,1.66,1.89-.6,1.89-1.66-.67-1.64-1.89-1.64"/><path class="cls-1" d="M16.47,176.68c.23.32.36.76.36,1.31s-.12.97-.35,1.28c.38-.28.58-.72.58-1.3s-.2-1.01-.59-1.29M13.89,176.68c-.39.28-.59.72-.59,1.29s.2,1.02.58,1.3c-.23-.31-.35-.74-.35-1.28s.12-.99.35-1.31"/><path class="cls-1" d="M15.17,189.87c-1.2,0-1.87.6-1.87,1.64s.67,1.66,1.87,1.66,1.89-.6,1.89-1.66-.67-1.64-1.89-1.64"/><path class="cls-1" d="M8.41,176.09c-1.04,0-1.64.67-1.64,1.89s.6,1.87,1.64,1.87,1.66-.67,1.66-1.87-.6-1.89-1.66-1.89"/><path class="cls-1" d="M1.64,176.09c-1.04,0-1.64.67-1.64,1.89s.6,1.87,1.64,1.87,1.66-.67,1.66-1.87-.6-1.89-1.66-1.89"/><path class="cls-1" d="M21.94,176.09c-1.04,0-1.64.67-1.64,1.89s.6,1.87,1.64,1.87,1.66-.67,1.66-1.87-.6-1.89-1.66-1.89"/><path class="cls-1" d="M10.53,171.42c-.46,0-.94.24-1.4.71-.84.86-.87,1.76-.13,2.49.35.34.73.51,1.11.51.46,0,.93-.23,1.38-.7.85-.88.88-1.78.13-2.51-.34-.33-.71-.49-1.09-.49"/><path class="cls-1" d="M20.25,180.83c-.46,0-.94.24-1.4.71-.84.86-.87,1.76-.13,2.49.35.34.73.51,1.11.51.46,0,.93-.23,1.38-.7.85-.88.88-1.78.13-2.51-.34-.33-.71-.49-1.09-.49"/><path class="cls-1" d="M10.25,181c-.4,0-.79.18-1.14.54-.72.74-.66,1.64.22,2.49.45.44.92.66,1.36.66.4,0,.78-.18,1.12-.53.73-.76.67-1.66-.2-2.49-.46-.45-.93-.67-1.37-.67"/><path class="cls-1" d="M19.67,171.27c-.4,0-.79.18-1.14.54-.72.74-.66,1.64.22,2.49.45.44.92.66,1.36.66.4,0,.78-.18,1.12-.53.73-.76.67-1.66-.19-2.49-.46-.45-.93-.67-1.37-.67"/><path class="cls-1" d="M15.17,176.09c-.57,0-1,.2-1.28.58-.23.32-.35.76-.35,1.31s.12.97.35,1.28c.28.38.72.59,1.29.59s1.03-.21,1.31-.59c.23-.31.35-.74.35-1.28s-.12-.99-.36-1.31c-.28-.38-.72-.59-1.3-.59"/><path class="cls-1" d="M28.71,176.09c-1.04,0-1.64.67-1.64,1.89s.6,1.87,1.64,1.87,1.66-.67,1.66-1.87-.6-1.89-1.66-1.89"/><path class="cls-1" d="M5.59,166.78c-.46,0-.94.24-1.4.72-.83.87-.86,1.77-.11,2.49.35.33.72.5,1.11.5.46,0,.93-.24,1.38-.71.84-.88.87-1.78.11-2.51-.34-.32-.71-.48-1.09-.48"/><path class="cls-1" d="M25.18,185.46c-.46,0-.94.24-1.4.72-.83.87-.86,1.77-.11,2.49.35.33.72.5,1.11.5.46,0,.93-.24,1.38-.71.84-.88.87-1.78.11-2.51-.34-.32-.71-.48-1.09-.48"/><path class="cls-1" d="M5.62,185.93c-.41,0-.79.18-1.14.55-.72.75-.64,1.65.24,2.49.45.43.92.65,1.36.65.4,0,.79-.18,1.13-.54.73-.76.66-1.66-.21-2.49-.46-.44-.92-.66-1.37-.66"/><path class="cls-1" d="M24.3,166.34c-.41,0-.79.18-1.14.55-.71.75-.64,1.65.24,2.49.45.43.92.65,1.36.65.4,0,.79-.18,1.13-.54.73-.76.66-1.66-.21-2.49-.46-.44-.93-.66-1.37-.66"/><path class="cls-1" d="M35.47,176.09c-1.04,0-1.64.67-1.64,1.89s.6,1.87,1.64,1.87,1.66-.67,1.66-1.87-.6-1.89-1.66-1.89"/><path class="cls-1" d="M15.17,291.64c-1.2,0-1.87.6-1.87,1.64s.67,1.66,1.87,1.66,1.89-.6,1.89-1.66-.67-1.64-1.89-1.64"/><path class="cls-1" d="M15.17,284.88c-1.2,0-1.87.6-1.87,1.64s.67,1.66,1.87,1.66,1.89-.6,1.89-1.66-.67-1.64-1.89-1.64"/><path class="cls-1" d="M15.17,305.18c-1.2,0-1.87.6-1.87,1.64s.67,1.66,1.87,1.66,1.89-.6,1.89-1.66-.67-1.64-1.89-1.64"/><path class="cls-1" d="M16.47,298.76c.23.32.36.76.36,1.31s-.12.97-.35,1.28c.38-.28.58-.72.58-1.3s-.2-1.01-.59-1.29M13.89,298.76c-.39.28-.59.72-.59,1.29s.2,1.02.58,1.3c-.23-.31-.35-.74-.35-1.28s.12-.99.35-1.31"/><path class="cls-1" d="M15.17,311.95c-1.2,0-1.87.6-1.87,1.64s.67,1.66,1.87,1.66,1.89-.6,1.89-1.66-.67-1.64-1.89-1.64"/><path class="cls-1" d="M8.41,298.18c-1.04,0-1.64.67-1.64,1.89s.6,1.87,1.64,1.87,1.66-.67,1.66-1.87-.6-1.89-1.66-1.89"/><path class="cls-1" d="M1.64,298.18c-1.04,0-1.64.67-1.64,1.89s.6,1.87,1.64,1.87,1.66-.67,1.66-1.87-.6-1.89-1.66-1.89"/><path class="cls-1" d="M21.94,298.18c-1.04,0-1.64.67-1.64,1.89s.6,1.87,1.64,1.87,1.66-.67,1.66-1.87-.6-1.89-1.66-1.89"/><path class="cls-1" d="M10.53,293.5c-.46,0-.94.24-1.4.71-.84.86-.87,1.76-.13,2.49.35.34.73.51,1.11.51.46,0,.93-.23,1.38-.7.85-.88.88-1.78.13-2.51-.34-.33-.71-.49-1.09-.49"/><path class="cls-1" d="M20.25,302.91c-.46,0-.94.24-1.4.71-.84.86-.87,1.76-.13,2.49.35.34.73.51,1.11.51.46,0,.93-.23,1.38-.7.85-.88.88-1.78.13-2.51-.34-.33-.71-.49-1.09-.49"/><path class="cls-1" d="M10.25,303.08c-.4,0-.79.18-1.14.54-.72.74-.66,1.64.22,2.49.45.44.92.66,1.36.66.4,0,.78-.18,1.12-.53.73-.76.67-1.66-.2-2.49-.46-.45-.93-.67-1.37-.67"/><path class="cls-1" d="M19.67,293.35c-.4,0-.79.18-1.14.54-.72.74-.66,1.64.22,2.49.45.44.92.66,1.36.66.4,0,.78-.18,1.12-.53.73-.76.67-1.66-.19-2.49-.46-.45-.93-.67-1.37-.67"/><path class="cls-1" d="M15.17,298.18c-.57,0-1,.2-1.28.58-.23.32-.35.76-.35,1.31s.12.97.35,1.28c.28.38.72.59,1.29.59s1.03-.21,1.31-.59c.23-.31.35-.74.35-1.28s-.12-.99-.36-1.31c-.28-.38-.72-.59-1.3-.59"/><path class="cls-1" d="M28.71,298.18c-1.04,0-1.64.67-1.64,1.89s.6,1.87,1.64,1.87,1.66-.67,1.66-1.87-.6-1.89-1.66-1.89"/><path class="cls-1" d="M5.59,288.86c-.46,0-.94.24-1.4.72-.83.87-.86,1.77-.11,2.49.35.33.72.5,1.11.5.46,0,.93-.24,1.38-.71.84-.88.87-1.78.11-2.51-.34-.32-.71-.48-1.09-.48"/><path class="cls-1" d="M25.18,307.55c-.46,0-.94.24-1.4.72-.83.87-.86,1.77-.11,2.49.35.33.72.5,1.11.5.46,0,.93-.24,1.38-.71.84-.88.87-1.78.11-2.51-.34-.32-.71-.48-1.09-.48"/><path class="cls-1" d="M5.62,308.01c-.41,0-.79.18-1.14.55-.72.75-.64,1.65.24,2.49.45.43.92.65,1.36.65.4,0,.79-.18,1.13-.54.73-.76.66-1.66-.21-2.49-.46-.44-.92-.66-1.37-.66"/><path class="cls-1" d="M24.3,288.42c-.41,0-.79.18-1.14.55-.71.75-.64,1.65.24,2.49.45.43.92.65,1.36.65.4,0,.79-.18,1.13-.54.73-.76.66-1.66-.21-2.49-.46-.44-.93-.66-1.37-.66"/><path class="cls-1" d="M15.17,278.09c-1.2,0-1.87.6-1.87,1.64s.67,1.66,1.87,1.66,1.89-.6,1.89-1.66-.67-1.64-1.89-1.64"/><path class="cls-1" d="M15.17,318.79c-1.2,0-1.87.6-1.87,1.64s.67,1.66,1.87,1.66,1.89-.6,1.89-1.66-.67-1.64-1.89-1.64"/><path class="cls-1" d="M35.47,298.18c-1.04,0-1.64.67-1.64,1.89s.6,1.87,1.64,1.87,1.66-.67,1.66-1.87-.6-1.89-1.66-1.89"/><path class="cls-1" d="M15.17,250.95c-1.2,0-1.87.6-1.87,1.64s.67,1.66,1.87,1.66,1.89-.6,1.89-1.66-.67-1.64-1.89-1.64"/><path class="cls-1" d="M15.17,244.19c-1.2,0-1.87.6-1.87,1.64s.67,1.66,1.87,1.66,1.89-.6,1.89-1.66-.67-1.64-1.89-1.64"/><path class="cls-1" d="M15.17,264.49c-1.2,0-1.87.6-1.87,1.64s.67,1.66,1.87,1.66,1.89-.6,1.89-1.66-.67-1.64-1.89-1.64"/><path class="cls-1" d="M16.47,258.07c.23.32.36.76.36,1.31s-.12.97-.35,1.28c.38-.28.58-.72.58-1.3s-.2-1.01-.59-1.29M13.89,258.07c-.39.28-.59.72-.59,1.29s.2,1.02.58,1.3c-.23-.31-.35-.74-.35-1.28s.12-.99.35-1.31"/><path class="cls-1" d="M15.17,271.26c-1.2,0-1.87.6-1.87,1.64s.67,1.66,1.87,1.66,1.89-.6,1.89-1.66-.67-1.64-1.89-1.64"/><path class="cls-1" d="M8.41,257.49c-1.04,0-1.64.67-1.64,1.89s.6,1.87,1.64,1.87,1.66-.67,1.66-1.87-.6-1.89-1.66-1.89"/><path class="cls-1" d="M1.64,257.49c-1.04,0-1.64.67-1.64,1.89s.6,1.87,1.64,1.87,1.66-.67,1.66-1.87-.6-1.89-1.66-1.89"/><path class="cls-1" d="M21.94,257.49c-1.04,0-1.64.67-1.64,1.89s.6,1.87,1.64,1.87,1.66-.67,1.66-1.87-.6-1.89-1.66-1.89"/><path class="cls-1" d="M10.53,252.81c-.46,0-.94.24-1.4.71-.84.86-.87,1.76-.13,2.49.35.34.73.51,1.11.51.46,0,.93-.23,1.38-.7.85-.88.88-1.78.13-2.51-.34-.33-.71-.49-1.09-.49"/><path class="cls-1" d="M20.25,262.22c-.46,0-.94.24-1.4.71-.84.86-.87,1.76-.13,2.49.35.34.73.51,1.11.51.46,0,.93-.23,1.38-.7.85-.88.88-1.78.13-2.51-.34-.33-.71-.49-1.09-.49"/><path class="cls-1" d="M10.25,262.39c-.4,0-.79.18-1.14.54-.72.74-.66,1.64.22,2.49.45.44.92.66,1.36.66.4,0,.78-.18,1.12-.53.73-.76.67-1.66-.2-2.49-.46-.45-.93-.67-1.37-.67"/><path class="cls-1" d="M19.67,252.66c-.4,0-.79.18-1.14.54-.72.74-.66,1.64.22,2.49.45.44.92.66,1.36.66.4,0,.78-.18,1.12-.53.73-.76.67-1.66-.19-2.49-.46-.45-.93-.67-1.37-.67"/><path class="cls-1" d="M15.17,257.49c-.57,0-1,.2-1.28.58-.23.32-.35.76-.35,1.31s.12.97.35,1.28c.28.38.72.59,1.29.59s1.03-.21,1.31-.59c.23-.31.35-.74.35-1.28s-.12-.99-.36-1.31c-.28-.38-.72-.59-1.3-.59"/><path class="cls-1" d="M28.71,257.49c-1.04,0-1.64.67-1.64,1.89s.6,1.87,1.64,1.87,1.66-.67,1.66-1.87-.6-1.89-1.66-1.89"/><path class="cls-1" d="M5.59,248.17c-.46,0-.94.24-1.4.72-.83.87-.86,1.77-.11,2.49.35.33.72.5,1.11.5.46,0,.93-.24,1.38-.71.84-.88.87-1.78.11-2.51-.34-.32-.71-.48-1.09-.48"/><path class="cls-1" d="M25.18,266.85c-.46,0-.94.24-1.4.72-.83.87-.86,1.77-.11,2.49.35.33.72.5,1.11.5.46,0,.93-.24,1.38-.71.84-.88.87-1.78.11-2.51-.34-.32-.71-.48-1.09-.48"/><path class="cls-1" d="M5.62,267.32c-.41,0-.79.18-1.14.55-.72.75-.64,1.65.24,2.49.45.43.92.65,1.36.65.4,0,.79-.18,1.13-.54.73-.76.66-1.66-.21-2.49-.46-.44-.92-.66-1.37-.66"/><path class="cls-1" d="M24.3,247.73c-.41,0-.79.18-1.14.55-.71.75-.64,1.65.24,2.49.45.43.92.65,1.36.65.4,0,.79-.18,1.13-.54.73-.76.66-1.66-.21-2.49-.46-.44-.93-.66-1.37-.66"/><path class="cls-1" d="M35.47,257.49c-1.04,0-1.64.67-1.64,1.89s.6,1.87,1.64,1.87,1.66-.67,1.66-1.87-.6-1.89-1.66-1.89"/><path class="cls-1" d="M15.17,373c-1.2,0-1.87.6-1.87,1.64s.67,1.66,1.87,1.66,1.89-.6,1.89-1.66-.67-1.64-1.89-1.64"/><path class="cls-1" d="M15.17,366.23c-1.2,0-1.87.6-1.87,1.64s.67,1.66,1.87,1.66,1.89-.6,1.89-1.66-.67-1.64-1.89-1.64"/><path class="cls-1" d="M15.17,386.54c-1.2,0-1.87.6-1.87,1.64s.67,1.66,1.87,1.66,1.89-.6,1.89-1.66-.67-1.64-1.89-1.64"/><path class="cls-1" d="M16.47,380.12c.23.32.36.76.36,1.31s-.12.97-.35,1.28c.38-.28.58-.72.58-1.3s-.2-1.01-.59-1.29M13.89,380.12c-.39.28-.59.72-.59,1.29s.2,1.02.58,1.3c-.23-.31-.35-.74-.35-1.28s.12-.99.35-1.31"/><path class="cls-1" d="M15.17,393.31c-1.2,0-1.87.6-1.87,1.64s.67,1.66,1.87,1.66,1.89-.6,1.89-1.66-.67-1.64-1.89-1.64"/><path class="cls-1" d="M8.41,379.53c-1.04,0-1.64.67-1.64,1.89s.6,1.87,1.64,1.87,1.66-.67,1.66-1.87-.6-1.89-1.66-1.89"/><path class="cls-1" d="M1.64,379.53c-1.04,0-1.64.67-1.64,1.89s.6,1.87,1.64,1.87,1.66-.67,1.66-1.87-.6-1.89-1.66-1.89"/><path class="cls-1" d="M21.94,379.53c-1.04,0-1.64.67-1.64,1.89s.6,1.87,1.64,1.87,1.66-.67,1.66-1.87-.6-1.89-1.66-1.89"/><path class="cls-1" d="M10.53,374.86c-.46,0-.94.24-1.4.71-.84.86-.87,1.76-.13,2.49.35.34.73.51,1.11.51.46,0,.93-.23,1.38-.7.85-.88.88-1.78.13-2.51-.34-.33-.71-.49-1.09-.49"/><path class="cls-1" d="M20.25,384.27c-.46,0-.94.24-1.4.71-.84.86-.87,1.76-.13,2.49.35.34.73.51,1.11.51.46,0,.93-.23,1.38-.7.85-.88.88-1.78.13-2.51-.34-.33-.71-.49-1.09-.49"/><path class="cls-1" d="M10.25,384.44c-.4,0-.79.18-1.14.54-.72.74-.66,1.64.22,2.49.45.44.92.66,1.36.66.4,0,.78-.18,1.12-.53.73-.76.67-1.66-.2-2.49-.46-.45-.93-.67-1.37-.67"/><path class="cls-1" d="M19.67,374.71c-.4,0-.79.18-1.14.54-.72.74-.66,1.64.22,2.49.45.44.92.66,1.36.66.4,0,.78-.18,1.12-.53.73-.76.67-1.66-.19-2.49-.46-.45-.93-.67-1.37-.67"/><path class="cls-1" d="M15.17,379.53c-.57,0-1,.2-1.28.58-.23.32-.35.76-.35,1.31s.12.97.35,1.28c.28.38.72.59,1.29.59s1.03-.21,1.31-.59c.23-.31.35-.74.35-1.28s-.12-.99-.36-1.31c-.28-.38-.72-.59-1.3-.59"/><path class="cls-1" d="M28.71,379.53c-1.04,0-1.64.67-1.64,1.89s.6,1.87,1.64,1.87,1.66-.67,1.66-1.87-.6-1.89-1.66-1.89"/><path class="cls-1" d="M5.59,370.22c-.46,0-.94.24-1.4.72-.83.87-.86,1.77-.11,2.49.35.33.72.5,1.11.5.46,0,.93-.24,1.38-.71.84-.88.87-1.78.11-2.51-.34-.32-.71-.48-1.09-.48"/><path class="cls-1" d="M25.18,388.9c-.46,0-.94.24-1.4.72-.83.87-.86,1.77-.11,2.49.35.33.72.5,1.11.5.46,0,.93-.24,1.38-.71.84-.88.87-1.78.11-2.51-.34-.32-.71-.48-1.09-.48"/><path class="cls-1" d="M5.62,389.37c-.41,0-.79.18-1.14.55-.72.75-.64,1.65.24,2.49.45.43.92.65,1.36.65.4,0,.79-.18,1.13-.54.73-.76.66-1.66-.21-2.49-.46-.44-.92-.66-1.37-.66"/><path class="cls-1" d="M24.3,369.78c-.41,0-.79.18-1.14.55-.71.75-.64,1.65.24,2.49.45.43.92.65,1.36.65.4,0,.79-.18,1.13-.54.73-.76.66-1.66-.21-2.49-.46-.44-.93-.66-1.37-.66"/><path class="cls-1" d="M15.17,359.45c-1.2,0-1.87.6-1.87,1.64s.67,1.66,1.87,1.66,1.89-.6,1.89-1.66-.67-1.64-1.89-1.64"/><path class="cls-1" d="M15.17,400.15c-1.2,0-1.87.6-1.87,1.64s.67,1.66,1.87,1.66,1.89-.6,1.89-1.66-.67-1.64-1.89-1.64"/><path class="cls-1" d="M35.47,379.53c-1.04,0-1.64.67-1.64,1.89s.6,1.87,1.64,1.87,1.66-.67,1.66-1.87-.6-1.89-1.66-1.89"/><path class="cls-1" d="M15.17,332.31c-1.2,0-1.87.6-1.87,1.64s.67,1.66,1.87,1.66,1.89-.6,1.89-1.66-.67-1.64-1.89-1.64"/><path class="cls-1" d="M15.17,325.54c-1.2,0-1.87.6-1.87,1.64s.67,1.66,1.87,1.66,1.89-.6,1.89-1.66-.67-1.64-1.89-1.64"/><path class="cls-1" d="M15.17,345.85c-1.2,0-1.87.6-1.87,1.64s.67,1.66,1.87,1.66,1.89-.6,1.89-1.66-.67-1.64-1.89-1.64"/><path class="cls-1" d="M16.47,339.43c.23.32.36.76.36,1.31s-.12.97-.35,1.28c.38-.28.58-.72.58-1.3s-.2-1.01-.59-1.29M13.89,339.43c-.39.28-.59.72-.59,1.29s.2,1.02.58,1.3c-.23-.31-.35-.74-.35-1.28s.12-.99.35-1.31"/><path class="cls-1" d="M15.17,352.62c-1.2,0-1.87.6-1.87,1.64s.67,1.66,1.87,1.66,1.89-.6,1.89-1.66-.67-1.64-1.89-1.64"/><path class="cls-1" d="M8.41,338.84c-1.04,0-1.64.67-1.64,1.89s.6,1.87,1.64,1.87,1.66-.67,1.66-1.87-.6-1.89-1.66-1.89"/><path class="cls-1" d="M1.64,338.84c-1.04,0-1.64.67-1.64,1.89s.6,1.87,1.64,1.87,1.66-.67,1.66-1.87-.6-1.89-1.66-1.89"/><path class="cls-1" d="M21.94,338.84c-1.04,0-1.64.67-1.64,1.89s.6,1.87,1.64,1.87,1.66-.67,1.66-1.87-.6-1.89-1.66-1.89"/><path class="cls-1" d="M10.53,334.17c-.46,0-.94.24-1.4.71-.84.86-.87,1.76-.13,2.49.35.34.73.51,1.11.51.46,0,.93-.23,1.38-.7.85-.88.88-1.78.13-2.51-.34-.33-.71-.49-1.09-.49"/><path class="cls-1" d="M20.25,343.58c-.46,0-.94.24-1.4.71-.84.86-.87,1.76-.13,2.49.35.34.73.51,1.11.51.46,0,.93-.23,1.38-.7.85-.88.88-1.78.13-2.51-.34-.33-.71-.49-1.09-.49"/><path class="cls-1" d="M10.25,343.75c-.4,0-.79.18-1.14.54-.72.74-.66,1.64.22,2.49.45.44.92.66,1.36.66.4,0,.78-.18,1.12-.53.73-.76.67-1.66-.2-2.49-.46-.45-.93-.67-1.37-.67"/><path class="cls-1" d="M19.67,334.02c-.4,0-.79.18-1.14.54-.72.74-.66,1.64.22,2.49.45.44.92.66,1.36.66.4,0,.78-.18,1.12-.53.73-.76.67-1.66-.19-2.49-.46-.45-.93-.67-1.37-.67"/><path class="cls-1" d="M15.17,338.84c-.57,0-1,.2-1.28.58-.23.32-.35.76-.35,1.31s.12.97.35,1.28c.28.38.72.59,1.29.59s1.03-.21,1.31-.59c.23-.31.35-.74.35-1.28s-.12-.99-.36-1.31c-.28-.38-.72-.59-1.3-.59"/><path class="cls-1" d="M28.71,338.84c-1.04,0-1.64.67-1.64,1.89s.6,1.87,1.64,1.87,1.66-.67,1.66-1.87-.6-1.89-1.66-1.89"/><path class="cls-1" d="M5.59,329.53c-.46,0-.94.24-1.4.72-.83.87-.86,1.77-.11,2.49.35.33.72.5,1.11.5.46,0,.93-.24,1.38-.71.84-.88.87-1.78.11-2.51-.34-.32-.71-.48-1.09-.48"/><path class="cls-1" d="M25.18,348.21c-.46,0-.94.24-1.4.72-.83.87-.86,1.77-.11,2.49.35.33.72.5,1.11.5.46,0,.93-.24,1.38-.71.84-.88.87-1.78.11-2.51-.34-.32-.71-.48-1.09-.48"/><path class="cls-1" d="M5.62,348.68c-.41,0-.79.18-1.14.55-.72.75-.64,1.65.24,2.49.45.43.92.65,1.36.65.4,0,.79-.18,1.13-.54.73-.76.66-1.66-.21-2.49-.46-.44-.92-.66-1.37-.66"/><path class="cls-1" d="M24.3,329.09c-.41,0-.79.18-1.14.55-.71.75-.64,1.65.24,2.49.45.43.92.65,1.36.65.4,0,.79-.18,1.13-.54.73-.76.66-1.66-.21-2.49-.46-.44-.93-.66-1.37-.66"/><path class="cls-1" d="M35.47,338.84c-1.04,0-1.64.67-1.64,1.89s.6,1.87,1.64,1.87,1.66-.67,1.66-1.87-.6-1.89-1.66-1.89"/><path class="cls-1" d="M15.17,454.39c-1.2,0-1.87.6-1.87,1.64s.67,1.66,1.87,1.66,1.89-.6,1.89-1.66-.67-1.64-1.89-1.64"/><path class="cls-1" d="M15.17,447.62c-1.2,0-1.87.6-1.87,1.64s.67,1.66,1.87,1.66,1.89-.6,1.89-1.66-.67-1.64-1.89-1.64"/><path class="cls-1" d="M15.17,467.93c-1.2,0-1.87.6-1.87,1.64s.67,1.66,1.87,1.66,1.89-.6,1.89-1.66-.67-1.64-1.89-1.64"/><path class="cls-1" d="M16.47,461.51c.23.32.36.76.36,1.31s-.12.97-.35,1.28c.38-.28.58-.72.58-1.3s-.2-1.01-.59-1.29M13.89,461.51c-.39.28-.59.72-.59,1.29s.2,1.02.58,1.3c-.23-.31-.35-.74-.35-1.28s.12-.99.35-1.31"/><path class="cls-1" d="M15.17,474.7c-1.2,0-1.87.6-1.87,1.64s.67,1.66,1.87,1.66,1.89-.6,1.89-1.66-.67-1.64-1.89-1.64"/><path class="cls-1" d="M8.41,460.92c-1.04,0-1.64.67-1.64,1.89s.6,1.87,1.64,1.87,1.66-.67,1.66-1.87-.6-1.89-1.66-1.89"/><path class="cls-1" d="M1.64,460.92c-1.04,0-1.64.67-1.64,1.89s.6,1.87,1.64,1.87,1.66-.67,1.66-1.87-.6-1.89-1.66-1.89"/><path class="cls-1" d="M21.94,460.92c-1.04,0-1.64.67-1.64,1.89s.6,1.87,1.64,1.87,1.66-.67,1.66-1.87-.6-1.89-1.66-1.89"/><path class="cls-1" d="M10.53,456.25c-.46,0-.94.24-1.4.71-.84.86-.87,1.76-.13,2.49.35.34.73.51,1.11.51.46,0,.93-.23,1.38-.7.85-.88.88-1.78.13-2.51-.34-.33-.71-.49-1.09-.49"/><path class="cls-1" d="M20.25,465.66c-.46,0-.94.24-1.4.71-.84.86-.87,1.76-.13,2.49.35.34.73.51,1.11.51.46,0,.93-.23,1.38-.7.85-.88.88-1.78.13-2.51-.34-.33-.71-.49-1.09-.49"/><path class="cls-1" d="M10.25,465.83c-.4,0-.79.18-1.14.54-.72.74-.66,1.64.22,2.49.45.44.92.66,1.36.66.4,0,.78-.18,1.12-.53.73-.76.67-1.66-.2-2.49-.46-.45-.93-.67-1.37-.67"/><path class="cls-1" d="M19.67,456.1c-.4,0-.79.18-1.14.54-.72.74-.66,1.64.22,2.49.45.44.92.66,1.36.66.4,0,.78-.18,1.12-.53.73-.76.67-1.66-.19-2.49-.46-.45-.93-.67-1.37-.67"/><path class="cls-1" d="M15.17,460.92c-.57,0-1,.2-1.28.58-.23.32-.35.76-.35,1.31s.12.97.35,1.28c.28.38.72.59,1.29.59s1.03-.21,1.31-.59c.23-.31.35-.74.35-1.28s-.12-.99-.36-1.31c-.28-.38-.72-.59-1.3-.59"/><path class="cls-1" d="M28.71,460.92c-1.04,0-1.64.67-1.64,1.89s.6,1.87,1.64,1.87,1.66-.67,1.66-1.87-.6-1.89-1.66-1.89"/><path class="cls-1" d="M5.59,451.61c-.46,0-.94.24-1.4.72-.83.87-.86,1.77-.11,2.49.35.33.72.5,1.11.5.46,0,.93-.24,1.38-.71.84-.88.87-1.78.11-2.51-.34-.32-.71-.48-1.09-.48"/><path class="cls-1" d="M25.18,470.29c-.46,0-.94.24-1.4.72-.83.87-.86,1.77-.11,2.49.35.33.72.5,1.11.5.46,0,.93-.24,1.38-.71.84-.88.87-1.78.11-2.51-.34-.32-.71-.48-1.09-.48"/><path class="cls-1" d="M5.62,470.76c-.41,0-.79.18-1.14.55-.72.75-.64,1.65.24,2.49.45.43.92.65,1.36.65.4,0,.79-.18,1.13-.54.73-.76.66-1.66-.21-2.49-.46-.44-.92-.66-1.37-.66"/><path class="cls-1" d="M24.3,451.17c-.41,0-.79.18-1.14.55-.71.75-.64,1.65.24,2.49.45.43.92.65,1.36.65.4,0,.79-.18,1.13-.54.73-.76.66-1.66-.21-2.49-.46-.44-.93-.66-1.37-.66"/><path class="cls-1" d="M15.17,440.84c-1.2,0-1.87.6-1.87,1.64s.67,1.66,1.87,1.66,1.89-.6,1.89-1.66-.67-1.64-1.89-1.64"/><path class="cls-1" d="M15.17,481.54c-1.2,0-1.87.6-1.87,1.64s.67,1.66,1.87,1.66,1.89-.6,1.89-1.66-.67-1.64-1.89-1.64"/><path class="cls-1" d="M35.47,460.92c-1.04,0-1.64.67-1.64,1.89s.6,1.87,1.64,1.87,1.66-.67,1.66-1.87-.6-1.89-1.66-1.89"/><path class="cls-1" d="M15.17,413.7c-1.2,0-1.87.6-1.87,1.64s.67,1.66,1.87,1.66,1.89-.6,1.89-1.66-.67-1.64-1.89-1.64"/><path class="cls-1" d="M15.17,406.93c-1.2,0-1.87.6-1.87,1.64s.67,1.66,1.87,1.66,1.89-.6,1.89-1.66-.67-1.64-1.89-1.64"/><path class="cls-1" d="M15.17,427.24c-1.2,0-1.87.6-1.87,1.64s.67,1.66,1.87,1.66,1.89-.6,1.89-1.66-.67-1.64-1.89-1.64"/><path class="cls-1" d="M16.47,420.82c.23.32.36.76.36,1.31s-.12.97-.35,1.28c.38-.28.58-.72.58-1.3s-.2-1.01-.59-1.29M13.89,420.82c-.39.28-.59.72-.59,1.29s.2,1.02.58,1.3c-.23-.31-.35-.74-.35-1.28s.12-.99.35-1.31"/><path class="cls-1" d="M15.17,434.01c-1.2,0-1.87.6-1.87,1.64s.67,1.66,1.87,1.66,1.89-.6,1.89-1.66-.67-1.64-1.89-1.64"/><path class="cls-1" d="M8.41,420.23c-1.04,0-1.64.67-1.64,1.89s.6,1.87,1.64,1.87,1.66-.67,1.66-1.87-.6-1.89-1.66-1.89"/><path class="cls-1" d="M1.64,420.23c-1.04,0-1.64.67-1.64,1.89s.6,1.87,1.64,1.87,1.66-.67,1.66-1.87-.6-1.89-1.66-1.89"/><path class="cls-1" d="M21.94,420.23c-1.04,0-1.64.67-1.64,1.89s.6,1.87,1.64,1.87,1.66-.67,1.66-1.87-.6-1.89-1.66-1.89"/><path class="cls-1" d="M10.53,415.56c-.46,0-.94.24-1.4.71-.84.86-.87,1.76-.13,2.49.35.34.73.51,1.11.51.46,0,.93-.23,1.38-.7.85-.88.88-1.78.13-2.51-.34-.33-.71-.49-1.09-.49"/><path class="cls-1" d="M20.25,424.97c-.46,0-.94.24-1.4.71-.84.86-.87,1.76-.13,2.49.35.34.73.51,1.11.51.46,0,.93-.23,1.38-.7.85-.88.88-1.78.13-2.51-.34-.33-.71-.49-1.09-.49"/><path class="cls-1" d="M10.25,425.14c-.4,0-.79.18-1.14.54-.72.74-.66,1.64.22,2.49.45.44.92.66,1.36.66.4,0,.78-.18,1.12-.53.73-.76.67-1.66-.2-2.49-.46-.45-.93-.67-1.37-.67"/><path class="cls-1" d="M19.67,415.41c-.4,0-.79.18-1.14.54-.72.74-.66,1.64.22,2.49.45.44.92.66,1.36.66.4,0,.78-.18,1.12-.53.73-.76.67-1.66-.19-2.49-.46-.45-.93-.67-1.37-.67"/><path class="cls-1" d="M15.17,420.23c-.57,0-1,.2-1.28.58-.23.32-.35.76-.35,1.31s.12.97.35,1.28c.28.38.72.59,1.29.59s1.03-.21,1.31-.59c.23-.31.35-.74.35-1.28s-.12-.99-.36-1.31c-.28-.38-.72-.59-1.3-.59"/><path class="cls-1" d="M28.71,420.23c-1.04,0-1.64.67-1.64,1.89s.6,1.87,1.64,1.87,1.66-.67,1.66-1.87-.6-1.89-1.66-1.89"/><path class="cls-1" d="M5.59,410.92c-.46,0-.94.24-1.4.72-.83.87-.86,1.77-.11,2.49.35.33.72.5,1.11.5.46,0,.93-.24,1.38-.71.84-.88.87-1.78.11-2.51-.34-.32-.71-.48-1.09-.48"/><path class="cls-1" d="M25.18,429.6c-.46,0-.94.24-1.4.72-.83.87-.86,1.77-.11,2.49.35.33.72.5,1.11.5.46,0,.93-.24,1.38-.71.84-.88.87-1.78.11-2.51-.34-.32-.71-.48-1.09-.48"/><path class="cls-1" d="M5.62,430.07c-.41,0-.79.18-1.14.55-.72.75-.64,1.65.24,2.49.45.43.92.65,1.36.65.4,0,.79-.18,1.13-.54.73-.76.66-1.66-.21-2.49-.46-.44-.92-.66-1.37-.66"/><path class="cls-1" d="M24.3,410.48c-.41,0-.79.18-1.14.55-.71.75-.64,1.65.24,2.49.45.43.92.65,1.36.65.4,0,.79-.18,1.13-.54.73-.76.66-1.66-.21-2.49-.46-.44-.93-.66-1.37-.66"/><path class="cls-1" d="M35.47,420.23c-1.04,0-1.64.67-1.64,1.89s.6,1.87,1.64,1.87,1.66-.67,1.66-1.87-.6-1.89-1.66-1.89"/><path class="cls-1" d="M15.17,535.8c-1.2,0-1.87.6-1.87,1.64s.67,1.66,1.87,1.66,1.89-.6,1.89-1.66-.67-1.64-1.89-1.64"/><path class="cls-1" d="M15.17,529.03c-1.2,0-1.87.6-1.87,1.64s.67,1.66,1.87,1.66,1.89-.6,1.89-1.66-.67-1.64-1.89-1.64"/><path class="cls-1" d="M15.17,549.33c-1.2,0-1.87.6-1.87,1.64s.67,1.66,1.87,1.66,1.89-.6,1.89-1.66-.67-1.64-1.89-1.64"/><path class="cls-1" d="M16.47,542.91c.23.32.36.76.36,1.31s-.12.97-.35,1.28c.38-.28.58-.72.58-1.3s-.2-1.01-.59-1.29M13.89,542.91c-.39.28-.59.72-.59,1.29s.2,1.02.58,1.3c-.23-.31-.35-.74-.35-1.28s.12-.99.35-1.31"/><path class="cls-1" d="M15.17,556.1c-1.2,0-1.87.6-1.87,1.64s.67,1.66,1.87,1.66,1.89-.6,1.89-1.66-.67-1.64-1.89-1.64"/><path class="cls-1" d="M8.41,542.33c-1.04,0-1.64.67-1.64,1.89s.6,1.87,1.64,1.87,1.66-.67,1.66-1.87-.6-1.89-1.66-1.89"/><path class="cls-1" d="M1.64,542.33c-1.04,0-1.64.67-1.64,1.89s.6,1.87,1.64,1.87,1.66-.67,1.66-1.87-.6-1.89-1.66-1.89"/><path class="cls-1" d="M21.94,542.33c-1.04,0-1.64.67-1.64,1.89s.6,1.87,1.64,1.87,1.66-.67,1.66-1.87-.6-1.89-1.66-1.89"/><path class="cls-1" d="M10.53,537.65c-.46,0-.94.24-1.4.71-.84.86-.87,1.76-.13,2.49.35.34.73.51,1.11.51.46,0,.93-.23,1.38-.7.85-.88.88-1.78.13-2.51-.34-.33-.71-.49-1.09-.49"/><path class="cls-1" d="M20.25,547.07c-.46,0-.94.24-1.4.71-.84.86-.87,1.76-.13,2.49.35.34.73.51,1.11.51.46,0,.93-.23,1.38-.7.85-.88.88-1.78.13-2.51-.34-.33-.71-.49-1.09-.49"/><path class="cls-1" d="M10.25,547.23c-.4,0-.79.18-1.14.54-.72.74-.66,1.64.22,2.49.45.44.92.66,1.36.66.4,0,.78-.18,1.12-.53.73-.76.67-1.66-.2-2.49-.46-.45-.93-.67-1.37-.67"/><path class="cls-1" d="M19.67,537.51c-.4,0-.79.18-1.14.54-.72.74-.66,1.64.22,2.49.45.44.92.66,1.36.66.4,0,.78-.18,1.12-.53.73-.76.67-1.66-.19-2.49-.46-.45-.93-.67-1.37-.67"/><path class="cls-1" d="M15.17,542.33c-.57,0-1,.2-1.28.58-.23.32-.35.76-.35,1.31s.12.97.35,1.28c.28.38.72.59,1.29.59s1.03-.21,1.31-.59c.23-.31.35-.74.35-1.28s-.12-.99-.36-1.31c-.28-.38-.72-.59-1.3-.59"/><path class="cls-1" d="M28.71,542.33c-1.04,0-1.64.67-1.64,1.89s.6,1.87,1.64,1.87,1.66-.67,1.66-1.87-.6-1.89-1.66-1.89"/><path class="cls-1" d="M5.59,533.02c-.46,0-.94.24-1.4.72-.83.87-.86,1.77-.11,2.49.35.33.72.5,1.11.5.46,0,.93-.24,1.38-.71.84-.88.87-1.78.11-2.51-.34-.32-.71-.48-1.09-.48"/><path class="cls-1" d="M25.18,551.7c-.46,0-.94.24-1.4.72-.83.87-.86,1.77-.11,2.49.35.33.72.5,1.11.5.46,0,.93-.24,1.38-.71.84-.88.87-1.78.11-2.51-.34-.32-.71-.48-1.09-.48"/><path class="cls-1" d="M5.62,552.17c-.41,0-.79.18-1.14.55-.72.75-.64,1.65.24,2.49.45.43.92.65,1.36.65.4,0,.79-.18,1.13-.54.73-.76.66-1.66-.21-2.49-.46-.44-.92-.66-1.37-.66"/><path class="cls-1" d="M24.3,532.57c-.41,0-.79.18-1.14.55-.71.75-.64,1.65.24,2.49.45.43.92.65,1.36.65.4,0,.79-.18,1.13-.54.73-.76.66-1.66-.21-2.49-.46-.44-.93-.66-1.37-.66"/><path class="cls-1" d="M15.17,522.24c-1.2,0-1.87.6-1.87,1.64s.67,1.66,1.87,1.66,1.89-.6,1.89-1.66-.67-1.64-1.89-1.64"/><path class="cls-1" d="M15.17,562.94c-1.2,0-1.87.6-1.87,1.64s.67,1.66,1.87,1.66,1.89-.6,1.89-1.66-.67-1.64-1.89-1.64"/><path class="cls-1" d="M35.47,542.33c-1.04,0-1.64.67-1.64,1.89s.6,1.87,1.64,1.87,1.66-.67,1.66-1.87-.6-1.89-1.66-1.89"/><path class="cls-1" d="M15.17,495.11c-1.2,0-1.87.6-1.87,1.64s.67,1.66,1.87,1.66,1.89-.6,1.89-1.66-.67-1.64-1.89-1.64"/><path class="cls-1" d="M15.17,488.34c-1.2,0-1.87.6-1.87,1.64s.67,1.66,1.87,1.66,1.89-.6,1.89-1.66-.67-1.64-1.89-1.64"/><path class="cls-1" d="M15.17,508.64c-1.2,0-1.87.6-1.87,1.64s.67,1.66,1.87,1.66,1.89-.6,1.89-1.66-.67-1.64-1.89-1.64"/><path class="cls-1" d="M16.47,502.22c.23.32.36.76.36,1.31s-.12.97-.35,1.28c.38-.28.58-.72.58-1.3s-.2-1.01-.59-1.29M13.89,502.22c-.39.28-.59.72-.59,1.29s.2,1.02.58,1.3c-.23-.31-.35-.74-.35-1.28s.12-.99.35-1.31"/><path class="cls-1" d="M15.17,515.41c-1.2,0-1.87.6-1.87,1.64s.67,1.66,1.87,1.66,1.89-.6,1.89-1.66-.67-1.64-1.89-1.64"/><path class="cls-1" d="M8.41,501.64c-1.04,0-1.64.67-1.64,1.89s.6,1.87,1.64,1.87,1.66-.67,1.66-1.87-.6-1.89-1.66-1.89"/><path class="cls-1" d="M1.64,501.64c-1.04,0-1.64.67-1.64,1.89s.6,1.87,1.64,1.87,1.66-.67,1.66-1.87-.6-1.89-1.66-1.89"/><path class="cls-1" d="M21.94,501.64c-1.04,0-1.64.67-1.64,1.89s.6,1.87,1.64,1.87,1.66-.67,1.66-1.87-.6-1.89-1.66-1.89"/><path class="cls-1" d="M10.53,496.96c-.46,0-.94.24-1.4.71-.84.86-.87,1.76-.13,2.49.35.34.73.51,1.11.51.46,0,.93-.23,1.38-.7.85-.88.88-1.78.13-2.51-.34-.33-.71-.49-1.09-.49"/><path class="cls-1" d="M20.25,506.38c-.46,0-.94.24-1.4.71-.84.86-.87,1.76-.13,2.49.35.34.73.51,1.11.51.46,0,.93-.23,1.38-.7.85-.88.88-1.78.13-2.51-.34-.33-.71-.49-1.09-.49"/><path class="cls-1" d="M10.25,506.54c-.4,0-.79.18-1.14.54-.72.74-.66,1.64.22,2.49.45.44.92.66,1.36.66.4,0,.78-.18,1.12-.53.73-.76.67-1.66-.2-2.49-.46-.45-.93-.67-1.37-.67"/><path class="cls-1" d="M19.67,496.81c-.4,0-.79.18-1.14.54-.72.74-.66,1.64.22,2.49.45.44.92.66,1.36.66.4,0,.78-.18,1.12-.53.73-.76.67-1.66-.19-2.49-.46-.45-.93-.67-1.37-.67"/><path class="cls-1" d="M15.17,501.64c-.57,0-1,.2-1.28.58-.23.32-.35.76-.35,1.31s.12.97.35,1.28c.28.38.72.59,1.29.59s1.03-.21,1.31-.59c.23-.31.35-.74.35-1.28s-.12-.99-.36-1.31c-.28-.38-.72-.59-1.3-.59"/><path class="cls-1" d="M28.71,501.64c-1.04,0-1.64.67-1.64,1.89s.6,1.87,1.64,1.87,1.66-.67,1.66-1.87-.6-1.89-1.66-1.89"/><path class="cls-1" d="M5.59,492.33c-.46,0-.94.24-1.4.72-.83.87-.86,1.77-.11,2.49.35.33.72.5,1.11.5.46,0,.93-.24,1.38-.71.84-.88.87-1.78.11-2.51-.34-.32-.71-.48-1.09-.48"/><path class="cls-1" d="M25.18,511.01c-.46,0-.94.24-1.4.72-.83.87-.86,1.77-.11,2.49.35.33.72.5,1.11.5.46,0,.93-.24,1.38-.71.84-.88.87-1.78.11-2.51-.34-.32-.71-.48-1.09-.48"/><path class="cls-1" d="M5.62,511.48c-.41,0-.79.18-1.14.55-.72.75-.64,1.65.24,2.49.45.43.92.65,1.36.65.4,0,.79-.18,1.13-.54.73-.76.66-1.66-.21-2.49-.46-.44-.92-.66-1.37-.66"/><path class="cls-1" d="M24.3,491.88c-.41,0-.79.18-1.14.55-.71.75-.64,1.65.24,2.49.45.43.92.65,1.36.65.4,0,.79-.18,1.13-.54.73-.76.66-1.66-.21-2.49-.46-.44-.93-.66-1.37-.66"/><path class="cls-1" d="M35.47,501.64c-1.04,0-1.64.67-1.64,1.89s.6,1.87,1.64,1.87,1.66-.67,1.66-1.87-.6-1.89-1.66-1.89"/><path class="cls-1" d="M15.17,617.19c-1.2,0-1.87.6-1.87,1.64s.67,1.66,1.87,1.66,1.89-.6,1.89-1.66-.67-1.64-1.89-1.64"/><path class="cls-1" d="M15.17,610.42c-1.2,0-1.87.6-1.87,1.64s.67,1.66,1.87,1.66,1.89-.6,1.89-1.66-.67-1.64-1.89-1.64"/><path class="cls-1" d="M15.17,630.72c-1.2,0-1.87.6-1.87,1.64s.67,1.66,1.87,1.66,1.89-.6,1.89-1.66-.67-1.64-1.89-1.64"/><path class="cls-1" d="M16.47,624.3c.23.32.36.76.36,1.31s-.12.97-.35,1.28c.38-.28.58-.72.58-1.3s-.2-1.01-.59-1.29M13.89,624.3c-.39.28-.59.72-.59,1.29s.2,1.02.58,1.3c-.23-.31-.35-.74-.35-1.28s.12-.99.35-1.31"/><path class="cls-1" d="M15.17,637.49c-1.2,0-1.87.6-1.87,1.64s.67,1.66,1.87,1.66,1.89-.6,1.89-1.66-.67-1.64-1.89-1.64"/><path class="cls-1" d="M8.41,623.72c-1.04,0-1.64.67-1.64,1.89s.6,1.87,1.64,1.87,1.66-.67,1.66-1.87-.6-1.89-1.66-1.89"/><path class="cls-1" d="M1.64,623.72c-1.04,0-1.64.67-1.64,1.89s.6,1.87,1.64,1.87,1.66-.67,1.66-1.87-.6-1.89-1.66-1.89"/><path class="cls-1" d="M21.94,623.72c-1.04,0-1.64.67-1.64,1.89s.6,1.87,1.64,1.87,1.66-.67,1.66-1.87-.6-1.89-1.66-1.89"/><path class="cls-1" d="M10.53,619.04c-.46,0-.94.24-1.4.71-.84.86-.87,1.76-.13,2.49.35.34.73.51,1.11.51.46,0,.93-.23,1.38-.7.85-.88.88-1.78.13-2.51-.34-.33-.71-.49-1.09-.49"/><path class="cls-1" d="M20.25,628.46c-.46,0-.94.24-1.4.71-.84.86-.87,1.76-.13,2.49.35.34.73.51,1.11.51.46,0,.93-.23,1.38-.7.85-.88.88-1.78.13-2.51-.34-.33-.71-.49-1.09-.49"/><path class="cls-1" d="M10.25,628.62c-.4,0-.79.18-1.14.54-.72.74-.66,1.64.22,2.49.45.44.92.66,1.36.66.4,0,.78-.18,1.12-.53.73-.76.67-1.66-.2-2.49-.46-.45-.93-.67-1.37-.67"/><path class="cls-1" d="M19.67,618.9c-.4,0-.79.18-1.14.54-.72.74-.66,1.64.22,2.49.45.44.92.66,1.36.66.4,0,.78-.18,1.12-.53.73-.76.67-1.66-.19-2.49-.46-.45-.93-.67-1.37-.67"/><path class="cls-1" d="M15.17,623.72c-.57,0-1,.2-1.28.58-.23.32-.35.76-.35,1.31s.12.97.35,1.28c.28.38.72.59,1.29.59s1.03-.21,1.31-.59c.23-.31.35-.74.35-1.28s-.12-.99-.36-1.31c-.28-.38-.72-.59-1.3-.59"/><path class="cls-1" d="M28.71,623.72c-1.04,0-1.64.67-1.64,1.89s.6,1.87,1.64,1.87,1.66-.67,1.66-1.87-.6-1.89-1.66-1.89"/><path class="cls-1" d="M5.59,614.41c-.46,0-.94.24-1.4.72-.83.87-.86,1.77-.11,2.49.35.33.72.5,1.11.5.46,0,.93-.24,1.38-.71.84-.88.87-1.78.11-2.51-.34-.32-.71-.48-1.09-.48"/><path class="cls-1" d="M25.18,633.09c-.46,0-.94.24-1.4.72-.83.87-.86,1.77-.11,2.49.35.33.72.5,1.11.5.46,0,.93-.24,1.38-.71.84-.88.87-1.78.11-2.51-.34-.32-.71-.48-1.09-.48"/><path class="cls-1" d="M5.62,633.56c-.41,0-.79.18-1.14.55-.72.75-.64,1.65.24,2.49.45.43.92.65,1.36.65.4,0,.79-.18,1.13-.54.73-.76.66-1.66-.21-2.49-.46-.44-.92-.66-1.37-.66"/><path class="cls-1" d="M24.3,613.96c-.41,0-.79.18-1.14.55-.71.75-.64,1.65.24,2.49.45.43.92.65,1.36.65.4,0,.79-.18,1.13-.54.73-.76.66-1.66-.21-2.49-.46-.44-.93-.66-1.37-.66"/><path class="cls-1" d="M15.17,603.63c-1.2,0-1.87.6-1.87,1.64s.67,1.66,1.87,1.66,1.89-.6,1.89-1.66-.67-1.64-1.89-1.64"/><path class="cls-1" d="M15.17,644.33c-1.2,0-1.87.6-1.87,1.64s.67,1.66,1.87,1.66,1.89-.6,1.89-1.66-.67-1.64-1.89-1.64"/><path class="cls-1" d="M35.47,623.72c-1.04,0-1.64.67-1.64,1.89s.6,1.87,1.64,1.87,1.66-.67,1.66-1.87-.6-1.89-1.66-1.89"/><path class="cls-1" d="M15.17,576.5c-1.2,0-1.87.6-1.87,1.64s.67,1.66,1.87,1.66,1.89-.6,1.89-1.66-.67-1.64-1.89-1.64"/><path class="cls-1" d="M15.17,569.73c-1.2,0-1.87.6-1.87,1.64s.67,1.66,1.87,1.66,1.89-.6,1.89-1.66-.67-1.64-1.89-1.64"/><path class="cls-1" d="M15.17,590.03c-1.2,0-1.87.6-1.87,1.64s.67,1.66,1.87,1.66,1.89-.6,1.89-1.66-.67-1.64-1.89-1.64"/><path class="cls-1" d="M16.47,583.61c.23.32.36.76.36,1.31s-.12.97-.35,1.28c.38-.28.58-.72.58-1.3s-.2-1.01-.59-1.29M13.89,583.61c-.39.28-.59.72-.59,1.29s.2,1.02.58,1.3c-.23-.31-.35-.74-.35-1.28s.12-.99.35-1.31"/><path class="cls-1" d="M15.17,596.8c-1.2,0-1.87.6-1.87,1.64s.67,1.66,1.87,1.66,1.89-.6,1.89-1.66-.67-1.64-1.89-1.64"/><path class="cls-1" d="M8.41,583.03c-1.04,0-1.64.67-1.64,1.89s.6,1.87,1.64,1.87,1.66-.67,1.66-1.87-.6-1.89-1.66-1.89"/><path class="cls-1" d="M1.64,583.03c-1.04,0-1.64.67-1.64,1.89s.6,1.87,1.64,1.87,1.66-.67,1.66-1.87-.6-1.89-1.66-1.89"/><path class="cls-1" d="M21.94,583.03c-1.04,0-1.64.67-1.64,1.89s.6,1.87,1.64,1.87,1.66-.67,1.66-1.87-.6-1.89-1.66-1.89"/><path class="cls-1" d="M10.53,578.35c-.46,0-.94.24-1.4.71-.84.86-.87,1.76-.13,2.49.35.34.73.51,1.11.51.46,0,.93-.23,1.38-.7.85-.88.88-1.78.13-2.51-.34-.33-.71-.49-1.09-.49"/><path class="cls-1" d="M20.25,587.77c-.46,0-.94.24-1.4.71-.84.86-.87,1.76-.13,2.49.35.34.73.51,1.11.51.46,0,.93-.23,1.38-.7.85-.88.88-1.78.13-2.51-.34-.33-.71-.49-1.09-.49"/><path class="cls-1" d="M10.25,587.93c-.4,0-.79.18-1.14.54-.72.74-.66,1.64.22,2.49.45.44.92.66,1.36.66.4,0,.78-.18,1.12-.53.73-.76.67-1.66-.2-2.49-.46-.45-.93-.67-1.37-.67"/><path class="cls-1" d="M19.67,578.2c-.4,0-.79.18-1.14.54-.72.74-.66,1.64.22,2.49.45.44.92.66,1.36.66.4,0,.78-.18,1.12-.53.73-.76.67-1.66-.19-2.49-.46-.45-.93-.67-1.37-.67"/><path class="cls-1" d="M15.17,583.03c-.57,0-1,.2-1.28.58-.23.32-.35.76-.35,1.31s.12.97.35,1.28c.28.38.72.59,1.29.59s1.03-.21,1.31-.59c.23-.31.35-.74.35-1.28s-.12-.99-.36-1.31c-.28-.38-.72-.59-1.3-.59"/><path class="cls-1" d="M28.71,583.03c-1.04,0-1.64.67-1.64,1.89s.6,1.87,1.64,1.87,1.66-.67,1.66-1.87-.6-1.89-1.66-1.89"/><path class="cls-1" d="M5.59,573.72c-.46,0-.94.24-1.4.72-.83.87-.86,1.77-.11,2.49.35.33.72.5,1.11.5.46,0,.93-.24,1.38-.71.84-.88.87-1.78.11-2.51-.34-.32-.71-.48-1.09-.48"/><path class="cls-1" d="M25.18,592.4c-.46,0-.94.24-1.4.72-.83.87-.86,1.77-.11,2.49.35.33.72.5,1.11.5.46,0,.93-.24,1.38-.71.84-.88.87-1.78.11-2.51-.34-.32-.71-.48-1.09-.48"/><path class="cls-1" d="M5.62,592.87c-.41,0-.79.18-1.14.55-.72.75-.64,1.65.24,2.49.45.43.92.65,1.36.65.4,0,.79-.18,1.13-.54.73-.76.66-1.66-.21-2.49-.46-.44-.92-.66-1.37-.66"/><path class="cls-1" d="M24.3,573.27c-.41,0-.79.18-1.14.55-.71.75-.64,1.65.24,2.49.45.43.92.65,1.36.65.4,0,.79-.18,1.13-.54.73-.76.66-1.66-.21-2.49-.46-.44-.93-.66-1.37-.66"/><path class="cls-1" d="M35.47,583.03c-1.04,0-1.64.67-1.64,1.89s.6,1.87,1.64,1.87,1.66-.67,1.66-1.87-.6-1.89-1.66-1.89"/><path class="cls-1" d="M15.17,699.03c-1.2,0-1.87.6-1.87,1.64s.67,1.66,1.87,1.66,1.89-.6,1.89-1.66-.67-1.64-1.89-1.64"/><path class="cls-1" d="M15.17,692.26c-1.2,0-1.87.6-1.87,1.64s.67,1.66,1.87,1.66,1.89-.6,1.89-1.66-.67-1.64-1.89-1.64"/><path class="cls-1" d="M15.17,712.56c-1.2,0-1.87.6-1.87,1.64s.67,1.66,1.87,1.66,1.89-.6,1.89-1.66-.67-1.64-1.89-1.64"/><path class="cls-1" d="M16.47,706.14c.23.32.36.76.36,1.31s-.12.97-.35,1.28c.38-.28.58-.72.58-1.3s-.2-1.01-.59-1.29M13.89,706.14c-.39.28-.59.72-.59,1.29s.2,1.02.58,1.3c-.23-.31-.35-.74-.35-1.28s.12-.99.35-1.31"/><path class="cls-1" d="M15.17,719.33c-1.2,0-1.87.6-1.87,1.64s.67,1.66,1.87,1.66,1.89-.6,1.89-1.66-.67-1.64-1.89-1.64"/><path class="cls-1" d="M8.41,705.56c-1.04,0-1.64.67-1.64,1.89s.6,1.87,1.64,1.87,1.66-.67,1.66-1.87-.6-1.89-1.66-1.89"/><path class="cls-1" d="M1.64,705.56c-1.04,0-1.64.67-1.64,1.89s.6,1.87,1.64,1.87,1.66-.67,1.66-1.87-.6-1.89-1.66-1.89"/><path class="cls-1" d="M21.94,705.56c-1.04,0-1.64.67-1.64,1.89s.6,1.87,1.64,1.87,1.66-.67,1.66-1.87-.6-1.89-1.66-1.89"/><path class="cls-1" d="M10.53,700.88c-.46,0-.94.24-1.4.71-.84.86-.87,1.76-.13,2.49.35.34.73.51,1.11.51.46,0,.93-.23,1.38-.7.85-.88.88-1.78.13-2.51-.34-.33-.71-.49-1.09-.49"/><path class="cls-1" d="M20.25,710.3c-.46,0-.94.24-1.4.71-.84.86-.87,1.76-.13,2.49.35.34.73.51,1.11.51.46,0,.93-.23,1.38-.7.85-.88.88-1.78.13-2.51-.34-.33-.71-.49-1.09-.49"/><path class="cls-1" d="M10.25,710.46c-.4,0-.79.18-1.14.54-.72.74-.66,1.64.22,2.49.45.44.92.66,1.36.66.4,0,.78-.18,1.12-.53.73-.76.67-1.66-.2-2.49-.46-.45-.93-.67-1.37-.67"/><path class="cls-1" d="M19.67,700.74c-.4,0-.79.18-1.14.54-.72.74-.66,1.64.22,2.49.45.44.92.66,1.36.66.4,0,.78-.18,1.12-.53.73-.76.67-1.66-.19-2.49-.46-.45-.93-.67-1.37-.67"/><path class="cls-1" d="M15.17,705.56c-.57,0-1,.2-1.28.58-.23.32-.35.76-.35,1.31s.12.97.35,1.28c.28.38.72.59,1.29.59s1.03-.21,1.31-.59c.23-.31.35-.74.35-1.28s-.12-.99-.36-1.31c-.28-.38-.72-.59-1.3-.59"/><path class="cls-1" d="M28.71,705.56c-1.04,0-1.64.67-1.64,1.89s.6,1.87,1.64,1.87,1.66-.67,1.66-1.87-.6-1.89-1.66-1.89"/><path class="cls-1" d="M5.59,696.25c-.46,0-.94.24-1.4.72-.83.87-.86,1.77-.11,2.49.35.33.72.5,1.11.5.46,0,.93-.24,1.38-.71.84-.88.87-1.78.11-2.51-.34-.32-.71-.48-1.09-.48"/><path class="cls-1" d="M25.18,714.93c-.46,0-.94.24-1.4.72-.83.87-.86,1.77-.11,2.49.35.33.72.5,1.11.5.46,0,.93-.24,1.38-.71.84-.88.87-1.78.11-2.51-.34-.32-.71-.48-1.09-.48"/><path class="cls-1" d="M5.62,715.4c-.41,0-.79.18-1.14.55-.72.75-.64,1.65.24,2.49.45.43.92.65,1.36.65.4,0,.79-.18,1.13-.54.73-.76.66-1.66-.21-2.49-.46-.44-.92-.66-1.37-.66"/><path class="cls-1" d="M24.3,695.8c-.41,0-.79.18-1.14.55-.71.75-.64,1.65.24,2.49.45.43.92.65,1.36.65.4,0,.79-.18,1.13-.54.73-.76.66-1.66-.21-2.49-.46-.44-.93-.66-1.37-.66"/><path class="cls-1" d="M15.17,685.47c-1.2,0-1.87.6-1.87,1.64s.67,1.66,1.87,1.66,1.89-.6,1.89-1.66-.67-1.64-1.89-1.64"/><path class="cls-1" d="M15.17,726.17c-1.2,0-1.87.6-1.87,1.64s.67,1.66,1.87,1.66,1.89-.6,1.89-1.66-.67-1.64-1.89-1.64"/><path class="cls-1" d="M35.47,705.56c-1.04,0-1.64.67-1.64,1.89s.6,1.87,1.64,1.87,1.66-.67,1.66-1.87-.6-1.89-1.66-1.89"/><path class="cls-1" d="M15.17,658.34c-1.2,0-1.87.6-1.87,1.64s.67,1.66,1.87,1.66,1.89-.6,1.89-1.66-.67-1.64-1.89-1.64"/><path class="cls-1" d="M15.17,651.57c-1.2,0-1.87.6-1.87,1.64s.67,1.66,1.87,1.66,1.89-.6,1.89-1.66-.67-1.64-1.89-1.64"/><path class="cls-1" d="M15.17,671.87c-1.2,0-1.87.6-1.87,1.64s.67,1.66,1.87,1.66,1.89-.6,1.89-1.66-.67-1.64-1.89-1.64"/><path class="cls-1" d="M16.47,665.45c.23.32.36.76.36,1.31s-.12.97-.35,1.28c.38-.28.58-.72.58-1.3s-.2-1.01-.59-1.29M13.89,665.45c-.39.28-.59.72-.59,1.29s.2,1.02.58,1.3c-.23-.31-.35-.74-.35-1.28s.12-.99.35-1.31"/><path class="cls-1" d="M15.17,678.64c-1.2,0-1.87.6-1.87,1.64s.67,1.66,1.87,1.66,1.89-.6,1.89-1.66-.67-1.64-1.89-1.64"/><path class="cls-1" d="M8.41,664.87c-1.04,0-1.64.67-1.64,1.89s.6,1.87,1.64,1.87,1.66-.67,1.66-1.87-.6-1.89-1.66-1.89"/><path class="cls-1" d="M1.64,664.87c-1.04,0-1.64.67-1.64,1.89s.6,1.87,1.64,1.87,1.66-.67,1.66-1.87-.6-1.89-1.66-1.89"/><path class="cls-1" d="M21.94,664.87c-1.04,0-1.64.67-1.64,1.89s.6,1.87,1.64,1.87,1.66-.67,1.66-1.87-.6-1.89-1.66-1.89"/><path class="cls-1" d="M10.53,660.19c-.46,0-.94.24-1.4.71-.84.86-.87,1.76-.13,2.49.35.34.73.51,1.11.51.46,0,.93-.23,1.38-.7.85-.88.88-1.78.13-2.51-.34-.33-.71-.49-1.09-.49"/><path class="cls-1" d="M20.25,669.61c-.46,0-.94.24-1.4.71-.84.86-.87,1.76-.13,2.49.35.34.73.51,1.11.51.46,0,.93-.23,1.38-.7.85-.88.88-1.78.13-2.51-.34-.33-.71-.49-1.09-.49"/><path class="cls-1" d="M10.25,669.77c-.4,0-.79.18-1.14.54-.72.74-.66,1.64.22,2.49.45.44.92.66,1.36.66.4,0,.78-.18,1.12-.53.73-.76.67-1.66-.2-2.49-.46-.45-.93-.67-1.37-.67"/><path class="cls-1" d="M19.67,660.04c-.4,0-.79.18-1.14.54-.72.74-.66,1.64.22,2.49.45.44.92.66,1.36.66.4,0,.78-.18,1.12-.53.73-.76.67-1.66-.19-2.49-.46-.45-.93-.67-1.37-.67"/><path class="cls-1" d="M15.17,664.87c-.57,0-1,.2-1.28.58-.23.32-.35.76-.35,1.31s.12.97.35,1.28c.28.38.72.59,1.29.59s1.03-.21,1.31-.59c.23-.31.35-.74.35-1.28s-.12-.99-.36-1.31c-.28-.38-.72-.59-1.3-.59"/><path class="cls-1" d="M28.71,664.87c-1.04,0-1.64.67-1.64,1.89s.6,1.87,1.64,1.87,1.66-.67,1.66-1.87-.6-1.89-1.66-1.89"/><path class="cls-1" d="M5.59,655.56c-.46,0-.94.24-1.4.72-.83.87-.86,1.77-.11,2.49.35.33.72.5,1.11.5.46,0,.93-.24,1.38-.71.84-.88.87-1.78.11-2.51-.34-.32-.71-.48-1.09-.48"/><path class="cls-1" d="M25.18,674.24c-.46,0-.94.24-1.4.72-.83.87-.86,1.77-.11,2.49.35.33.72.5,1.11.5.46,0,.93-.24,1.38-.71.84-.88.87-1.78.11-2.51-.34-.32-.71-.48-1.09-.48"/><path class="cls-1" d="M5.62,674.71c-.41,0-.79.18-1.14.55-.72.75-.64,1.65.24,2.49.45.43.92.65,1.36.65.4,0,.79-.18,1.13-.54.73-.76.66-1.66-.21-2.49-.46-.44-.92-.66-1.37-.66"/><path class="cls-1" d="M24.3,655.11c-.41,0-.79.18-1.14.55-.71.75-.64,1.65.24,2.49.45.43.92.65,1.36.65.4,0,.79-.18,1.13-.54.73-.76.66-1.66-.21-2.49-.46-.44-.93-.66-1.37-.66"/><path class="cls-1" d="M35.47,664.87c-1.04,0-1.64.67-1.64,1.89s.6,1.87,1.64,1.87,1.66-.67,1.66-1.87-.6-1.89-1.66-1.89"/><path class="cls-1" d="M15.17,780.42c-1.2,0-1.87.6-1.87,1.64s.67,1.66,1.87,1.66,1.89-.6,1.89-1.66-.67-1.64-1.89-1.64"/><path class="cls-1" d="M15.17,773.65c-1.2,0-1.87.6-1.87,1.64s.67,1.66,1.87,1.66,1.89-.6,1.89-1.66-.67-1.64-1.89-1.64"/><path class="cls-1" d="M15.17,793.95c-1.2,0-1.87.6-1.87,1.64s.67,1.66,1.87,1.66,1.89-.6,1.89-1.66-.67-1.64-1.89-1.64"/><path class="cls-1" d="M16.47,787.53c.23.32.36.76.36,1.31s-.12.97-.35,1.28c.38-.28.58-.72.58-1.3s-.2-1.01-.59-1.29M13.89,787.53c-.39.28-.59.72-.59,1.29s.2,1.02.58,1.3c-.23-.31-.35-.74-.35-1.28s.12-.99.35-1.31"/><path class="cls-1" d="M15.17,800.72c-1.2,0-1.87.6-1.87,1.64s.67,1.66,1.87,1.66,1.89-.6,1.89-1.66-.67-1.64-1.89-1.64"/><path class="cls-1" d="M8.41,786.95c-1.04,0-1.64.67-1.64,1.89s.6,1.87,1.64,1.87,1.66-.67,1.66-1.87-.6-1.89-1.66-1.89"/><path class="cls-1" d="M1.64,786.95c-1.04,0-1.64.67-1.64,1.89s.6,1.87,1.64,1.87,1.66-.67,1.66-1.87-.6-1.89-1.66-1.89"/><path class="cls-1" d="M21.94,786.95c-1.04,0-1.64.67-1.64,1.89s.6,1.87,1.64,1.87,1.66-.67,1.66-1.87-.6-1.89-1.66-1.89"/><path class="cls-1" d="M10.53,782.27c-.46,0-.94.24-1.4.71-.84.86-.87,1.76-.13,2.49.35.34.73.51,1.11.51.46,0,.93-.23,1.38-.7.85-.88.88-1.78.13-2.51-.34-.33-.71-.49-1.09-.49"/><path class="cls-1" d="M20.25,791.69c-.46,0-.94.24-1.4.71-.84.86-.87,1.76-.13,2.49.35.34.73.51,1.11.51.46,0,.93-.23,1.38-.7.85-.88.88-1.78.13-2.51-.34-.33-.71-.49-1.09-.49"/><path class="cls-1" d="M10.25,791.85c-.4,0-.79.18-1.14.54-.72.74-.66,1.64.22,2.49.45.44.92.66,1.36.66.4,0,.78-.18,1.12-.53.73-.76.67-1.66-.2-2.49-.46-.45-.93-.67-1.37-.67"/><path class="cls-1" d="M19.67,782.13c-.4,0-.79.18-1.14.54-.72.74-.66,1.64.22,2.49.45.44.92.66,1.36.66.4,0,.78-.18,1.12-.53.73-.76.67-1.66-.19-2.49-.46-.45-.93-.67-1.37-.67"/><path class="cls-1" d="M15.17,786.95c-.57,0-1,.2-1.28.58-.23.32-.35.76-.35,1.31s.12.97.35,1.28c.28.38.72.59,1.29.59s1.03-.21,1.31-.59c.23-.31.35-.74.35-1.28s-.12-.99-.36-1.31c-.28-.38-.72-.59-1.3-.59"/><path class="cls-1" d="M28.71,786.95c-1.04,0-1.64.67-1.64,1.89s.6,1.87,1.64,1.87,1.66-.67,1.66-1.87-.6-1.89-1.66-1.89"/><path class="cls-1" d="M5.59,777.64c-.46,0-.94.24-1.4.72-.83.87-.86,1.77-.11,2.49.35.33.72.5,1.11.5.46,0,.93-.24,1.38-.71.84-.88.87-1.78.11-2.51-.34-.32-.71-.48-1.09-.48"/><path class="cls-1" d="M25.18,796.32c-.46,0-.94.24-1.4.72-.83.87-.86,1.77-.11,2.49.35.33.72.5,1.11.5.46,0,.93-.24,1.38-.71.84-.88.87-1.78.11-2.51-.34-.32-.71-.48-1.09-.48"/><path class="cls-1" d="M5.62,796.79c-.41,0-.79.18-1.14.55-.72.75-.64,1.65.24,2.49.45.43.92.65,1.36.65.4,0,.79-.18,1.13-.54.73-.76.66-1.66-.21-2.49-.46-.44-.92-.66-1.37-.66"/><path class="cls-1" d="M24.3,777.19c-.41,0-.79.18-1.14.55-.71.75-.64,1.65.24,2.49.45.43.92.65,1.36.65.4,0,.79-.18,1.13-.54.73-.76.66-1.66-.21-2.49-.46-.44-.93-.66-1.37-.66"/><path class="cls-1" d="M15.17,766.86c-1.2,0-1.87.6-1.87,1.64s.67,1.66,1.87,1.66,1.89-.6,1.89-1.66-.67-1.64-1.89-1.64"/><path class="cls-1" d="M15.17,807.56c-1.2,0-1.87.6-1.87,1.64s.67,1.66,1.87,1.66,1.89-.6,1.89-1.66-.67-1.64-1.89-1.64"/><path class="cls-1" d="M35.47,786.95c-1.04,0-1.64.67-1.64,1.89s.6,1.87,1.64,1.87,1.66-.67,1.66-1.87-.6-1.89-1.66-1.89"/><path class="cls-1" d="M15.17,739.73c-1.2,0-1.87.6-1.87,1.64s.67,1.66,1.87,1.66,1.89-.6,1.89-1.66-.67-1.64-1.89-1.64"/><path class="cls-1" d="M15.17,732.96c-1.2,0-1.87.6-1.87,1.64s.67,1.66,1.87,1.66,1.89-.6,1.89-1.66-.67-1.64-1.89-1.64"/><path class="cls-1" d="M15.17,753.26c-1.2,0-1.87.6-1.87,1.64s.67,1.66,1.87,1.66,1.89-.6,1.89-1.66-.67-1.64-1.89-1.64"/><path class="cls-1" d="M16.47,746.84c.23.32.36.76.36,1.31s-.12.97-.35,1.28c.38-.28.58-.72.58-1.3s-.2-1.01-.59-1.29M13.89,746.84c-.39.28-.59.72-.59,1.29s.2,1.02.58,1.3c-.23-.31-.35-.74-.35-1.28s.12-.99.35-1.31"/><path class="cls-1" d="M15.17,760.03c-1.2,0-1.87.6-1.87,1.64s.67,1.66,1.87,1.66,1.89-.6,1.89-1.66-.67-1.64-1.89-1.64"/><path class="cls-1" d="M8.41,746.26c-1.04,0-1.64.67-1.64,1.89s.6,1.87,1.64,1.87,1.66-.67,1.66-1.87-.6-1.89-1.66-1.89"/><path class="cls-1" d="M1.64,746.26c-1.04,0-1.64.67-1.64,1.89s.6,1.87,1.64,1.87,1.66-.67,1.66-1.87-.6-1.89-1.66-1.89"/><path class="cls-1" d="M21.94,746.26c-1.04,0-1.64.67-1.64,1.89s.6,1.87,1.64,1.87,1.66-.67,1.66-1.87-.6-1.89-1.66-1.89"/><path class="cls-1" d="M10.53,741.58c-.46,0-.94.24-1.4.71-.84.86-.87,1.76-.13,2.49.35.34.73.51,1.11.51.46,0,.93-.23,1.38-.7.85-.88.88-1.78.13-2.51-.34-.33-.71-.49-1.09-.49"/><path class="cls-1" d="M20.25,751c-.46,0-.94.24-1.4.71-.84.86-.87,1.76-.13,2.49.35.34.73.51,1.11.51.46,0,.93-.23,1.38-.7.85-.88.88-1.78.13-2.51-.34-.33-.71-.49-1.09-.49"/><path class="cls-1" d="M10.25,751.16c-.4,0-.79.18-1.14.54-.72.74-.66,1.64.22,2.49.45.44.92.66,1.36.66.4,0,.78-.18,1.12-.53.73-.76.67-1.66-.2-2.49-.46-.45-.93-.67-1.37-.67"/><path class="cls-1" d="M19.67,741.43c-.4,0-.79.18-1.14.54-.72.74-.66,1.64.22,2.49.45.44.92.66,1.36.66.4,0,.78-.18,1.12-.53.73-.76.67-1.66-.19-2.49-.46-.45-.93-.67-1.37-.67"/><path class="cls-1" d="M15.17,746.26c-.57,0-1,.2-1.28.58-.23.32-.35.76-.35,1.31s.12.97.35,1.28c.28.38.72.59,1.29.59s1.03-.21,1.31-.59c.23-.31.35-.74.35-1.28s-.12-.99-.36-1.31c-.28-.38-.72-.59-1.3-.59"/><path class="cls-1" d="M28.71,746.26c-1.04,0-1.64.67-1.64,1.89s.6,1.87,1.64,1.87,1.66-.67,1.66-1.87-.6-1.89-1.66-1.89"/><path class="cls-1" d="M5.59,736.95c-.46,0-.94.24-1.4.72-.83.87-.86,1.77-.11,2.49.35.33.72.5,1.11.5.46,0,.93-.24,1.38-.71.84-.88.87-1.78.11-2.51-.34-.32-.71-.48-1.09-.48"/><path class="cls-1" d="M25.18,755.63c-.46,0-.94.24-1.4.72-.83.87-.86,1.77-.11,2.49.35.33.72.5,1.11.5.46,0,.93-.24,1.38-.71.84-.88.87-1.78.11-2.51-.34-.32-.71-.48-1.09-.48"/><path class="cls-1" d="M5.62,756.1c-.41,0-.79.18-1.14.55-.72.75-.64,1.65.24,2.49.45.43.92.65,1.36.65.4,0,.79-.18,1.13-.54.73-.76.66-1.66-.21-2.49-.46-.44-.92-.66-1.37-.66"/><path class="cls-1" d="M24.3,736.5c-.41,0-.79.18-1.14.55-.71.75-.64,1.65.24,2.49.45.43.92.65,1.36.65.4,0,.79-.18,1.13-.54.73-.76.66-1.66-.21-2.49-.46-.44-.93-.66-1.37-.66"/><path class="cls-1" d="M35.47,746.26c-1.04,0-1.64.67-1.64,1.89s.6,1.87,1.64,1.87,1.66-.67,1.66-1.87-.6-1.89-1.66-1.89"/><path class="cls-1" d="M15.17,821.13c-1.2,0-1.87.6-1.87,1.64s.67,1.66,1.87,1.66,1.89-.6,1.89-1.66-.67-1.64-1.89-1.64"/><path class="cls-1" d="M15.17,814.36c-1.2,0-1.87.6-1.87,1.64s.67,1.66,1.87,1.66,1.89-.6,1.89-1.66-.67-1.64-1.89-1.64"/><path class="cls-1" d="M15.17,834.67c-1.2,0-1.87.6-1.87,1.64s.67,1.66,1.87,1.66,1.89-.6,1.89-1.66-.67-1.64-1.89-1.64"/><path class="cls-1" d="M16.47,828.25c.23.32.36.76.36,1.31s-.12.97-.35,1.28c.38-.28.58-.72.58-1.3s-.2-1.01-.59-1.29M13.89,828.25c-.39.28-.59.72-.59,1.29s.2,1.02.58,1.3c-.23-.31-.35-.74-.35-1.28s.12-.99.35-1.31"/><path class="cls-1" d="M15.17,841.44c-1.2,0-1.87.6-1.87,1.64s.67,1.66,1.87,1.66,1.89-.6,1.89-1.66-.67-1.64-1.89-1.64"/><path class="cls-1" d="M8.41,827.66c-1.04,0-1.64.67-1.64,1.89s.6,1.87,1.64,1.87,1.66-.67,1.66-1.87-.6-1.89-1.66-1.89"/><path class="cls-1" d="M1.64,827.66c-1.04,0-1.64.67-1.64,1.89s.6,1.87,1.64,1.87,1.66-.67,1.66-1.87-.6-1.89-1.66-1.89"/><path class="cls-1" d="M21.94,827.66c-1.04,0-1.64.67-1.64,1.89s.6,1.87,1.64,1.87,1.66-.67,1.66-1.87-.6-1.89-1.66-1.89"/><path class="cls-1" d="M10.53,822.99c-.46,0-.94.24-1.4.71-.84.86-.87,1.76-.13,2.49.35.34.73.51,1.11.51.46,0,.93-.23,1.38-.7.85-.88.88-1.78.13-2.51-.34-.33-.71-.49-1.09-.49"/><path class="cls-1" d="M20.25,832.4c-.46,0-.94.24-1.4.71-.84.86-.87,1.76-.13,2.49.35.34.73.51,1.11.51.46,0,.93-.23,1.38-.7.85-.88.88-1.78.13-2.51-.34-.33-.71-.49-1.09-.49"/><path class="cls-1" d="M10.25,832.57c-.4,0-.79.18-1.14.54-.72.74-.66,1.64.22,2.49.45.44.92.66,1.36.66.4,0,.78-.18,1.12-.53.73-.76.67-1.66-.2-2.49-.46-.45-.93-.67-1.37-.67"/><path class="cls-1" d="M19.67,822.84c-.4,0-.79.18-1.14.54-.72.74-.66,1.64.22,2.49.45.44.92.66,1.36.66.4,0,.78-.18,1.12-.53.73-.76.67-1.66-.19-2.49-.46-.45-.93-.67-1.37-.67"/><path class="cls-1" d="M15.17,827.66c-.57,0-1,.2-1.28.58-.23.32-.35.76-.35,1.31s.12.97.35,1.28c.28.38.72.59,1.29.59s1.03-.21,1.31-.59c.23-.31.35-.74.35-1.28s-.12-.99-.36-1.31c-.28-.38-.72-.59-1.3-.59"/><path class="cls-1" d="M28.71,827.66c-1.04,0-1.64.67-1.64,1.89s.6,1.87,1.64,1.87,1.66-.67,1.66-1.87-.6-1.89-1.66-1.89"/><path class="cls-1" d="M5.59,818.35c-.46,0-.94.24-1.4.72-.83.87-.86,1.77-.11,2.49.35.33.72.5,1.11.5.46,0,.93-.24,1.38-.71.84-.88.87-1.78.11-2.51-.34-.32-.71-.48-1.09-.48"/><path class="cls-1" d="M25.18,837.03c-.46,0-.94.24-1.4.72-.83.87-.86,1.77-.11,2.49.35.33.72.5,1.11.5.46,0,.93-.24,1.38-.71.84-.88.87-1.78.11-2.51-.34-.32-.71-.48-1.09-.48"/><path class="cls-1" d="M5.62,837.5c-.41,0-.79.18-1.14.55-.72.75-.64,1.65.24,2.49.45.43.92.65,1.36.65.4,0,.79-.18,1.13-.54.73-.76.66-1.66-.21-2.49-.46-.44-.92-.66-1.37-.66"/><path class="cls-1" d="M24.3,817.91c-.41,0-.79.18-1.14.55-.71.75-.64,1.65.24,2.49.45.43.92.65,1.36.65.4,0,.79-.18,1.13-.54.73-.76.66-1.66-.21-2.49-.46-.44-.93-.66-1.37-.66"/><path class="cls-1" d="M35.47,827.66c-1.04,0-1.64.67-1.64,1.89s.6,1.87,1.64,1.87,1.66-.67,1.66-1.87-.6-1.89-1.66-1.89"/></g></svg>